<?xml version="1.0" encoding="UTF-8" standalone="no"?>
<!-- Created with Inkscape (http://www.inkscape.org/) -->

<svg
   xmlns:dc="http://purl.org/dc/elements/1.1/"
   xmlns:cc="http://creativecommons.org/ns#"
   xmlns:rdf="http://www.w3.org/1999/02/22-rdf-syntax-ns#"
   xmlns:svg="http://www.w3.org/2000/svg"
   xmlns="http://www.w3.org/2000/svg"
   version="1.1"
   width="8929.1338"
   height="3614.1731"
   id="svg3004"
   xml:space="preserve"><metadata
     id="metadata3010"><rdf:RDF><cc:Work
         rdf:about=""><dc:format>image/svg+xml</dc:format><dc:type
           rdf:resource="http://purl.org/dc/dcmitype/StillImage" /><dc:title></dc:title></cc:Work></rdf:RDF></metadata><defs
     id="defs3008"><clipPath
       id="clipPath3018"><path
         d="m 0,289.13 714.33,0 L 714.33,0 0,0 0,289.13 z"
         id="path3020" /></clipPath></defs><g
     transform="matrix(1.25,0,0,-1.25,0,3614.1733)"
     id="g3012"><g
       transform="matrix(11.369736,0,0,11.369736,-489.13172,-197.99867)"
       id="g3014"><g
         clip-path="url(#clipPath3018)"
         id="g3016"><g
           transform="translate(121.8779,168.9082)"
           id="g3022"><path
             d="m 0,0 -8.875,-85.552 c -1.28,-12.799 -4.28,-22.187 -9.009,-28.165 -5.366,-6.902 -10.765,-10.352 -16.196,-10.352 -3.258,0 -4.887,1.566 -4.887,4.694 0,1.933 1.048,4.003 1.702,5.756 1.291,3.458 2.158,5.265 3.066,5.265 0.779,0 1.297,-0.881 1.557,-2.648 0.767,-5.293 2.806,-5.311 4.984,-3.978 2.812,1.731 5.333,5.261 6.422,15.77 l 0.766,7.828 5.367,52.711 c 1.34,13.042 2.778,25.932 4.312,38.671 l 0.958,7.942 0.383,2.991 c 3.008,21.02 8.484,37.826 16.423,50.41 3.266,5.217 6.357,8.861 9.268,10.932 2.916,2.073 6.421,3.108 10.521,3.108 2.559,0 4.321,-0.342 5.281,-1.029 0.96,-0.688 1.441,-1.985 1.441,-3.89 0,-9.537 -0.779,-10.336 -2.335,-10.336 -0.586,0 -1.137,0.383 -1.653,1.151 l -2.338,2.992 c -2.29,3.223 -5.759,2.792 -8.709,1.666 C 15.116,64.664 11.787,60.967 9.112,52.628 6.44,44.283 3.894,30.813 1.475,12.208 L 0.997,7.942 0,0 z"
             id="path3024"
             style="fill:#050301;fill-opacity:1;fill-rule:nonzero;stroke:none" /></g><g
           transform="translate(144,178.9287)"
           id="g3026"><path
             d="m 0,0 c 0,-2.099 -1.702,-3.799 -3.802,-3.799 l -41.396,0 c -2.1,0 -3.802,1.7 -3.802,3.799 l 0,1.402 c 0,2.098 1.702,3.799 3.802,3.799 l 41.396,0 C -1.702,5.201 0,3.5 0,1.402 L 0,0 z"
             id="path3028"
             style="fill:#050301;fill-opacity:1;fill-rule:nonzero;stroke:none" /></g><g
           transform="translate(161.7266,179.4033)"
           id="g3030"><path
             d="m 0,0 c 2.238,3.04 4.766,5.437 7.583,7.189 2.814,1.751 5.506,2.627 8.075,2.627 2.042,0 3.746,-1.053 5.113,-3.164 1.366,-2.109 2.05,-4.762 2.05,-7.959 0,-1.846 -0.124,-4.204 -0.37,-7.069 l -1.108,-12.855 c -0.035,-0.33 -0.052,-0.643 -0.052,-0.939 0,-1.715 0.476,-2.571 1.431,-2.571 1.646,0 3.226,1.102 4.739,3.308 0.658,0.987 1.251,1.482 1.778,1.482 0.593,0 0.871,-0.33 0.839,-0.985 -0.099,-1.769 -1.484,-3.84 -4.158,-6.214 -2.673,-2.378 -4.961,-3.566 -6.863,-3.566 -2.329,0 -3.494,2.171 -3.494,6.51 0,0.984 0.065,2.332 0.198,4.042 l 1.235,15.135 c 0.066,0.659 0.097,1.396 0.097,2.22 0,2.562 -0.483,4.608 -1.45,6.137 C 14.674,4.856 13.387,5.621 11.78,5.621 8.99,5.621 6.57,3.92 4.52,0.52 2.469,-2.884 1.092,-7.477 0.39,-13.262 l -1.909,-14.939 c -0.098,-0.985 -0.378,-1.643 -0.838,-1.973 -0.462,-0.326 -1.317,-0.493 -2.568,-0.493 -1.679,0 -2.486,0.527 -2.419,1.585 l 0.1,0.89 1.58,12.803 c 0.228,1.98 0.476,3.939 0.739,5.884 0.461,3.394 0.692,5.967 0.692,7.714 0,3.228 -0.741,4.844 -2.223,4.844 -0.56,0 -1.225,-0.402 -1.999,-1.209 -0.773,-0.807 -1.341,-1.703 -1.702,-2.691 -0.428,-1.217 -0.89,-1.827 -1.384,-1.827 -0.658,0 -0.987,0.459 -0.987,1.377 0,2.23 0.983,4.614 2.946,7.155 1.964,2.54 3.821,3.813 5.571,3.813 1.189,0 2.154,-0.713 2.896,-2.136 C -0.372,6.114 0,4.265 0,1.983 L 0,0 z"
             id="path3032"
             style="fill:#050301;fill-opacity:1;fill-rule:nonzero;stroke:none" /></g><g
           transform="translate(161.7266,179.4033)"
           id="g3034"><path
             d="m 0,0 c 2.238,3.04 4.766,5.437 7.583,7.189 2.814,1.751 5.506,2.627 8.075,2.627 2.042,0 3.746,-1.053 5.113,-3.164 1.366,-2.109 2.05,-4.762 2.05,-7.959 0,-1.846 -0.124,-4.204 -0.37,-7.069 l -1.108,-12.855 c -0.035,-0.33 -0.052,-0.643 -0.052,-0.939 0,-1.715 0.476,-2.571 1.431,-2.571 1.646,0 3.226,1.102 4.739,3.308 0.658,0.987 1.251,1.482 1.778,1.482 0.593,0 0.871,-0.33 0.839,-0.985 -0.099,-1.769 -1.484,-3.84 -4.158,-6.214 -2.673,-2.378 -4.961,-3.566 -6.863,-3.566 -2.329,0 -3.494,2.171 -3.494,6.51 0,0.984 0.065,2.332 0.198,4.042 l 1.235,15.135 c 0.066,0.659 0.097,1.396 0.097,2.22 0,2.562 -0.483,4.608 -1.45,6.137 C 14.674,4.856 13.387,5.621 11.78,5.621 8.99,5.621 6.57,3.92 4.52,0.52 2.469,-2.884 1.092,-7.477 0.39,-13.262 l -1.909,-14.939 c -0.098,-0.985 -0.378,-1.643 -0.838,-1.973 -0.462,-0.326 -1.317,-0.493 -2.568,-0.493 -1.679,0 -2.486,0.527 -2.419,1.585 l 0.1,0.89 1.58,12.803 c 0.228,1.98 0.476,3.939 0.739,5.884 0.461,3.394 0.692,5.967 0.692,7.714 0,3.228 -0.741,4.844 -2.223,4.844 -0.56,0 -1.225,-0.402 -1.999,-1.209 -0.773,-0.807 -1.341,-1.703 -1.702,-2.691 -0.428,-1.217 -0.89,-1.827 -1.384,-1.827 -0.658,0 -0.987,0.459 -0.987,1.377 0,2.23 0.983,4.614 2.946,7.155 1.964,2.54 3.821,3.813 5.571,3.813 1.189,0 2.154,-0.713 2.896,-2.136 C -0.372,6.114 0,4.265 0,1.983 L 0,0 z"
             id="path3036"
             style="fill:none;stroke:#050301;stroke-width:0.5;stroke-linecap:butt;stroke-linejoin:miter;stroke-miterlimit:10;stroke-opacity:1;stroke-dasharray:none" /></g><g
           transform="translate(216.5205,187.1465)"
           id="g3038"><path
             d="m 0,0 c -3.762,0 -6.903,-2.12 -9.428,-6.359 -2.524,-4.24 -3.784,-9.499 -3.784,-15.777 0,-9.203 2.803,-13.804 8.413,-13.804 3.396,0 6.324,2.258 8.782,6.778 2.457,4.52 3.688,9.934 3.688,16.246 C 7.671,-4.305 5.113,0 0,0 m -0.13,2.419 c 4.377,0 7.866,-1.455 10.465,-4.368 2.601,-2.913 3.901,-6.822 3.901,-11.727 0,-6.943 -1.943,-12.86 -5.826,-17.746 -3.883,-4.889 -8.59,-7.331 -14.118,-7.331 -4.181,0 -7.579,1.556 -10.196,4.663 -2.616,3.111 -3.924,7.135 -3.924,12.072 0,3.653 0.765,7.347 2.296,11.083 1.531,3.734 3.481,6.691 5.85,8.863 3.258,2.994 7.108,4.491 11.552,4.491"
             id="path3040"
             style="fill:#050301;fill-opacity:1;fill-rule:nonzero;stroke:none" /></g><g
           transform="translate(216.5205,187.1465)"
           id="g3042"><path
             d="m 0,0 c -3.762,0 -6.903,-2.12 -9.428,-6.359 -2.524,-4.24 -3.784,-9.499 -3.784,-15.777 0,-9.203 2.803,-13.804 8.413,-13.804 3.396,0 6.324,2.258 8.782,6.778 2.457,4.52 3.688,9.934 3.688,16.246 C 7.671,-4.305 5.113,0 0,0 z m -0.13,2.419 c 4.377,0 7.866,-1.455 10.465,-4.368 2.601,-2.913 3.901,-6.822 3.901,-11.727 0,-6.943 -1.943,-12.86 -5.826,-17.746 -3.883,-4.889 -8.59,-7.331 -14.118,-7.331 -4.181,0 -7.579,1.556 -10.196,4.663 -2.616,3.111 -3.924,7.135 -3.924,12.072 0,3.653 0.765,7.347 2.296,11.083 1.531,3.734 3.481,6.691 5.85,8.863 3.258,2.994 7.108,4.491 11.552,4.491 z"
             id="path3044"
             style="fill:none;stroke:#050301;stroke-width:0.5;stroke-linecap:butt;stroke-linejoin:miter;stroke-miterlimit:10;stroke-opacity:1;stroke-dasharray:none" /></g><g
           transform="translate(249.2856,179.1006)"
           id="g3046"><path
             d="m 0,0 c 3.617,6.746 7.431,10.119 11.441,10.119 2.301,0 3.452,-0.785 3.452,-2.357 0,-0.393 -0.098,-0.9 -0.296,-1.522 C 14.368,5.521 14.235,5.062 14.203,4.866 L 13.61,2.508 C 13.375,1.428 12.872,0.871 12.1,0.839 11.697,0.805 11.345,1.168 11.043,1.925 10.29,3.802 9.126,4.738 7.557,4.738 6.018,4.738 4.693,3.057 3.58,-0.303 2.465,-3.666 1.473,-9.005 0.6,-16.323 l -1.407,-11.567 -0.048,-0.545 c -0.131,-1.286 -1.168,-1.929 -3.109,-1.929 -1.746,0 -2.618,0.527 -2.618,1.585 0,0.228 0.017,0.526 0.05,0.889 l 2.419,19.33 c 0.131,1.088 0.196,2.408 0.196,3.956 0,4.879 -1.118,7.319 -3.357,7.319 -0.986,0 -1.892,-0.547 -2.714,-1.642 -0.823,-1.093 -1.349,-2.435 -1.58,-4.024 -0.165,-1.258 -0.56,-1.89 -1.185,-1.89 -0.758,0 -1.136,0.793 -1.136,2.371 0,3.359 0.838,6.123 2.513,8.295 0.788,1.02 1.756,1.941 2.905,2.764 1.149,0.822 2.07,1.235 2.759,1.235 C -3.579,9.824 -1.674,6.548 0,0"
             id="path3048"
             style="fill:#050301;fill-opacity:1;fill-rule:nonzero;stroke:none" /></g><g
           transform="translate(249.2856,179.1006)"
           id="g3050"><path
             d="m 0,0 c 3.617,6.746 7.431,10.119 11.441,10.119 2.301,0 3.452,-0.785 3.452,-2.357 0,-0.393 -0.098,-0.9 -0.296,-1.522 C 14.368,5.521 14.235,5.062 14.203,4.866 L 13.61,2.508 C 13.375,1.428 12.872,0.871 12.1,0.839 11.697,0.805 11.345,1.168 11.043,1.925 10.29,3.802 9.126,4.738 7.557,4.738 6.018,4.738 4.693,3.057 3.58,-0.303 2.465,-3.666 1.473,-9.005 0.6,-16.323 l -1.407,-11.567 -0.048,-0.545 c -0.131,-1.286 -1.168,-1.929 -3.109,-1.929 -1.746,0 -2.618,0.527 -2.618,1.585 0,0.228 0.017,0.526 0.05,0.889 l 2.419,19.33 c 0.131,1.088 0.196,2.408 0.196,3.956 0,4.879 -1.118,7.319 -3.357,7.319 -0.986,0 -1.892,-0.547 -2.714,-1.642 -0.823,-1.093 -1.349,-2.435 -1.58,-4.024 -0.165,-1.258 -0.56,-1.89 -1.185,-1.89 -0.758,0 -1.136,0.793 -1.136,2.371 0,3.359 0.838,6.123 2.513,8.295 0.788,1.02 1.756,1.941 2.905,2.764 1.149,0.822 2.07,1.235 2.759,1.235 C -3.579,9.824 -1.674,6.548 0,0 z"
             id="path3052"
             style="fill:none;stroke:#050301;stroke-width:0.5;stroke-linecap:butt;stroke-linejoin:miter;stroke-miterlimit:10;stroke-opacity:1;stroke-dasharray:none" /></g><g
           transform="translate(289.8403,169.1045)"
           id="g3054"><path
             d="m 0,0 1.583,12.659 c 0.069,0.56 0.099,1.004 0.099,1.336 0,2.665 -1.979,4 -5.937,4 -3.098,0 -6.032,-1.649 -8.802,-4.937 -1.881,-2.273 -3.456,-5.22 -4.724,-8.84 -1.271,-3.621 -1.907,-7.026 -1.907,-10.218 0,-2.996 0.667,-5.392 2.005,-7.183 1.334,-1.796 3.106,-2.691 5.319,-2.691 3.131,0 5.919,1.483 8.358,4.451 C -1.962,-8.884 -0.625,-5.076 0,0 m -1.274,-10.443 c -3.652,-6.846 -8.325,-10.268 -14.021,-10.268 -3.159,0 -5.636,1.134 -7.43,3.404 -1.794,2.273 -2.689,5.398 -2.689,9.382 0,7.011 2.241,13.418 6.725,19.229 4.487,5.808 9.418,8.713 14.791,8.713 1.747,0 3.807,-0.576 6.182,-1.728 l 3.004,24.149 c 0.167,1.314 0.253,2.217 0.253,2.709 0,1.118 -0.89,1.677 -2.667,1.677 l -2.418,0 c -1.316,0 -1.958,0.321 -1.928,0.962 0.034,0.706 0.672,1.093 1.918,1.16 3.774,0.232 6.46,0.511 8.068,0.841 0.951,0.197 1.704,0.296 2.263,0.296 0.624,0 0.934,-0.379 0.934,-1.137 0,-0.23 -0.018,-0.427 -0.047,-0.592 L 5.046,-5.549 C 4.814,-7.56 4.703,-9.19 4.703,-10.439 c 0,-2.932 0.787,-4.398 2.364,-4.398 1.783,0 3.525,1.399 5.238,4.194 l 0.885,1.484 c 0.361,0.526 0.711,0.789 1.038,0.789 0.495,0 0.739,-0.263 0.739,-0.787 0,-1.509 -0.907,-3.492 -2.722,-5.948 -2.475,-3.41 -5.117,-5.115 -7.922,-5.115 -1.751,0 -2.99,0.518 -3.717,1.549 -0.722,1.031 -1.269,3.004 -1.63,5.919 -0.07,0.524 -0.151,1.293 -0.25,2.309"
             id="path3056"
             style="fill:#050301;fill-opacity:1;fill-rule:nonzero;stroke:none" /></g><g
           transform="translate(289.8403,169.1045)"
           id="g3058"><path
             d="m 0,0 1.583,12.659 c 0.069,0.56 0.099,1.004 0.099,1.336 0,2.665 -1.979,4 -5.937,4 -3.098,0 -6.032,-1.649 -8.802,-4.937 -1.881,-2.273 -3.456,-5.22 -4.724,-8.84 -1.271,-3.621 -1.907,-7.026 -1.907,-10.218 0,-2.996 0.667,-5.392 2.005,-7.183 1.334,-1.796 3.106,-2.691 5.319,-2.691 3.131,0 5.919,1.483 8.358,4.451 C -1.962,-8.884 -0.625,-5.076 0,0 z m -1.274,-10.443 c -3.652,-6.846 -8.325,-10.268 -14.021,-10.268 -3.159,0 -5.636,1.134 -7.43,3.404 -1.794,2.273 -2.689,5.398 -2.689,9.382 0,7.011 2.241,13.418 6.725,19.229 4.487,5.808 9.418,8.713 14.791,8.713 1.747,0 3.807,-0.576 6.182,-1.728 l 3.004,24.149 c 0.167,1.314 0.253,2.217 0.253,2.709 0,1.118 -0.89,1.677 -2.667,1.677 l -2.418,0 c -1.316,0 -1.958,0.321 -1.928,0.962 0.034,0.706 0.672,1.093 1.918,1.16 3.774,0.232 6.46,0.511 8.068,0.841 0.951,0.197 1.704,0.296 2.263,0.296 0.624,0 0.934,-0.379 0.934,-1.137 0,-0.23 -0.018,-0.427 -0.047,-0.592 L 5.046,-5.549 C 4.814,-7.56 4.703,-9.19 4.703,-10.439 c 0,-2.932 0.787,-4.398 2.364,-4.398 1.783,0 3.525,1.399 5.238,4.194 l 0.885,1.484 c 0.361,0.526 0.711,0.789 1.038,0.789 0.495,0 0.739,-0.263 0.739,-0.787 0,-1.509 -0.907,-3.492 -2.722,-5.948 -2.475,-3.41 -5.117,-5.115 -7.922,-5.115 -1.751,0 -2.99,0.518 -3.717,1.549 -0.722,1.031 -1.269,3.004 -1.63,5.919 -0.07,0.524 -0.151,1.293 -0.25,2.309 z"
             id="path3060"
             style="fill:none;stroke:#050301;stroke-width:0.5;stroke-linecap:butt;stroke-linejoin:miter;stroke-miterlimit:10;stroke-opacity:1;stroke-dasharray:none" /></g><path
           d="m 335.972,179.647 -10.188,0 0,-10.188 10.188,0 0,10.188 z m -10.188,-30.564 0,10.188 -10.189,0 0,20.376 10.189,0 0,10.188 20.375,0 0,-10.188 10.188,0 0,-10.188 -20.375,0 0,-10.188 10.187,0 0,-10.188 -20.375,0 z"
           id="path3062"
           style="fill:#4bbc39;fill-opacity:1;fill-rule:nonzero;stroke:none" /><path
           d="m 376.723,149.083 -10.188,0 0,30.564 10.188,0 0,-30.564 z m 0,40.752 -10.188,0 0,10.188 10.188,0 0,-10.188 z"
           id="path3064"
           style="fill:#4bbc39;fill-opacity:1;fill-rule:nonzero;stroke:none" /><path
           d="m 417.475,179.647 10.188,0 0,-30.564 -10.188,0 0,30.564 z m -20.375,-30.564 -10.19,0 0,40.752 30.565,0 0,-10.188 -20.375,0 0,-30.564 z"
           id="path3066"
           style="fill:#4bbc39;fill-opacity:1;fill-rule:nonzero;stroke:none" /><path
           d="m 448.037,159.271 20.377,0 0,20.377 -20.377,0 0,-20.377 z m 0,-20.375 20.377,0 0,10.187 -20.377,0 0,10.188 -10.187,0 0,20.376 10.187,0 0,10.188 30.565,0 0,-50.939 -10.188,0 0,-10.188 -20.377,0 0,10.188 z"
           id="path3068"
           style="fill:#4bbc39;fill-opacity:1;fill-rule:nonzero;stroke:none" /><path
           d="m 498.977,159.271 20.377,0 0,20.377 -20.377,0 0,-20.377 z m 0,20.376 0,10.188 30.564,0 0,-40.752 -30.564,0 0,10.188 -10.186,0 0,20.376 10.186,0 z"
           id="path3070"
           style="fill:#4bbc39;fill-opacity:1;fill-rule:nonzero;stroke:none" /><path
           d="m 570.293,179.647 10.188,0 0,-30.564 -10.188,0 0,30.564 z m -20.375,-30.564 -10.189,0 0,40.752 30.564,0 0,-10.188 -20.375,0 0,-30.564 z"
           id="path3072"
           style="fill:#4bbc39;fill-opacity:1;fill-rule:nonzero;stroke:none" /><path
           d="m 600.855,159.271 20.375,0 0,20.377 -20.375,0 0,-20.377 z m 0,-20.375 20.375,0 0,10.187 -20.375,0 0,10.188 -10.187,0 0,20.376 10.187,0 0,10.188 30.565,0 0,-50.939 -10.19,0 0,-10.188 -20.375,0 0,10.188 z"
           id="path3074"
           style="fill:#4bbc39;fill-opacity:1;fill-rule:nonzero;stroke:none" /><g
           transform="translate(323.3149,91.7227)"
           id="g3076"><path
             d="m 0,0 c 1.832,2.262 3.828,3.394 5.987,3.394 2.003,0 3.626,-0.691 4.868,-2.071 1.244,-1.381 1.865,-3.186 1.865,-5.421 l 0,-6.765 c 0,-1.081 0.178,-1.822 0.533,-2.219 0.356,-0.399 1.11,-0.69 2.263,-0.876 0.384,-0.057 0.576,-0.213 0.576,-0.469 0,-0.257 -0.192,-0.386 -0.576,-0.386 -0.171,0 -0.52,0.023 -1.046,0.066 -1.053,0.07 -1.956,0.106 -2.71,0.106 -1.253,0 -2.177,-0.037 -2.775,-0.114 -0.341,-0.038 -0.562,-0.058 -0.662,-0.058 -0.384,0 -0.583,0.133 -0.597,0.395 -0.015,0.176 0.128,0.322 0.427,0.439 0.725,0.269 1.173,0.513 1.345,0.733 0.17,0.22 0.255,0.649 0.255,1.286 l 0.021,0.659 0,7.078 c 0,1.799 -0.461,3.227 -1.383,4.283 C 7.467,1.116 6.232,1.644 4.685,1.644 3.492,1.644 2.413,1.271 1.448,0.525 0.482,-0.22 0,-1.057 0,-1.984 l 0,-8.275 c 0,-1.454 0.164,-2.394 0.491,-2.822 0.327,-0.428 1.124,-0.727 2.39,-0.898 0.484,-0.07 0.726,-0.244 0.726,-0.521 0,-0.235 -0.157,-0.354 -0.471,-0.354 -0.157,0 -0.549,0.032 -1.177,0.094 -0.513,0.051 -1.597,0.076 -3.251,0.076 -0.571,0 -1.391,-0.037 -2.46,-0.113 -0.471,-0.038 -0.799,-0.057 -0.985,-0.057 -0.342,0 -0.52,0.111 -0.534,0.333 -0.015,0.25 0.149,0.423 0.491,0.521 0.839,0.256 1.355,0.548 1.547,0.874 0.191,0.326 0.288,1.102 0.288,2.324 l 0,22.222 c 0,1.749 -0.477,2.594 -1.43,2.538 l -1.088,-0.064 c -0.115,0 -0.214,0.022 -0.299,0.065 -0.1,0.059 -0.15,0.153 -0.15,0.286 0,0.204 0.164,0.351 0.493,0.439 0.899,0.212 1.898,0.583 2.999,1.109 l 1.67,0.79 c 0.171,0.085 0.322,0.128 0.45,0.128 0.243,0 0.364,-0.156 0.364,-0.47 0,-0.085 -0.014,-0.256 -0.043,-0.512 C 0.007,15.487 0,15.124 0,14.641 L 0,0 z"
             id="path3078"
             style="fill:#050301;fill-opacity:1;fill-rule:nonzero;stroke:none" /></g><g
           transform="translate(323.3149,91.7227)"
           id="g3080"><path
             d="m 0,0 c 1.832,2.262 3.828,3.394 5.987,3.394 2.003,0 3.626,-0.691 4.868,-2.071 1.244,-1.381 1.865,-3.186 1.865,-5.421 l 0,-6.765 c 0,-1.081 0.178,-1.822 0.533,-2.219 0.356,-0.399 1.11,-0.69 2.263,-0.876 0.384,-0.057 0.576,-0.213 0.576,-0.469 0,-0.257 -0.192,-0.386 -0.576,-0.386 -0.171,0 -0.52,0.023 -1.046,0.066 -1.053,0.07 -1.956,0.106 -2.71,0.106 -1.253,0 -2.177,-0.037 -2.775,-0.114 -0.341,-0.038 -0.562,-0.058 -0.662,-0.058 -0.384,0 -0.583,0.133 -0.597,0.395 -0.015,0.176 0.128,0.322 0.427,0.439 0.725,0.269 1.173,0.513 1.345,0.733 0.17,0.22 0.255,0.649 0.255,1.286 l 0.021,0.659 0,7.078 c 0,1.799 -0.461,3.227 -1.383,4.283 C 7.467,1.116 6.232,1.644 4.685,1.644 3.492,1.644 2.413,1.271 1.448,0.525 0.482,-0.22 0,-1.057 0,-1.984 l 0,-8.275 c 0,-1.454 0.164,-2.394 0.491,-2.822 0.327,-0.428 1.124,-0.727 2.39,-0.898 0.484,-0.07 0.726,-0.244 0.726,-0.521 0,-0.235 -0.157,-0.354 -0.471,-0.354 -0.157,0 -0.549,0.032 -1.177,0.094 -0.513,0.051 -1.597,0.076 -3.251,0.076 -0.571,0 -1.391,-0.037 -2.46,-0.113 -0.471,-0.038 -0.799,-0.057 -0.985,-0.057 -0.342,0 -0.52,0.111 -0.534,0.333 -0.015,0.25 0.149,0.423 0.491,0.521 0.839,0.256 1.355,0.548 1.547,0.874 0.191,0.326 0.288,1.102 0.288,2.324 l 0,22.222 c 0,1.749 -0.477,2.594 -1.43,2.538 l -1.088,-0.064 c -0.115,0 -0.214,0.022 -0.299,0.065 -0.1,0.059 -0.15,0.153 -0.15,0.286 0,0.204 0.164,0.351 0.493,0.439 0.899,0.212 1.898,0.583 2.999,1.109 l 1.67,0.79 c 0.171,0.085 0.322,0.128 0.45,0.128 0.243,0 0.364,-0.156 0.364,-0.47 0,-0.085 -0.014,-0.256 -0.043,-0.512 C 0.007,15.487 0,15.124 0,14.641 L 0,0 z"
             id="path3082"
             style="fill:none;stroke:#050301;stroke-width:0.5;stroke-linecap:butt;stroke-linejoin:miter;stroke-miterlimit:10;stroke-opacity:1;stroke-dasharray:none" /></g><g
           transform="translate(351.9219,85.7471)"
           id="g3084"><path
             d="m 0,0 c -2.207,-0.198 -3.911,-0.697 -5.112,-1.496 -1.202,-0.8 -1.803,-1.822 -1.803,-3.068 0,-0.977 0.286,-1.75 0.859,-2.324 0.573,-0.573 1.347,-0.859 2.323,-0.859 1.187,0 2.184,0.39 2.99,1.167 C -0.248,-6.086 0,-5.301 0,-4.226 L 0,0 z m 0,0.854 0,2.631 c 0,1.625 -0.307,2.751 -0.918,3.373 -0.825,0.849 -1.935,1.273 -3.329,1.273 -1.878,0 -2.817,-0.79 -2.817,-2.37 0,-0.466 0.092,-1.002 0.277,-1.608 0.085,-0.255 0.135,-0.48 0.149,-0.677 0.014,-0.255 -0.127,-0.381 -0.424,-0.381 -0.664,0 -1.268,0.141 -1.812,0.426 -0.543,0.284 -0.815,0.598 -0.815,0.939 0,0.879 0.476,1.828 1.429,2.848 1.281,1.374 2.981,2.061 5.101,2.061 1.935,0 3.436,-0.43 4.503,-1.29 C 2.411,7.22 2.945,6.008 2.945,4.445 l 0,-8.355 c 0,-1.322 0.16,-2.263 0.48,-2.824 0.32,-0.563 0.857,-0.842 1.612,-0.842 0.213,0 0.383,0.012 0.512,0.036 0.256,0.061 0.427,0.091 0.512,0.091 0.242,0.014 0.355,-0.085 0.341,-0.298 C 6.389,-8.003 6.052,-8.264 5.396,-8.526 4.739,-8.79 4.097,-8.921 3.469,-8.921 c -1.17,0 -2.226,0.726 -3.168,2.177 -2.06,-1.567 -3.97,-2.348 -5.731,-2.348 -1.335,0 -2.396,0.36 -3.184,1.077 -0.789,0.718 -1.182,1.684 -1.182,2.893 0,1.637 0.745,2.906 2.235,3.809 C -6.07,-0.409 -3.55,0.313 0,0.854"
             id="path3086"
             style="fill:#050301;fill-opacity:1;fill-rule:nonzero;stroke:none" /></g><g
           transform="translate(351.9219,85.7471)"
           id="g3088"><path
             d="m 0,0 c -2.207,-0.198 -3.911,-0.697 -5.112,-1.496 -1.202,-0.8 -1.803,-1.822 -1.803,-3.068 0,-0.977 0.286,-1.75 0.859,-2.324 0.573,-0.573 1.347,-0.859 2.323,-0.859 1.187,0 2.184,0.39 2.99,1.167 C -0.248,-6.086 0,-5.301 0,-4.226 L 0,0 z m 0,0.854 0,2.631 c 0,1.625 -0.307,2.751 -0.918,3.373 -0.825,0.849 -1.935,1.273 -3.329,1.273 -1.878,0 -2.817,-0.79 -2.817,-2.37 0,-0.466 0.092,-1.002 0.277,-1.608 0.085,-0.255 0.135,-0.48 0.149,-0.677 0.014,-0.255 -0.127,-0.381 -0.424,-0.381 -0.664,0 -1.268,0.141 -1.812,0.426 -0.543,0.284 -0.815,0.598 -0.815,0.939 0,0.879 0.476,1.828 1.429,2.848 1.281,1.374 2.981,2.061 5.101,2.061 1.935,0 3.436,-0.43 4.503,-1.29 C 2.411,7.22 2.945,6.008 2.945,4.445 l 0,-8.355 c 0,-1.322 0.16,-2.263 0.48,-2.824 0.32,-0.563 0.857,-0.842 1.612,-0.842 0.213,0 0.383,0.012 0.512,0.036 0.256,0.061 0.427,0.091 0.512,0.091 0.242,0.014 0.355,-0.085 0.341,-0.298 C 6.389,-8.003 6.052,-8.264 5.396,-8.526 4.739,-8.79 4.097,-8.921 3.469,-8.921 c -1.17,0 -2.226,0.726 -3.168,2.177 -2.06,-1.567 -3.97,-2.348 -5.731,-2.348 -1.335,0 -2.396,0.36 -3.184,1.077 -0.789,0.718 -1.182,1.684 -1.182,2.893 0,1.637 0.745,2.906 2.235,3.809 C -6.07,-0.409 -3.55,0.313 0,0.854 z"
             id="path3090"
             style="fill:none;stroke:#050301;stroke-width:0.5;stroke-linecap:butt;stroke-linejoin:miter;stroke-miterlimit:10;stroke-opacity:1;stroke-dasharray:none" /></g><g
           transform="translate(370.0703,95.1162)"
           id="g3092"><path
             d="m 0,0 c 1.223,0 2.314,-0.154 3.277,-0.463 0.959,-0.309 1.44,-0.66 1.44,-1.052 L 4.695,-2.156 4.844,-3.777 c 0,-0.755 -0.174,-1.147 -0.522,-1.175 -0.16,-0.014 -0.361,0.197 -0.609,0.634 -0.453,0.815 -1.217,1.521 -2.289,2.12 -1.072,0.597 -2.112,0.896 -3.121,0.896 -1.391,0 -2.526,-0.636 -3.407,-1.907 -0.879,-1.272 -1.32,-2.909 -1.32,-4.912 0,-2.373 0.678,-4.38 2.034,-6.023 1.357,-1.64 3.015,-2.46 4.976,-2.46 1.574,0 3.123,0.647 4.643,1.942 0.189,0.156 0.365,0.241 0.525,0.256 0.219,0.028 0.328,-0.071 0.328,-0.297 0,-0.311 -0.342,-0.773 -1.023,-1.381 -1.766,-1.584 -3.885,-2.377 -6.362,-2.377 -2.275,0 -4.178,0.828 -5.707,2.483 -1.531,1.656 -2.295,3.707 -2.295,6.151 0,2.728 0.907,5.048 2.721,6.96 C -4.77,-0.955 -2.575,0 0,0"
             id="path3094"
             style="fill:#050301;fill-opacity:1;fill-rule:nonzero;stroke:none" /></g><g
           transform="translate(370.0703,95.1162)"
           id="g3096"><path
             d="m 0,0 c 1.223,0 2.314,-0.154 3.277,-0.463 0.959,-0.309 1.44,-0.66 1.44,-1.052 L 4.695,-2.156 4.844,-3.777 c 0,-0.755 -0.174,-1.147 -0.522,-1.175 -0.16,-0.014 -0.361,0.197 -0.609,0.634 -0.453,0.815 -1.217,1.521 -2.289,2.12 -1.072,0.597 -2.112,0.896 -3.121,0.896 -1.391,0 -2.526,-0.636 -3.407,-1.907 -0.879,-1.272 -1.32,-2.909 -1.32,-4.912 0,-2.373 0.678,-4.38 2.034,-6.023 1.357,-1.64 3.015,-2.46 4.976,-2.46 1.574,0 3.123,0.647 4.643,1.942 0.189,0.156 0.365,0.241 0.525,0.256 0.219,0.028 0.328,-0.071 0.328,-0.297 0,-0.311 -0.342,-0.773 -1.023,-1.381 -1.766,-1.584 -3.885,-2.377 -6.362,-2.377 -2.275,0 -4.178,0.828 -5.707,2.483 -1.531,1.656 -2.295,3.707 -2.295,6.151 0,2.728 0.907,5.048 2.721,6.96 C -4.77,-0.955 -2.575,0 0,0 z"
             id="path3098"
             style="fill:none;stroke:#050301;stroke-width:0.5;stroke-linecap:butt;stroke-linejoin:miter;stroke-miterlimit:10;stroke-opacity:1;stroke-dasharray:none" /></g><g
           transform="translate(383.502,86.1953)"
           id="g3100"><path
             d="M 0,0 6.322,5.499 C 6.846,5.957 7.109,6.335 7.109,6.634 7.109,7.148 6.73,7.483 5.977,7.64 5.436,7.752 5.166,7.904 5.166,8.099 5.166,8.377 5.344,8.508 5.701,8.494 5.914,8.478 6.285,8.445 6.813,8.396 7.199,8.347 7.848,8.322 8.762,8.322 c 1.297,0 2.209,0.023 2.738,0.066 0.514,0.028 0.885,0.042 1.113,0.042 0.27,0 0.414,-0.105 0.428,-0.313 C 13.055,7.867 12.764,7.672 12.166,7.534 11.057,7.29 10.209,6.948 9.627,6.506 L 8.053,5.306 7.307,4.75 3.459,1.345 4.416,0.109 c 2.951,-3.805 4.914,-6.126 5.887,-6.963 0.972,-0.838 2.248,-1.306 3.826,-1.406 0.355,-0.014 0.535,-0.132 0.535,-0.349 0,-0.323 -0.242,-0.483 -0.726,-0.483 L 12.23,-9.028 11.248,-9.05 c -0.896,0 -1.459,-0.006 -1.685,-0.021 -0.186,-0.014 -0.334,-0.021 -0.45,-0.021 -0.34,0 -0.697,0.199 -1.066,0.598 L 4.982,-5.187 C 4.146,-4.29 2.904,-2.753 1.26,-0.577 L 0,-1.665 0,-5.005 c 0,-1.19 0.225,-2.031 0.674,-2.52 0.447,-0.491 1.213,-0.735 2.293,-0.735 0.398,0 0.597,-0.124 0.597,-0.372 0,-0.321 -0.193,-0.481 -0.578,-0.481 -0.099,0 -0.562,0.063 -1.39,0.192 -0.213,0.028 -0.598,0.043 -1.155,0.043 -1.867,0 -2.988,-0.021 -3.359,-0.064 -1.098,-0.1 -1.732,-0.15 -1.902,-0.15 -0.272,0 -0.409,0.117 -0.409,0.351 0,0.22 0.1,0.358 0.301,0.418 l 0.725,0.255 c 0.795,0.269 1.195,0.859 1.195,1.768 l 0.043,1.109 0.022,0.724 0,21.118 c 0,2.017 -0.705,3.026 -2.114,3.026 l -0.767,0.021 c -0.315,0 -0.471,0.116 -0.471,0.351 0,0.219 0.186,0.38 0.557,0.482 l 0.984,0.257 c 0.772,0.184 1.35,0.362 1.734,0.532 l 1.543,0.598 c 0.385,0.156 0.649,0.285 0.793,0.384 0.186,0.114 0.329,0.171 0.428,0.171 0.199,0 0.299,-0.192 0.299,-0.576 L 0.021,21.044 0,20.149 0,0 z"
             id="path3102"
             style="fill:#050301;fill-opacity:1;fill-rule:nonzero;stroke:none" /></g><g
           transform="translate(383.502,86.1953)"
           id="g3104"><path
             d="M 0,0 6.322,5.499 C 6.846,5.957 7.109,6.335 7.109,6.634 7.109,7.148 6.73,7.483 5.977,7.64 5.436,7.752 5.166,7.904 5.166,8.099 5.166,8.377 5.344,8.508 5.701,8.494 5.914,8.478 6.285,8.445 6.813,8.396 7.199,8.347 7.848,8.322 8.762,8.322 c 1.297,0 2.209,0.023 2.738,0.066 0.514,0.028 0.885,0.042 1.113,0.042 0.27,0 0.414,-0.105 0.428,-0.313 C 13.055,7.867 12.764,7.672 12.166,7.534 11.057,7.29 10.209,6.948 9.627,6.506 L 8.053,5.306 7.307,4.75 3.459,1.345 4.416,0.109 c 2.951,-3.805 4.914,-6.126 5.887,-6.963 0.972,-0.838 2.248,-1.306 3.826,-1.406 0.355,-0.014 0.535,-0.132 0.535,-0.349 0,-0.323 -0.242,-0.483 -0.726,-0.483 L 12.23,-9.028 11.248,-9.05 c -0.896,0 -1.459,-0.006 -1.685,-0.021 -0.186,-0.014 -0.334,-0.021 -0.45,-0.021 -0.34,0 -0.697,0.199 -1.066,0.598 L 4.982,-5.187 C 4.146,-4.29 2.904,-2.753 1.26,-0.577 L 0,-1.665 0,-5.005 c 0,-1.19 0.225,-2.031 0.674,-2.52 0.447,-0.491 1.213,-0.735 2.293,-0.735 0.398,0 0.597,-0.124 0.597,-0.372 0,-0.321 -0.193,-0.481 -0.578,-0.481 -0.099,0 -0.562,0.063 -1.39,0.192 -0.213,0.028 -0.598,0.043 -1.155,0.043 -1.867,0 -2.988,-0.021 -3.359,-0.064 -1.098,-0.1 -1.732,-0.15 -1.902,-0.15 -0.272,0 -0.409,0.117 -0.409,0.351 0,0.22 0.1,0.358 0.301,0.418 l 0.725,0.255 c 0.795,0.269 1.195,0.859 1.195,1.768 l 0.043,1.109 0.022,0.724 0,21.118 c 0,2.017 -0.705,3.026 -2.114,3.026 l -0.767,0.021 c -0.315,0 -0.471,0.116 -0.471,0.351 0,0.219 0.186,0.38 0.557,0.482 l 0.984,0.257 c 0.772,0.184 1.35,0.362 1.734,0.532 l 1.543,0.598 c 0.385,0.156 0.649,0.285 0.793,0.384 0.186,0.114 0.329,0.171 0.428,0.171 0.199,0 0.299,-0.192 0.299,-0.576 L 0.021,21.044 0,20.149 0,0 z"
             id="path3106"
             style="fill:none;stroke:#050301;stroke-width:0.5;stroke-linecap:butt;stroke-linejoin:miter;stroke-miterlimit:10;stroke-opacity:1;stroke-dasharray:none" /></g><g
           transform="translate(401.9297,88.9902)"
           id="g3108"><path
             d="M 0,0 7.234,0 C 8.357,0 8.92,0.229 8.92,0.684 8.92,1.793 8.439,2.825 7.48,3.777 6.52,4.731 5.477,5.208 4.354,5.208 3.186,5.208 2.215,4.742 1.439,3.811 0.664,2.878 0.184,1.608 0,0 M -0.129,-1.174 -0.15,-1.643 c 0,-2.432 0.673,-4.478 2.021,-6.135 1.346,-1.659 3.002,-2.487 4.969,-2.487 1.553,0 3.244,0.697 5.066,2.091 0.115,0.086 0.223,0.136 0.323,0.15 0.199,0.013 0.298,-0.1 0.298,-0.339 0,-0.426 -0.498,-1.028 -1.494,-1.807 -1.849,-1.443 -3.806,-2.165 -5.869,-2.165 -2.318,0 -4.266,0.88 -5.838,2.644 -1.57,1.76 -2.357,3.942 -2.357,6.545 0,2.471 0.81,4.635 2.433,6.491 1.621,1.853 3.522,2.781 5.698,2.781 2.377,0 4.275,-0.988 5.699,-2.967 0.342,-0.484 0.689,-1.138 1.045,-1.963 0.355,-0.826 0.533,-1.402 0.533,-1.729 0,-0.469 -0.463,-0.703 -1.389,-0.703 l -1.582,0.02 -1.453,0.042 -8.082,0 z"
             id="path3110"
             style="fill:#050301;fill-opacity:1;fill-rule:nonzero;stroke:none" /></g><g
           transform="translate(401.9297,88.9902)"
           id="g3112"><path
             d="M 0,0 7.234,0 C 8.357,0 8.92,0.229 8.92,0.684 8.92,1.793 8.439,2.825 7.48,3.777 6.52,4.731 5.477,5.208 4.354,5.208 3.186,5.208 2.215,4.742 1.439,3.811 0.664,2.878 0.184,1.608 0,0 z M -0.129,-1.174 -0.15,-1.643 c 0,-2.432 0.673,-4.478 2.021,-6.135 1.346,-1.659 3.002,-2.487 4.969,-2.487 1.553,0 3.244,0.697 5.066,2.091 0.115,0.086 0.223,0.136 0.323,0.15 0.199,0.013 0.298,-0.1 0.298,-0.339 0,-0.426 -0.498,-1.028 -1.494,-1.807 -1.849,-1.443 -3.806,-2.165 -5.869,-2.165 -2.318,0 -4.266,0.88 -5.838,2.644 -1.57,1.76 -2.357,3.942 -2.357,6.545 0,2.471 0.81,4.635 2.433,6.491 1.621,1.853 3.522,2.781 5.698,2.781 2.377,0 4.275,-0.988 5.699,-2.967 0.342,-0.484 0.689,-1.138 1.045,-1.963 0.355,-0.826 0.533,-1.402 0.533,-1.729 0,-0.469 -0.463,-0.703 -1.389,-0.703 l -1.582,0.02 -1.453,0.042 -8.082,0 z"
             id="path3114"
             style="fill:none;stroke:#050301;stroke-width:0.5;stroke-linecap:butt;stroke-linejoin:miter;stroke-miterlimit:10;stroke-opacity:1;stroke-dasharray:none" /></g><g
           transform="translate(423.3867,91.2314)"
           id="g3116"><path
             d="m 0,0 c 1.65,2.589 3.172,3.885 4.566,3.885 0.442,0 1.022,-0.264 1.741,-0.79 C 7.023,2.568 7.398,2.141 7.426,1.814 7.441,1.604 7.213,1.213 6.746,0.642 c -0.469,-0.57 -0.801,-0.863 -1,-0.876 -0.1,0 -0.412,0.171 -0.937,0.511 -0.61,0.428 -1.192,0.641 -1.746,0.641 -0.864,0 -1.588,-0.314 -2.17,-0.94 -0.582,-0.626 -0.872,-1.41 -0.872,-2.347 l 0,-7.604 c 0,-1.194 0.159,-2.042 0.479,-2.546 0.32,-0.503 0.879,-0.792 1.676,-0.863 l 1.111,-0.085 c 0.455,-0.028 0.682,-0.171 0.682,-0.427 0,-0.284 -0.199,-0.427 -0.598,-0.427 -0.101,0 -0.435,0.037 -1.008,0.108 -0.269,0.027 -0.668,0.043 -1.197,0.043 l -1.539,0.021 -0.941,0 c -1.114,0 -1.905,-0.037 -2.375,-0.107 -0.372,-0.057 -0.627,-0.093 -0.77,-0.106 -0.387,-0.015 -0.578,0.124 -0.578,0.416 0,0.236 0.221,0.396 0.66,0.479 0.613,0.143 1.008,0.406 1.186,0.79 0.177,0.384 0.267,1.201 0.267,2.454 l 0,9.156 c 0,1.636 -0.783,2.455 -2.349,2.455 L -5.998,1.366 c -0.328,0 -0.49,0.147 -0.49,0.439 0,0.174 0.105,0.306 0.318,0.393 0.129,0.029 0.285,0.051 0.471,0.065 1.338,0.127 2.918,0.754 4.738,1.878 0.186,0.099 0.348,0.156 0.49,0.171 0.328,0.013 0.492,-0.228 0.492,-0.726 L 0,3.181 0,0 z"
             id="path3118"
             style="fill:#050301;fill-opacity:1;fill-rule:nonzero;stroke:none" /></g><g
           transform="translate(423.3867,91.2314)"
           id="g3120"><path
             d="m 0,0 c 1.65,2.589 3.172,3.885 4.566,3.885 0.442,0 1.022,-0.264 1.741,-0.79 C 7.023,2.568 7.398,2.141 7.426,1.814 7.441,1.604 7.213,1.213 6.746,0.642 c -0.469,-0.57 -0.801,-0.863 -1,-0.876 -0.1,0 -0.412,0.171 -0.937,0.511 -0.61,0.428 -1.192,0.641 -1.746,0.641 -0.864,0 -1.588,-0.314 -2.17,-0.94 -0.582,-0.626 -0.872,-1.41 -0.872,-2.347 l 0,-7.604 c 0,-1.194 0.159,-2.042 0.479,-2.546 0.32,-0.503 0.879,-0.792 1.676,-0.863 l 1.111,-0.085 c 0.455,-0.028 0.682,-0.171 0.682,-0.427 0,-0.284 -0.199,-0.427 -0.598,-0.427 -0.101,0 -0.435,0.037 -1.008,0.108 -0.269,0.027 -0.668,0.043 -1.197,0.043 l -1.539,0.021 -0.941,0 c -1.114,0 -1.905,-0.037 -2.375,-0.107 -0.372,-0.057 -0.627,-0.093 -0.77,-0.106 -0.387,-0.015 -0.578,0.124 -0.578,0.416 0,0.236 0.221,0.396 0.66,0.479 0.613,0.143 1.008,0.406 1.186,0.79 0.177,0.384 0.267,1.201 0.267,2.454 l 0,9.156 c 0,1.636 -0.783,2.455 -2.349,2.455 L -5.998,1.366 c -0.328,0 -0.49,0.147 -0.49,0.439 0,0.174 0.105,0.306 0.318,0.393 0.129,0.029 0.285,0.051 0.471,0.065 1.338,0.127 2.918,0.754 4.738,1.878 0.186,0.099 0.348,0.156 0.49,0.171 0.328,0.013 0.492,-0.228 0.492,-0.726 L 0,3.181 0,0 z"
             id="path3122"
             style="fill:none;stroke:#050301;stroke-width:0.5;stroke-linecap:butt;stroke-linejoin:miter;stroke-miterlimit:10;stroke-opacity:1;stroke-dasharray:none" /></g><g
           transform="translate(439.2734,95.1162)"
           id="g3124"><path
             d="m 0,0 c 1.123,0 2.092,-0.148 2.902,-0.442 l 0.94,-0.315 c 0.383,-0.14 0.576,-0.358 0.576,-0.652 l 0,-0.341 c 0,-0.2 0.014,-0.399 0.043,-0.599 L 4.547,-3.18 c 0.041,-0.299 0.062,-0.569 0.062,-0.81 0,-0.557 -0.16,-0.841 -0.48,-0.855 -0.174,-0.014 -0.334,0.171 -0.479,0.555 -0.783,2.163 -2.25,3.243 -4.398,3.243 -0.854,0 -1.555,-0.241 -2.102,-0.726 -0.546,-0.487 -0.82,-1.1 -0.82,-1.843 0,-0.785 0.293,-1.42 0.885,-1.905 0.59,-0.486 1.781,-1.079 3.574,-1.779 1.777,-0.695 3.014,-1.429 3.703,-2.204 0.69,-0.774 1.035,-1.814 1.035,-3.12 0,-1.605 -0.593,-2.98 -1.783,-4.122 -1.187,-1.144 -2.605,-1.715 -4.258,-1.715 -1.179,0 -2.461,0.334 -3.84,1.003 -0.328,0.156 -0.533,0.234 -0.619,0.234 l -0.554,0.065 c -0.328,0.028 -0.506,0.205 -0.536,0.531 l -0.021,0.914 -0.062,2.722 0.042,0.638 c 0.059,0.381 0.217,0.58 0.481,0.594 0.26,0.014 0.435,-0.199 0.521,-0.64 0.299,-1.565 0.879,-2.788 1.741,-3.67 0.861,-0.883 1.894,-1.324 3.105,-1.324 1.037,0 1.887,0.306 2.549,0.92 0.662,0.614 0.992,1.399 0.992,2.355 0,1.455 -0.803,2.54 -2.41,3.254 l -1.879,0.834 c -1.707,0.738 -2.916,1.502 -3.629,2.289 -0.711,0.789 -1.064,1.75 -1.064,2.887 0,1.362 0.547,2.512 1.64,3.45 C -2.961,-0.469 -1.607,0 0,0"
             id="path3126"
             style="fill:#050301;fill-opacity:1;fill-rule:nonzero;stroke:none" /></g><g
           transform="translate(439.2734,95.1162)"
           id="g3128"><path
             d="m 0,0 c 1.123,0 2.092,-0.148 2.902,-0.442 l 0.94,-0.315 c 0.383,-0.14 0.576,-0.358 0.576,-0.652 l 0,-0.341 c 0,-0.2 0.014,-0.399 0.043,-0.599 L 4.547,-3.18 c 0.041,-0.299 0.062,-0.569 0.062,-0.81 0,-0.557 -0.16,-0.841 -0.48,-0.855 -0.174,-0.014 -0.334,0.171 -0.479,0.555 -0.783,2.163 -2.25,3.243 -4.398,3.243 -0.854,0 -1.555,-0.241 -2.102,-0.726 -0.546,-0.487 -0.82,-1.1 -0.82,-1.843 0,-0.785 0.293,-1.42 0.885,-1.905 0.59,-0.486 1.781,-1.079 3.574,-1.779 1.777,-0.695 3.014,-1.429 3.703,-2.204 0.69,-0.774 1.035,-1.814 1.035,-3.12 0,-1.605 -0.593,-2.98 -1.783,-4.122 -1.187,-1.144 -2.605,-1.715 -4.258,-1.715 -1.179,0 -2.461,0.334 -3.84,1.003 -0.328,0.156 -0.533,0.234 -0.619,0.234 l -0.554,0.065 c -0.328,0.028 -0.506,0.205 -0.536,0.531 l -0.021,0.914 -0.062,2.722 0.042,0.638 c 0.059,0.381 0.217,0.58 0.481,0.594 0.26,0.014 0.435,-0.199 0.521,-0.64 0.299,-1.565 0.879,-2.788 1.741,-3.67 0.861,-0.883 1.894,-1.324 3.105,-1.324 1.037,0 1.887,0.306 2.549,0.92 0.662,0.614 0.992,1.399 0.992,2.355 0,1.455 -0.803,2.54 -2.41,3.254 l -1.879,0.834 c -1.707,0.738 -2.916,1.502 -3.629,2.289 -0.711,0.789 -1.064,1.75 -1.064,2.887 0,1.362 0.547,2.512 1.64,3.45 C -2.961,-0.469 -1.607,0 0,0 z"
             id="path3130"
             style="fill:none;stroke:#050301;stroke-width:0.5;stroke-linecap:butt;stroke-linejoin:miter;stroke-miterlimit:10;stroke-opacity:1;stroke-dasharray:none" /></g><g
           transform="translate(453.9004,89.6953)"
           id="g3132"><path
             d="m 0,0 0,-7.277 c 0,-1.388 0.498,-2.5 1.492,-3.336 0.994,-0.836 2.315,-1.253 3.961,-1.253 1.818,0 3.248,0.61 4.293,1.832 1.043,1.221 1.565,2.892 1.565,5.009 0,2.514 -0.61,4.564 -1.832,6.148 C 8.258,2.708 6.682,3.5 4.75,3.5 3.459,3.5 2.344,3.154 1.406,2.465 0.469,1.774 0,0.952 0,0 m 0,2.262 c 2.105,2.105 4.197,3.159 6.275,3.159 2.133,0 3.916,-0.803 5.346,-2.41 1.43,-1.605 2.145,-3.609 2.145,-6.011 0,-2.771 -0.868,-5.137 -2.604,-7.099 -1.736,-1.961 -3.834,-2.941 -6.297,-2.941 -1.379,0 -3.002,0.42 -4.865,1.26 l 0,-4.291 c 0,-1.565 0.221,-2.607 0.662,-3.126 0.442,-0.52 1.317,-0.78 2.625,-0.78 0.442,0 0.66,-0.153 0.66,-0.46 0,-0.247 -0.197,-0.372 -0.595,-0.372 l -1.09,0.021 -2.028,0.043 -2.24,0 -0.896,-0.017 -0.832,-0.051 -1.004,-0.018 -0.276,0.045 c -0.129,0.057 -0.193,0.175 -0.193,0.349 0,0.235 0.186,0.387 0.555,0.46 0.654,0.128 1.105,0.431 1.355,0.906 0.248,0.476 0.373,1.26 0.373,2.354 l -0.021,0.81 0,15.934 -0.041,0.895 c 0,0.808 -0.16,1.369 -0.483,1.682 -0.318,0.312 -0.906,0.468 -1.76,0.468 l -0.363,0 c -0.127,0 -0.228,0.016 -0.299,0.045 -0.099,0.058 -0.148,0.153 -0.148,0.284 0,0.235 0.178,0.395 0.533,0.483 2.375,0.626 4.004,1.308 4.887,2.049 0.17,0.141 0.299,0.213 0.385,0.213 0.226,0 0.341,-0.199 0.341,-0.597 L 0.086,5.143 0,2.262 z"
             id="path3134"
             style="fill:#050301;fill-opacity:1;fill-rule:nonzero;stroke:none" /></g><g
           transform="translate(453.9004,89.6953)"
           id="g3136"><path
             d="m 0,0 0,-7.277 c 0,-1.388 0.498,-2.5 1.492,-3.336 0.994,-0.836 2.315,-1.253 3.961,-1.253 1.818,0 3.248,0.61 4.293,1.832 1.043,1.221 1.565,2.892 1.565,5.009 0,2.514 -0.61,4.564 -1.832,6.148 C 8.258,2.708 6.682,3.5 4.75,3.5 3.459,3.5 2.344,3.154 1.406,2.465 0.469,1.774 0,0.952 0,0 z m 0,2.262 c 2.105,2.105 4.197,3.159 6.275,3.159 2.133,0 3.916,-0.803 5.346,-2.41 1.43,-1.605 2.145,-3.609 2.145,-6.011 0,-2.771 -0.868,-5.137 -2.604,-7.099 -1.736,-1.961 -3.834,-2.941 -6.297,-2.941 -1.379,0 -3.002,0.42 -4.865,1.26 l 0,-4.291 c 0,-1.565 0.221,-2.607 0.662,-3.126 0.442,-0.52 1.317,-0.78 2.625,-0.78 0.442,0 0.66,-0.153 0.66,-0.46 0,-0.247 -0.197,-0.372 -0.595,-0.372 l -1.09,0.021 -2.028,0.043 -2.24,0 -0.896,-0.017 -0.832,-0.051 -1.004,-0.018 -0.276,0.045 c -0.129,0.057 -0.193,0.175 -0.193,0.349 0,0.235 0.186,0.387 0.555,0.46 0.654,0.128 1.105,0.431 1.355,0.906 0.248,0.476 0.373,1.26 0.373,2.354 l -0.021,0.81 0,15.934 -0.041,0.895 c 0,0.808 -0.16,1.369 -0.483,1.682 -0.318,0.312 -0.906,0.468 -1.76,0.468 l -0.363,0 c -0.127,0 -0.228,0.016 -0.299,0.045 -0.099,0.058 -0.148,0.153 -0.148,0.284 0,0.235 0.178,0.395 0.533,0.483 2.375,0.626 4.004,1.308 4.887,2.049 0.17,0.141 0.299,0.213 0.385,0.213 0.226,0 0.341,-0.199 0.341,-0.597 L 0.086,5.143 0,2.262 z"
             id="path3138"
             style="fill:none;stroke:#050301;stroke-width:0.5;stroke-linecap:butt;stroke-linejoin:miter;stroke-miterlimit:10;stroke-opacity:1;stroke-dasharray:none" /></g><g
           transform="translate(481.2051,85.7471)"
           id="g3140"><path
             d="m 0,0 c -2.205,-0.198 -3.91,-0.697 -5.111,-1.496 -1.203,-0.8 -1.805,-1.822 -1.805,-3.068 0,-0.977 0.287,-1.75 0.859,-2.324 0.575,-0.573 1.348,-0.859 2.325,-0.859 1.187,0 2.183,0.39 2.99,1.167 C -0.248,-6.086 0,-5.301 0,-4.226 L 0,0 z m 0,0.854 0,2.631 c 0,1.625 -0.307,2.751 -0.918,3.373 -0.824,0.849 -1.936,1.273 -3.328,1.273 -1.879,0 -2.818,-0.79 -2.818,-2.37 0,-0.466 0.091,-1.002 0.277,-1.608 0.086,-0.255 0.137,-0.48 0.15,-0.677 0.014,-0.255 -0.127,-0.381 -0.424,-0.381 -0.664,0 -1.267,0.141 -1.812,0.426 -0.543,0.284 -0.816,0.598 -0.816,0.939 0,0.879 0.476,1.828 1.429,2.848 1.281,1.374 2.981,2.061 5.102,2.061 1.933,0 3.435,-0.43 4.502,-1.29 C 2.412,7.22 2.945,6.008 2.945,4.445 l 0,-8.355 c 0,-1.322 0.16,-2.263 0.481,-2.824 0.32,-0.563 0.857,-0.842 1.611,-0.842 0.213,0 0.385,0.012 0.512,0.036 0.256,0.061 0.428,0.091 0.512,0.091 0.242,0.014 0.355,-0.085 0.343,-0.298 C 6.389,-8.003 6.053,-8.264 5.396,-8.526 4.74,-8.79 4.098,-8.921 3.471,-8.921 c -1.172,0 -2.227,0.726 -3.17,2.177 -2.059,-1.567 -3.969,-2.348 -5.731,-2.348 -1.334,0 -2.396,0.36 -3.183,1.077 -0.789,0.718 -1.184,1.684 -1.184,2.893 0,1.637 0.746,2.906 2.236,3.809 1.493,0.904 4.012,1.626 7.561,2.167"
             id="path3142"
             style="fill:#050301;fill-opacity:1;fill-rule:nonzero;stroke:none" /></g><g
           transform="translate(481.2051,85.7471)"
           id="g3144"><path
             d="m 0,0 c -2.205,-0.198 -3.91,-0.697 -5.111,-1.496 -1.203,-0.8 -1.805,-1.822 -1.805,-3.068 0,-0.977 0.287,-1.75 0.859,-2.324 0.575,-0.573 1.348,-0.859 2.325,-0.859 1.187,0 2.183,0.39 2.99,1.167 C -0.248,-6.086 0,-5.301 0,-4.226 L 0,0 z m 0,0.854 0,2.631 c 0,1.625 -0.307,2.751 -0.918,3.373 -0.824,0.849 -1.936,1.273 -3.328,1.273 -1.879,0 -2.818,-0.79 -2.818,-2.37 0,-0.466 0.091,-1.002 0.277,-1.608 0.086,-0.255 0.137,-0.48 0.15,-0.677 0.014,-0.255 -0.127,-0.381 -0.424,-0.381 -0.664,0 -1.267,0.141 -1.812,0.426 -0.543,0.284 -0.816,0.598 -0.816,0.939 0,0.879 0.476,1.828 1.429,2.848 1.281,1.374 2.981,2.061 5.102,2.061 1.933,0 3.435,-0.43 4.502,-1.29 C 2.412,7.22 2.945,6.008 2.945,4.445 l 0,-8.355 c 0,-1.322 0.16,-2.263 0.481,-2.824 0.32,-0.563 0.857,-0.842 1.611,-0.842 0.213,0 0.385,0.012 0.512,0.036 0.256,0.061 0.428,0.091 0.512,0.091 0.242,0.014 0.355,-0.085 0.343,-0.298 C 6.389,-8.003 6.053,-8.264 5.396,-8.526 4.74,-8.79 4.098,-8.921 3.471,-8.921 c -1.172,0 -2.227,0.726 -3.17,2.177 -2.059,-1.567 -3.969,-2.348 -5.731,-2.348 -1.334,0 -2.396,0.36 -3.183,1.077 -0.789,0.718 -1.184,1.684 -1.184,2.893 0,1.637 0.746,2.906 2.236,3.809 1.493,0.904 4.012,1.626 7.561,2.167 z"
             id="path3146"
             style="fill:none;stroke:#050301;stroke-width:0.5;stroke-linecap:butt;stroke-linejoin:miter;stroke-miterlimit:10;stroke-opacity:1;stroke-dasharray:none" /></g><g
           transform="translate(499.3535,95.1162)"
           id="g3148"><path
             d="m 0,0 c 1.225,0 2.316,-0.154 3.277,-0.463 0.959,-0.309 1.44,-0.66 1.44,-1.052 L 4.695,-2.156 4.846,-3.777 c 0,-0.755 -0.174,-1.147 -0.524,-1.175 -0.158,-0.014 -0.361,0.197 -0.607,0.634 -0.455,0.815 -1.219,1.521 -2.291,2.12 -1.072,0.597 -2.112,0.896 -3.119,0.896 -1.393,0 -2.528,-0.636 -3.409,-1.907 -0.878,-1.272 -1.32,-2.909 -1.32,-4.912 0,-2.373 0.68,-4.38 2.035,-6.023 1.356,-1.64 3.014,-2.46 4.975,-2.46 1.576,0 3.123,0.647 4.643,1.942 0.189,0.156 0.365,0.241 0.525,0.256 0.219,0.028 0.328,-0.071 0.328,-0.297 0,-0.311 -0.34,-0.773 -1.023,-1.381 -1.766,-1.584 -3.885,-2.377 -6.362,-2.377 -2.275,0 -4.177,0.828 -5.707,2.483 -1.531,1.656 -2.295,3.707 -2.295,6.151 0,2.728 0.909,5.048 2.721,6.96 C -4.77,-0.955 -2.574,0 0,0"
             id="path3150"
             style="fill:#050301;fill-opacity:1;fill-rule:nonzero;stroke:none" /></g><g
           transform="translate(499.3535,95.1162)"
           id="g3152"><path
             d="m 0,0 c 1.225,0 2.316,-0.154 3.277,-0.463 0.959,-0.309 1.44,-0.66 1.44,-1.052 L 4.695,-2.156 4.846,-3.777 c 0,-0.755 -0.174,-1.147 -0.524,-1.175 -0.158,-0.014 -0.361,0.197 -0.607,0.634 -0.455,0.815 -1.219,1.521 -2.291,2.12 -1.072,0.597 -2.112,0.896 -3.119,0.896 -1.393,0 -2.528,-0.636 -3.409,-1.907 -0.878,-1.272 -1.32,-2.909 -1.32,-4.912 0,-2.373 0.68,-4.38 2.035,-6.023 1.356,-1.64 3.014,-2.46 4.975,-2.46 1.576,0 3.123,0.647 4.643,1.942 0.189,0.156 0.365,0.241 0.525,0.256 0.219,0.028 0.328,-0.071 0.328,-0.297 0,-0.311 -0.34,-0.773 -1.023,-1.381 -1.766,-1.584 -3.885,-2.377 -6.362,-2.377 -2.275,0 -4.177,0.828 -5.707,2.483 -1.531,1.656 -2.295,3.707 -2.295,6.151 0,2.728 0.909,5.048 2.721,6.96 C -4.77,-0.955 -2.574,0 0,0 z"
             id="path3154"
             style="fill:none;stroke:#050301;stroke-width:0.5;stroke-linecap:butt;stroke-linejoin:miter;stroke-miterlimit:10;stroke-opacity:1;stroke-dasharray:none" /></g><g
           transform="translate(510.8867,88.9902)"
           id="g3156"><path
             d="M 0,0 7.234,0 C 8.359,0 8.92,0.229 8.92,0.684 8.92,1.793 8.441,2.825 7.48,3.777 6.52,4.731 5.477,5.208 4.354,5.208 3.188,5.208 2.217,4.742 1.441,3.811 0.664,2.878 0.186,1.608 0,0 m -0.129,-1.174 -0.019,-0.469 c 0,-2.432 0.673,-4.478 2.019,-6.135 1.346,-1.659 3.004,-2.487 4.971,-2.487 1.553,0 3.242,0.697 5.066,2.091 0.113,0.086 0.221,0.136 0.321,0.15 0.199,0.013 0.298,-0.1 0.298,-0.339 0,-0.426 -0.498,-1.028 -1.494,-1.807 -1.849,-1.443 -3.806,-2.165 -5.869,-2.165 -2.318,0 -4.264,0.88 -5.836,2.644 -1.572,1.76 -2.359,3.942 -2.359,6.545 0,2.471 0.812,4.635 2.433,6.491 1.623,1.853 3.522,2.781 5.7,2.781 2.375,0 4.275,-0.988 5.697,-2.967 0.342,-0.484 0.691,-1.138 1.045,-1.963 0.357,-0.826 0.535,-1.402 0.535,-1.729 0,-0.469 -0.463,-0.703 -1.391,-0.703 l -1.582,0.02 -1.453,0.042 -8.082,0 z"
             id="path3158"
             style="fill:#050301;fill-opacity:1;fill-rule:nonzero;stroke:none" /></g><g
           transform="translate(510.8867,88.9902)"
           id="g3160"><path
             d="M 0,0 7.234,0 C 8.359,0 8.92,0.229 8.92,0.684 8.92,1.793 8.441,2.825 7.48,3.777 6.52,4.731 5.477,5.208 4.354,5.208 3.188,5.208 2.217,4.742 1.441,3.811 0.664,2.878 0.186,1.608 0,0 z m -0.129,-1.174 -0.019,-0.469 c 0,-2.432 0.673,-4.478 2.019,-6.135 1.346,-1.659 3.004,-2.487 4.971,-2.487 1.553,0 3.242,0.697 5.066,2.091 0.113,0.086 0.221,0.136 0.321,0.15 0.199,0.013 0.298,-0.1 0.298,-0.339 0,-0.426 -0.498,-1.028 -1.494,-1.807 -1.849,-1.443 -3.806,-2.165 -5.869,-2.165 -2.318,0 -4.264,0.88 -5.836,2.644 -1.572,1.76 -2.359,3.942 -2.359,6.545 0,2.471 0.812,4.635 2.433,6.491 1.623,1.853 3.522,2.781 5.7,2.781 2.375,0 4.275,-0.988 5.697,-2.967 0.342,-0.484 0.691,-1.138 1.045,-1.963 0.357,-0.826 0.535,-1.402 0.535,-1.729 0,-0.469 -0.463,-0.703 -1.391,-0.703 l -1.582,0.02 -1.453,0.042 -8.082,0 z"
             id="path3162"
             style="fill:none;stroke:#050301;stroke-width:0.5;stroke-linecap:butt;stroke-linejoin:miter;stroke-miterlimit:10;stroke-opacity:1;stroke-dasharray:none" /></g><g
           transform="translate(543.6211,91.7227)"
           id="g3164"><path
             d="m 0,0 c 1.906,2.262 3.885,3.394 5.934,3.394 2.275,0 4.076,-0.933 5.398,-2.8 0.91,-1.282 1.367,-3.234 1.367,-5.855 l 0,-5.107 -0.021,-0.641 0.064,-1.026 c 0.156,-0.94 0.754,-1.488 1.793,-1.646 l 0.895,-0.127 c 0.384,-0.055 0.584,-0.195 0.597,-0.418 0.014,-0.305 -0.22,-0.458 -0.701,-0.458 -0.156,0 -0.433,0.025 -0.83,0.074 -0.469,0.065 -1.334,0.097 -2.598,0.097 l -2.107,-0.064 -0.809,0 -0.617,-0.042 -0.299,0.065 c -0.099,0.058 -0.148,0.168 -0.148,0.329 0,0.219 0.129,0.358 0.385,0.417 l 0.64,0.169 c 0.569,0.144 0.854,0.656 0.854,1.535 l 0,7.354 c 0,1.974 -0.457,3.498 -1.369,4.571 C 7.514,0.893 6.217,1.431 4.535,1.431 3.352,1.431 2.299,1.08 1.379,0.384 0.459,-0.313 0,-1.11 0,-2.007 l 0,-8.145 0.021,-0.642 0.022,-1.068 c 0.07,-1.199 1.059,-1.854 2.967,-1.968 0.469,-0.044 0.703,-0.197 0.703,-0.459 0,-0.263 -0.162,-0.395 -0.49,-0.395 -0.243,0 -0.606,0.041 -1.088,0.123 -0.272,0.033 -0.94,0.048 -2.008,0.048 -2.262,0 -3.613,-0.032 -4.055,-0.097 -0.441,-0.049 -0.724,-0.074 -0.853,-0.074 -0.27,0 -0.399,0.118 -0.383,0.352 0.014,0.175 0.148,0.314 0.404,0.416 0.727,0.257 1.213,0.569 1.463,0.938 0.248,0.37 0.373,0.967 0.373,1.79 l 0,9.633 c 0,1.01 -0.121,1.695 -0.363,2.057 -0.242,0.363 -0.697,0.543 -1.365,0.543 L -5.57,1.024 c -0.129,0 -0.243,0.03 -0.342,0.088 -0.127,0.058 -0.192,0.161 -0.192,0.307 0,0.205 0.186,0.343 0.555,0.417 0.953,0.171 1.871,0.461 2.752,0.874 l 1.131,0.556 c 0.443,0.213 0.719,0.347 0.834,0.405 0.199,0.114 0.369,0.171 0.512,0.171 0.256,0 0.369,-0.207 0.341,-0.619 C 0.006,2.994 0,2.725 0,2.412 L 0,0 z"
             id="path3166"
             style="fill:#050301;fill-opacity:1;fill-rule:nonzero;stroke:none" /></g><g
           transform="translate(543.6211,91.7227)"
           id="g3168"><path
             d="m 0,0 c 1.906,2.262 3.885,3.394 5.934,3.394 2.275,0 4.076,-0.933 5.398,-2.8 0.91,-1.282 1.367,-3.234 1.367,-5.855 l 0,-5.107 -0.021,-0.641 0.064,-1.026 c 0.156,-0.94 0.754,-1.488 1.793,-1.646 l 0.895,-0.127 c 0.384,-0.055 0.584,-0.195 0.597,-0.418 0.014,-0.305 -0.22,-0.458 -0.701,-0.458 -0.156,0 -0.433,0.025 -0.83,0.074 -0.469,0.065 -1.334,0.097 -2.598,0.097 l -2.107,-0.064 -0.809,0 -0.617,-0.042 -0.299,0.065 c -0.099,0.058 -0.148,0.168 -0.148,0.329 0,0.219 0.129,0.358 0.385,0.417 l 0.64,0.169 c 0.569,0.144 0.854,0.656 0.854,1.535 l 0,7.354 c 0,1.974 -0.457,3.498 -1.369,4.571 C 7.514,0.893 6.217,1.431 4.535,1.431 3.352,1.431 2.299,1.08 1.379,0.384 0.459,-0.313 0,-1.11 0,-2.007 l 0,-8.145 0.021,-0.642 0.022,-1.068 c 0.07,-1.199 1.059,-1.854 2.967,-1.968 0.469,-0.044 0.703,-0.197 0.703,-0.459 0,-0.263 -0.162,-0.395 -0.49,-0.395 -0.243,0 -0.606,0.041 -1.088,0.123 -0.272,0.033 -0.94,0.048 -2.008,0.048 -2.262,0 -3.613,-0.032 -4.055,-0.097 -0.441,-0.049 -0.724,-0.074 -0.853,-0.074 -0.27,0 -0.399,0.118 -0.383,0.352 0.014,0.175 0.148,0.314 0.404,0.416 0.727,0.257 1.213,0.569 1.463,0.938 0.248,0.37 0.373,0.967 0.373,1.79 l 0,9.633 c 0,1.01 -0.121,1.695 -0.363,2.057 -0.242,0.363 -0.697,0.543 -1.365,0.543 L -5.57,1.024 c -0.129,0 -0.243,0.03 -0.342,0.088 -0.127,0.058 -0.192,0.161 -0.192,0.307 0,0.205 0.186,0.343 0.555,0.417 0.953,0.171 1.871,0.461 2.752,0.874 l 1.131,0.556 c 0.443,0.213 0.719,0.347 0.834,0.405 0.199,0.114 0.369,0.171 0.512,0.171 0.256,0 0.369,-0.207 0.341,-0.619 C 0.006,2.994 0,2.725 0,2.412 L 0,0 z"
             id="path3170"
             style="fill:none;stroke:#050301;stroke-width:0.5;stroke-linecap:butt;stroke-linejoin:miter;stroke-miterlimit:10;stroke-opacity:1;stroke-dasharray:none" /></g><g
           transform="translate(565.248,88.9902)"
           id="g3172"><path
             d="M 0,0 7.234,0 C 8.359,0 8.922,0.229 8.922,0.684 8.922,1.793 8.441,2.825 7.48,3.777 6.52,4.731 5.477,5.208 4.354,5.208 3.188,5.208 2.217,4.742 1.441,3.811 0.664,2.878 0.186,1.608 0,0 M -0.129,-1.174 -0.15,-1.643 c 0,-2.432 0.673,-4.478 2.021,-6.135 1.346,-1.659 3.004,-2.487 4.971,-2.487 1.553,0 3.242,0.697 5.066,2.091 0.113,0.086 0.221,0.136 0.321,0.15 0.199,0.013 0.298,-0.1 0.298,-0.339 0,-0.426 -0.498,-1.028 -1.494,-1.807 -1.849,-1.443 -3.806,-2.165 -5.869,-2.165 -2.318,0 -4.264,0.88 -5.836,2.644 -1.572,1.76 -2.359,3.942 -2.359,6.545 0,2.471 0.81,4.635 2.433,6.491 1.623,1.853 3.522,2.781 5.7,2.781 2.375,0 4.275,-0.988 5.697,-2.967 0.342,-0.484 0.691,-1.138 1.045,-1.963 0.357,-0.826 0.535,-1.402 0.535,-1.729 0,-0.469 -0.463,-0.703 -1.391,-0.703 l -1.58,0.02 -1.455,0.042 -8.082,0 z"
             id="path3174"
             style="fill:#050301;fill-opacity:1;fill-rule:nonzero;stroke:none" /></g><g
           transform="translate(565.248,88.9902)"
           id="g3176"><path
             d="M 0,0 7.234,0 C 8.359,0 8.922,0.229 8.922,0.684 8.922,1.793 8.441,2.825 7.48,3.777 6.52,4.731 5.477,5.208 4.354,5.208 3.188,5.208 2.217,4.742 1.441,3.811 0.664,2.878 0.186,1.608 0,0 z M -0.129,-1.174 -0.15,-1.643 c 0,-2.432 0.673,-4.478 2.021,-6.135 1.346,-1.659 3.004,-2.487 4.971,-2.487 1.553,0 3.242,0.697 5.066,2.091 0.113,0.086 0.221,0.136 0.321,0.15 0.199,0.013 0.298,-0.1 0.298,-0.339 0,-0.426 -0.498,-1.028 -1.494,-1.807 -1.849,-1.443 -3.806,-2.165 -5.869,-2.165 -2.318,0 -4.264,0.88 -5.836,2.644 -1.572,1.76 -2.359,3.942 -2.359,6.545 0,2.471 0.81,4.635 2.433,6.491 1.623,1.853 3.522,2.781 5.7,2.781 2.375,0 4.275,-0.988 5.697,-2.967 0.342,-0.484 0.691,-1.138 1.045,-1.963 0.357,-0.826 0.535,-1.402 0.535,-1.729 0,-0.469 -0.463,-0.703 -1.391,-0.703 l -1.58,0.02 -1.455,0.042 -8.082,0 z"
             id="path3178"
             style="fill:none;stroke:#050301;stroke-width:0.5;stroke-linecap:butt;stroke-linejoin:miter;stroke-miterlimit:10;stroke-opacity:1;stroke-dasharray:none" /></g><g
           transform="translate(595.3047,79.8564)"
           id="g3180"><path
             d="m 0,0 c -1.65,-2.134 -3.656,-3.201 -6.018,-3.201 -1.992,0 -3.546,0.615 -4.662,1.846 -1.117,1.231 -1.675,2.948 -1.675,5.154 l 0.021,1.409 0,7.063 c 0,0.726 -0.15,1.232 -0.449,1.516 -0.299,0.285 -0.854,0.448 -1.664,0.491 -0.356,0.028 -0.528,0.173 -0.512,0.438 0.014,0.25 0.453,0.395 1.318,0.436 l 1.616,0.065 c 0.353,0.028 0.884,0.128 1.593,0.299 0.2,0.057 0.356,0.085 0.469,0.085 0.383,0 0.572,-0.335 0.572,-1.002 l 0,-0.321 -0.084,-9.541 0,-0.682 0.342,-2.581 c 0.301,-0.912 0.856,-1.666 1.67,-2.264 0.813,-0.598 1.695,-0.896 2.65,-0.896 1.256,0 2.372,0.369 3.35,1.106 C -0.488,0.156 0,0.997 0,1.941 l 0,10.203 c 0,0.81 -0.139,1.366 -0.414,1.664 -0.277,0.299 -0.795,0.448 -1.549,0.448 -0.455,0 -0.682,0.132 -0.682,0.396 0,0.321 0.256,0.487 0.768,0.5 l 0.705,0.043 1.494,0.065 c 0.483,0.028 1.037,0.141 1.664,0.341 0.2,0.056 0.369,0.092 0.512,0.107 0.299,0.014 0.449,-0.242 0.449,-0.768 l 0,-13.856 c 0,-1.093 0.117,-1.814 0.352,-2.162 0.234,-0.349 0.715,-0.524 1.439,-0.524 l 0.344,0 0.297,0.023 c 0.312,0 0.476,-0.109 0.492,-0.329 0.014,-0.307 -0.4,-0.482 -1.238,-0.525 L 3.289,-2.519 C 2.363,-2.561 1.766,-2.618 1.496,-2.689 1.154,-2.774 0.891,-2.817 0.705,-2.817 c -0.455,0 -0.684,0.667 -0.684,2 L 0,0 z"
             id="path3182"
             style="fill:#050301;fill-opacity:1;fill-rule:nonzero;stroke:none" /></g><g
           transform="translate(595.3047,79.8564)"
           id="g3184"><path
             d="m 0,0 c -1.65,-2.134 -3.656,-3.201 -6.018,-3.201 -1.992,0 -3.546,0.615 -4.662,1.846 -1.117,1.231 -1.675,2.948 -1.675,5.154 l 0.021,1.409 0,7.063 c 0,0.726 -0.15,1.232 -0.449,1.516 -0.299,0.285 -0.854,0.448 -1.664,0.491 -0.356,0.028 -0.528,0.173 -0.512,0.438 0.014,0.25 0.453,0.395 1.318,0.436 l 1.616,0.065 c 0.353,0.028 0.884,0.128 1.593,0.299 0.2,0.057 0.356,0.085 0.469,0.085 0.383,0 0.572,-0.335 0.572,-1.002 l 0,-0.321 -0.084,-9.541 0,-0.682 0.342,-2.581 c 0.301,-0.912 0.856,-1.666 1.67,-2.264 0.813,-0.598 1.695,-0.896 2.65,-0.896 1.256,0 2.372,0.369 3.35,1.106 C -0.488,0.156 0,0.997 0,1.941 l 0,10.203 c 0,0.81 -0.139,1.366 -0.414,1.664 -0.277,0.299 -0.795,0.448 -1.549,0.448 -0.455,0 -0.682,0.132 -0.682,0.396 0,0.321 0.256,0.487 0.768,0.5 l 0.705,0.043 1.494,0.065 c 0.483,0.028 1.037,0.141 1.664,0.341 0.2,0.056 0.369,0.092 0.512,0.107 0.299,0.014 0.449,-0.242 0.449,-0.768 l 0,-13.856 c 0,-1.093 0.117,-1.814 0.352,-2.162 0.234,-0.349 0.715,-0.524 1.439,-0.524 l 0.344,0 0.297,0.023 c 0.312,0 0.476,-0.109 0.492,-0.329 0.014,-0.307 -0.4,-0.482 -1.238,-0.525 L 3.289,-2.519 C 2.363,-2.561 1.766,-2.618 1.496,-2.689 1.154,-2.774 0.891,-2.817 0.705,-2.817 c -0.455,0 -0.684,0.667 -0.684,2 L 0,0 z"
             id="path3186"
             style="fill:none;stroke:#050301;stroke-width:0.5;stroke-linecap:butt;stroke-linejoin:miter;stroke-miterlimit:10;stroke-opacity:1;stroke-dasharray:none" /></g><g
           transform="translate(610.1465,95.1162)"
           id="g3188"><path
             d="M 0,0 C 1.125,0 2.094,-0.148 2.904,-0.442 L 3.842,-0.757 C 4.227,-0.897 4.42,-1.115 4.42,-1.409 l 0,-0.341 c 0,-0.2 0.014,-0.399 0.041,-0.599 L 4.547,-3.18 c 0.043,-0.299 0.064,-0.569 0.064,-0.81 0,-0.557 -0.16,-0.841 -0.48,-0.855 -0.176,-0.014 -0.334,0.171 -0.481,0.555 -0.783,2.163 -2.248,3.243 -4.396,3.243 -0.854,0 -1.555,-0.241 -2.102,-0.726 -0.548,-0.487 -0.822,-1.1 -0.822,-1.843 0,-0.785 0.295,-1.42 0.885,-1.905 0.592,-0.486 1.783,-1.079 3.576,-1.779 1.777,-0.695 3.012,-1.429 3.703,-2.204 0.69,-0.774 1.035,-1.814 1.035,-3.12 0,-1.605 -0.595,-2.98 -1.783,-4.122 -1.187,-1.144 -2.607,-1.715 -4.256,-1.715 -1.183,0 -2.463,0.334 -3.842,1.003 -0.328,0.156 -0.535,0.234 -0.619,0.234 l -0.556,0.065 c -0.327,0.028 -0.504,0.205 -0.534,0.531 l -0.019,0.914 -0.065,2.722 0.043,0.638 c 0.059,0.381 0.217,0.58 0.479,0.594 0.262,0.014 0.435,-0.199 0.523,-0.64 0.299,-1.565 0.879,-2.788 1.741,-3.67 0.859,-0.883 1.894,-1.324 3.103,-1.324 1.039,0 1.891,0.306 2.553,0.92 0.66,0.614 0.992,1.399 0.992,2.355 0,1.455 -0.805,2.54 -2.414,3.254 l -1.877,0.834 c -1.707,0.738 -2.916,1.502 -3.629,2.289 -0.711,0.789 -1.066,1.75 -1.066,2.887 0,1.362 0.549,2.512 1.644,3.45 C -2.959,-0.469 -1.607,0 0,0"
             id="path3190"
             style="fill:#050301;fill-opacity:1;fill-rule:nonzero;stroke:none" /></g><g
           transform="translate(610.1465,95.1162)"
           id="g3192"><path
             d="M 0,0 C 1.125,0 2.094,-0.148 2.904,-0.442 L 3.842,-0.757 C 4.227,-0.897 4.42,-1.115 4.42,-1.409 l 0,-0.341 c 0,-0.2 0.014,-0.399 0.041,-0.599 L 4.547,-3.18 c 0.043,-0.299 0.064,-0.569 0.064,-0.81 0,-0.557 -0.16,-0.841 -0.48,-0.855 -0.176,-0.014 -0.334,0.171 -0.481,0.555 -0.783,2.163 -2.248,3.243 -4.396,3.243 -0.854,0 -1.555,-0.241 -2.102,-0.726 -0.548,-0.487 -0.822,-1.1 -0.822,-1.843 0,-0.785 0.295,-1.42 0.885,-1.905 0.592,-0.486 1.783,-1.079 3.576,-1.779 1.777,-0.695 3.012,-1.429 3.703,-2.204 0.69,-0.774 1.035,-1.814 1.035,-3.12 0,-1.605 -0.595,-2.98 -1.783,-4.122 -1.187,-1.144 -2.607,-1.715 -4.256,-1.715 -1.183,0 -2.463,0.334 -3.842,1.003 -0.328,0.156 -0.535,0.234 -0.619,0.234 l -0.556,0.065 c -0.327,0.028 -0.504,0.205 -0.534,0.531 l -0.019,0.914 -0.065,2.722 0.043,0.638 c 0.059,0.381 0.217,0.58 0.479,0.594 0.262,0.014 0.435,-0.199 0.523,-0.64 0.299,-1.565 0.879,-2.788 1.741,-3.67 0.859,-0.883 1.894,-1.324 3.103,-1.324 1.039,0 1.891,0.306 2.553,0.92 0.66,0.614 0.992,1.399 0.992,2.355 0,1.455 -0.805,2.54 -2.414,3.254 l -1.877,0.834 c -1.707,0.738 -2.916,1.502 -3.629,2.289 -0.711,0.789 -1.066,1.75 -1.066,2.887 0,1.362 0.549,2.512 1.644,3.45 C -2.959,-0.469 -1.607,0 0,0 z"
             id="path3194"
             style="fill:none;stroke:#050301;stroke-width:0.5;stroke-linecap:butt;stroke-linejoin:miter;stroke-miterlimit:10;stroke-opacity:1;stroke-dasharray:none" /></g><g
           transform="translate(625.2656,95.1162)"
           id="g3196"><path
             d="m 0,0 c 1.123,0 2.092,-0.148 2.902,-0.442 l 0.94,-0.315 c 0.383,-0.14 0.576,-0.358 0.576,-0.652 l 0,-0.341 c 0,-0.2 0.014,-0.399 0.043,-0.599 L 4.547,-3.18 c 0.043,-0.299 0.062,-0.569 0.062,-0.81 0,-0.557 -0.16,-0.841 -0.48,-0.855 -0.174,-0.014 -0.334,0.171 -0.479,0.555 -0.783,2.163 -2.25,3.243 -4.396,3.243 -0.856,0 -1.557,-0.241 -2.104,-0.726 -0.546,-0.487 -0.82,-1.1 -0.82,-1.843 0,-0.785 0.293,-1.42 0.885,-1.905 0.59,-0.486 1.783,-1.079 3.576,-1.779 1.777,-0.695 3.012,-1.429 3.701,-2.204 0.69,-0.774 1.035,-1.814 1.035,-3.12 0,-1.605 -0.593,-2.98 -1.781,-4.122 -1.189,-1.144 -2.607,-1.715 -4.258,-1.715 -1.181,0 -2.463,0.334 -3.842,1.003 -0.328,0.156 -0.533,0.234 -0.619,0.234 l -0.554,0.065 c -0.328,0.028 -0.506,0.205 -0.534,0.531 l -0.021,0.914 -0.064,2.722 0.042,0.638 c 0.059,0.381 0.219,0.58 0.481,0.594 0.26,0.014 0.435,-0.199 0.521,-0.64 0.301,-1.565 0.879,-2.788 1.741,-3.67 0.861,-0.883 1.894,-1.324 3.105,-1.324 1.039,0 1.889,0.306 2.551,0.92 0.66,0.614 0.992,1.399 0.992,2.355 0,1.455 -0.805,2.54 -2.412,3.254 l -1.877,0.834 c -1.709,0.738 -2.918,1.502 -3.629,2.289 -0.713,0.789 -1.066,1.75 -1.066,2.887 0,1.362 0.547,2.512 1.642,3.45 C -2.959,-0.469 -1.607,0 0,0"
             id="path3198"
             style="fill:#050301;fill-opacity:1;fill-rule:nonzero;stroke:none" /></g><g
           transform="translate(625.2656,95.1162)"
           id="g3200"><path
             d="m 0,0 c 1.123,0 2.092,-0.148 2.902,-0.442 l 0.94,-0.315 c 0.383,-0.14 0.576,-0.358 0.576,-0.652 l 0,-0.341 c 0,-0.2 0.014,-0.399 0.043,-0.599 L 4.547,-3.18 c 0.043,-0.299 0.062,-0.569 0.062,-0.81 0,-0.557 -0.16,-0.841 -0.48,-0.855 -0.174,-0.014 -0.334,0.171 -0.479,0.555 -0.783,2.163 -2.25,3.243 -4.396,3.243 -0.856,0 -1.557,-0.241 -2.104,-0.726 -0.546,-0.487 -0.82,-1.1 -0.82,-1.843 0,-0.785 0.293,-1.42 0.885,-1.905 0.59,-0.486 1.783,-1.079 3.576,-1.779 1.777,-0.695 3.012,-1.429 3.701,-2.204 0.69,-0.774 1.035,-1.814 1.035,-3.12 0,-1.605 -0.593,-2.98 -1.781,-4.122 -1.189,-1.144 -2.607,-1.715 -4.258,-1.715 -1.181,0 -2.463,0.334 -3.842,1.003 -0.328,0.156 -0.533,0.234 -0.619,0.234 l -0.554,0.065 c -0.328,0.028 -0.506,0.205 -0.534,0.531 l -0.021,0.914 -0.064,2.722 0.042,0.638 c 0.059,0.381 0.219,0.58 0.481,0.594 0.26,0.014 0.435,-0.199 0.521,-0.64 0.301,-1.565 0.879,-2.788 1.741,-3.67 0.861,-0.883 1.894,-1.324 3.105,-1.324 1.039,0 1.889,0.306 2.551,0.92 0.66,0.614 0.992,1.399 0.992,2.355 0,1.455 -0.805,2.54 -2.412,3.254 l -1.877,0.834 c -1.709,0.738 -2.918,1.502 -3.629,2.289 -0.713,0.789 -1.066,1.75 -1.066,2.887 0,1.362 0.547,2.512 1.642,3.45 C -2.959,-0.469 -1.607,0 0,0 z"
             id="path3202"
             style="fill:none;stroke:#050301;stroke-width:0.5;stroke-linecap:butt;stroke-linejoin:miter;stroke-miterlimit:10;stroke-opacity:1;stroke-dasharray:none" /></g></g></g></g></svg>