<?xml version="1.0" encoding="UTF-8" standalone="no"?>
<!-- Created with Inkscape (http://www.inkscape.org/) -->

<svg
   xmlns:dc="http://purl.org/dc/elements/1.1/"
   xmlns:cc="http://creativecommons.org/ns#"
   xmlns:rdf="http://www.w3.org/1999/02/22-rdf-syntax-ns#"
   xmlns:svg="http://www.w3.org/2000/svg"
   xmlns="http://www.w3.org/2000/svg"
   xmlns:sodipodi="http://sodipodi.sourceforge.net/DTD/sodipodi-0.dtd"
   xmlns:inkscape="http://www.inkscape.org/namespaces/inkscape"
   version="1.2"
   width="1613.537"
   height="587"
   id="svg2"
   inkscape:version="0.48.3.1 r9886"
   sodipodi:docname="logo_final.svg"
   inkscape:export-filename="/home/jan/logo_gross.png"
   inkscape:export-xdpi="45"
   inkscape:export-ydpi="45">
  <sodipodi:namedview
     pagecolor="#ffffff"
     bordercolor="#666666"
     borderopacity="1"
     objecttolerance="10"
     gridtolerance="10"
     guidetolerance="10"
     inkscape:pageopacity="0"
     inkscape:pageshadow="2"
     inkscape:window-width="1318"
     inkscape:window-height="748"
     id="namedview79"
     showgrid="false"
     inkscape:zoom="0.78308102"
     inkscape:cx="420.67461"
     inkscape:cy="213.1161"
     inkscape:window-x="46"
     inkscape:window-y="-3"
     inkscape:window-maximized="1"
     inkscape:current-layer="svg2"
     fit-margin-top="0"
     fit-margin-left="0"
     fit-margin-right="0"
     fit-margin-bottom="0" />
  <defs
     id="defs4">
    <marker
       refX="0"
       refY="0"
       orient="auto"
       id="TriangleOutL"
       style="overflow:visible">
      <path
         d="m 5.77,0 -8.65,5 0,-10 8.65,5 z"
         transform="scale(0.8,0.8)"
         id="path3922"
         style="fill-rule:evenodd;stroke:#000000;stroke-width:1pt;marker-start:none"
         inkscape:connector-curvature="0" />
    </marker>
    <marker
       refX="0"
       refY="0"
       orient="auto"
       id="Torso"
       style="overflow:visible">
      <g
         transform="scale(0.7,0.7)"
         id="g3992">
        <path
           d="m -4.7792281,-3.239542 c 2.350374,0.3659393 5.30026732,1.9375477 5.03715532,3.62748546 C -0.00518779,2.0778819 -2.2126741,2.6176539 -4.5630471,2.2517169 -6.9134221,1.8857769 -8.521035,0.75201414 -8.257922,-0.93792336 -7.994809,-2.6278615 -7.1296041,-3.6054813 -4.7792281,-3.239542 z"
           id="path3994"
           style="fill:none;stroke:#000000;stroke-width:1.25;marker-start:none;marker-mid:none;marker-end:none"
           inkscape:connector-curvature="0" />
        <path
           d="M 4.4598789,0.08866574 C -2.5564571,-4.378332 5.2248769,-3.9061806 -0.84829578,-8.7197331"
           id="path3996"
           style="fill:none;stroke:#000000;stroke-width:1pt;marker-end:none"
           inkscape:connector-curvature="0" />
        <path
           d="M 4.9298719,0.05752074 C -1.3872731,1.7494689 1.8027579,5.4782079 -4.9448731,7.5462725"
           id="path3998"
           style="fill:none;stroke:#000000;stroke-width:1pt;marker-start:none;marker-end:none"
           inkscape:connector-curvature="0" />
        <rect
           width="2.6366582"
           height="2.7608147"
           x="-10.391706"
           y="-1.7408575"
           transform="matrix(0.527536,-0.849533,0.887668,0.460484,0,0)"
           id="rect4000"
           style="fill-rule:evenodd;stroke-width:1pt;marker-end:none" />
        <rect
           width="2.7327356"
           height="2.8614161"
           x="4.9587269"
           y="-7.9629307"
           transform="matrix(0.671205,-0.741272,0.790802,0.612072,0,0)"
           id="rect4002"
           style="fill-rule:evenodd;stroke-width:1pt;marker-end:none" />
        <path
           d="m 16.779951,-28.685045 a 0.60731727,0.60731727 0 1 1 -1.214634,0 0.60731727,0.60731727 0 1 1 1.214634,0 z"
           transform="matrix(0,-1.109517,1.109517,0,25.96648,19.71619)"
           id="path4004"
           style="fill:#ff0000;fill-opacity:0.75;fill-rule:evenodd;stroke:#000000;stroke-width:1pt;marker-start:none;marker-end:none"
           inkscape:connector-curvature="0" />
        <path
           d="m 16.779951,-28.685045 a 0.60731727,0.60731727 0 1 1 -1.214634,0 0.60731727,0.60731727 0 1 1 1.214634,0 z"
           transform="matrix(0,-1.109517,1.109517,0,26.8245,16.99126)"
           id="path4006"
           style="fill:#ff0000;fill-opacity:0.75;fill-rule:evenodd;stroke:#000000;stroke-width:1pt;marker-start:none;marker-end:none"
           inkscape:connector-curvature="0" />
      </g>
    </marker>
    <marker
       refX="0"
       refY="0"
       orient="auto"
       id="SemiCircleOut"
       style="overflow:visible">
      <path
         d="m -2.5,-0.80913858 c 0,2.75999998 -2.24,4.99999998 -5,4.99999998 l 0,-10 c 2.76,0 5,2.24 5,5.00000002 z"
         transform="matrix(0.6,0,0,0.6,4.2752958,0.4580676)"
         id="path3961"
         style="fill-rule:evenodd;stroke:#000000;stroke-width:1pt;marker-start:none;marker-end:none"
         inkscape:connector-curvature="0" />
    </marker>
    <marker
       refX="0"
       refY="0"
       orient="auto"
       id="TriangleOutS"
       style="overflow:visible">
      <path
         d="m 5.77,0 -8.65,5 0,-10 8.65,5 z"
         transform="scale(0.2,0.2)"
         id="path3928"
         style="fill-rule:evenodd;stroke:#000000;stroke-width:1pt;marker-start:none"
         inkscape:connector-curvature="0" />
    </marker>
    <marker
       refX="0"
       refY="0"
       orient="auto"
       id="TriangleOutM"
       style="overflow:visible">
      <path
         d="m 5.77,0 -8.65,5 0,-10 8.65,5 z"
         transform="scale(0.4,0.4)"
         id="path3925"
         style="fill-rule:evenodd;stroke:#000000;stroke-width:1pt;marker-start:none"
         inkscape:connector-curvature="0" />
    </marker>
    <marker
       refX="0"
       refY="0"
       orient="auto"
       id="Arrow1Send"
       style="overflow:visible">
      <path
         d="M 0,0 5,-5 -12.5,0 5,5 0,0 z"
         transform="matrix(-0.2,0,0,-0.2,-1.2,0)"
         id="path3794"
         style="fill-rule:evenodd;stroke:#000000;stroke-width:1pt;marker-start:none"
         inkscape:connector-curvature="0" />
    </marker>
    <marker
       refX="0"
       refY="0"
       orient="auto"
       id="DiamondLend"
       style="overflow:visible">
      <path
         d="M 0,-7.0710768 -7.0710894,0 0,7.0710589 7.0710462,0 0,-7.0710768 z"
         transform="matrix(0.8,0,0,0.8,-5.6,0)"
         id="path3877"
         style="fill-rule:evenodd;stroke:#000000;stroke-width:1pt;marker-start:none"
         inkscape:connector-curvature="0" />
    </marker>
    <marker
       refX="0"
       refY="0"
       orient="auto"
       id="Arrow2Lend"
       style="overflow:visible">
      <path
         d="M 8.7185878,4.0337352 -2.2072895,0.01601326 8.7185884,-4.0017078 c -1.7454984,2.3720609 -1.7354408,5.6174519 -6e-7,8.035443 z"
         transform="matrix(-1.1,0,0,-1.1,-1.1,0)"
         id="path3800"
         style="font-size:12px;fill-rule:evenodd;stroke-width:0.625;stroke-linejoin:round"
         inkscape:connector-curvature="0" />
    </marker>
    <marker
       refX="0"
       refY="0"
       orient="auto"
       id="Arrow1Mend"
       style="overflow:visible">
      <path
         d="M 0,0 5,-5 -12.5,0 5,5 0,0 z"
         transform="matrix(-0.4,0,0,-0.4,-4,0)"
         id="path3788"
         style="fill-rule:evenodd;stroke:#000000;stroke-width:1pt;marker-start:none"
         inkscape:connector-curvature="0" />
    </marker>
    <marker
       refX="0"
       refY="0"
       orient="auto"
       id="Arrow2Send"
       style="overflow:visible">
      <path
         d="M 8.7185878,4.0337352 -2.2072895,0.01601326 8.7185884,-4.0017078 c -1.7454984,2.3720609 -1.7354408,5.6174519 -6e-7,8.035443 z"
         transform="matrix(-0.3,0,0,-0.3,0.69,0)"
         id="path3812"
         style="font-size:12px;fill-rule:evenodd;stroke-width:0.625;stroke-linejoin:round"
         inkscape:connector-curvature="0" />
    </marker>
    <marker
       refX="0"
       refY="0"
       orient="auto"
       id="Arrow2Mend"
       style="overflow:visible">
      <path
         d="M 8.7185878,4.0337352 -2.2072895,0.01601326 8.7185884,-4.0017078 c -1.7454984,2.3720609 -1.7354408,5.6174519 -6e-7,8.035443 z"
         transform="scale(-0.6,-0.6)"
         id="path3806"
         style="font-size:12px;fill-rule:evenodd;stroke-width:0.625;stroke-linejoin:round"
         inkscape:connector-curvature="0" />
    </marker>
    <marker
       refX="0"
       refY="0"
       orient="auto"
       id="CurvyCross"
       style="overflow:visible">
      <g
         transform="scale(0.6,0.6)"
         id="g3970">
        <path
           d="m 4.625493,-5.0456926 c -2.76,0 -5.00000002,2.24 -5.00000002,5.00000002 0,2.75999998 2.24000002,4.99999998 5.00000002,4.99999998"
           id="path3972"
           style="fill:none;stroke:#000000;stroke-width:1pt;marker-start:none;marker-end:none"
           inkscape:connector-curvature="0" />
        <path
           d="m -5.4129913,-5.0456926 c 2.76,0 4.99999999,2.24 4.99999999,5.00000002 0,2.75999998 -2.23999999,4.99999998 -4.99999999,4.99999998"
           id="path3974"
           style="fill:none;stroke:#000000;stroke-width:1pt;marker-start:none;marker-end:none"
           inkscape:connector-curvature="0" />
      </g>
    </marker>
    <marker
       refX="0"
       refY="0"
       orient="auto"
       id="Scissors"
       style="overflow:visible">
      <path
         d="M 9.0898857,-3.6061018 C 8.1198849,-4.7769976 6.3697607,-4.7358294 5.0623558,-4.2327734 l -8.2124046,3.0779029 c -2.3882933,-1.3067135 -4.7482873,-0.9325372 -4.7482873,-1.5687873 0,-0.4973164 0.4566662,-0.3883222 0.3883068,-1.6831941 -0.065635,-1.2432767 -1.3635771,-2.1630796 -2.5903987,-2.0816435 -1.227271,-0.00735 -2.499439,0.9331613 -2.510341,2.2300611 -0.09143,1.3063864 1.007209,2.5196896 2.306764,2.6052316 1.5223406,0.2266616 4.218258,-0.6955566 5.482945,1.57086006 -0.9422847,1.73825774 -2.6140244,1.74307674 -4.1255107,1.65607034 -1.2548743,-0.072235 -2.7620933,0.2873979 -3.3606483,1.5208605 -0.578367,1.1820862 -0.0112,2.8646022 1.316749,3.226412 1.3401912,0.4918277 3.1806689,-0.129711 3.4993722,-1.6707242 0.2456585,-1.187823 -0.5953659,-1.7459574 -0.2725074,-2.1771537 0.2436135,-0.32536 1.7907806,-0.1368452 4.5471053,-1.3748244 L 5.6763468,4.2330688 C 6.8000164,4.5467672 8.1730685,4.5362646 9.1684433,3.4313614 L -0.05164093,-0.05372222 9.0898857,-3.6061018 z m -18.3078016,-1.900504 c 1.294559,0.7227998 1.1888392,2.6835702 -0.1564272,3.0632889 -1.2165179,0.423661 -2.7710269,-0.7589694 -2.3831779,-2.0774648 0.227148,-1.0818519 1.653387,-1.480632 2.5396051,-0.9858241 z m 0.056264,8.0173649 c 1.3508301,0.4988648 1.1214429,2.7844356 -0.2522207,3.091609 -0.9110594,0.3163391 -2.2135494,-0.1387976 -2.3056964,-1.2121394 -0.177609,-1.305055 1.356085,-2.4841482 2.5579171,-1.8794696 z"
         id="schere"
         style="marker-start:none"
         inkscape:connector-curvature="0" />
    </marker>
    <marker
       refX="0"
       refY="0"
       orient="auto"
       id="DotL"
       style="overflow:visible">
      <path
         d="m -2.5,-1 c 0,2.76 -2.24,5 -5,5 -2.76,0 -5,-2.24 -5,-5 0,-2.76 2.24,-5 5,-5 2.76,0 5,2.24 5,5 z"
         transform="matrix(0.8,0,0,0.8,5.92,0.8)"
         id="path3841"
         style="fill-rule:evenodd;stroke:#000000;stroke-width:1pt;marker-start:none;marker-end:none"
         inkscape:connector-curvature="0" />
    </marker>
    <marker
       refX="0"
       refY="0"
       orient="auto"
       id="Arrow1Lend"
       style="overflow:visible">
      <path
         d="M 0,0 5,-5 -12.5,0 5,5 0,0 z"
         transform="matrix(-0.8,0,0,-0.8,-10,0)"
         id="path3782"
         style="fill-rule:evenodd;stroke:#000000;stroke-width:1pt;marker-start:none"
         inkscape:connector-curvature="0" />
    </marker>
    <marker
       refX="0"
       refY="0"
       orient="auto"
       id="Tail"
       style="overflow:visible">
      <g
         transform="scale(-1.2,-1.2)"
         id="g3815">
        <path
           d="M -3.8048674,-3.9585227 0.54352094,0"
           id="path3817"
           style="fill:none;stroke:#000000;stroke-width:0.80000001;stroke-linecap:round;marker-start:none;marker-end:none"
           inkscape:connector-curvature="0" />
        <path
           d="M -1.2866832,-3.9585227 3.0617053,0"
           id="path3819"
           style="fill:none;stroke:#000000;stroke-width:0.80000001;stroke-linecap:round;marker-start:none;marker-end:none"
           inkscape:connector-curvature="0" />
        <path
           d="M 1.3053582,-3.9585227 5.6537466,0"
           id="path3821"
           style="fill:none;stroke:#000000;stroke-width:0.80000001;stroke-linecap:round;marker-start:none;marker-end:none"
           inkscape:connector-curvature="0" />
        <path
           d="M -3.8048674,4.1775838 0.54352094,0.21974226"
           id="path3823"
           style="fill:none;stroke:#000000;stroke-width:0.80000001;stroke-linecap:round;marker-start:none;marker-end:none"
           inkscape:connector-curvature="0" />
        <path
           d="M -1.2866832,4.1775838 3.0617053,0.21974226"
           id="path3825"
           style="fill:none;stroke:#000000;stroke-width:0.80000001;stroke-linecap:round;marker-start:none;marker-end:none"
           inkscape:connector-curvature="0" />
        <path
           d="M 1.3053582,4.1775838 5.6537466,0.21974226"
           id="path3827"
           style="fill:none;stroke:#000000;stroke-width:0.80000001;stroke-linecap:round;marker-start:none;marker-end:none"
           inkscape:connector-curvature="0" />
      </g>
    </marker>
    <marker
       refX="0"
       refY="0"
       orient="auto"
       id="Arrow1Lstart"
       style="overflow:visible">
      <path
         d="M 0,0 5,-5 -12.5,0 5,5 0,0 z"
         transform="matrix(0.8,0,0,0.8,10,0)"
         id="path3779"
         style="fill-rule:evenodd;stroke:#000000;stroke-width:1pt;marker-start:none"
         inkscape:connector-curvature="0" />
    </marker>
  </defs>
  <metadata
     id="metadata7">
    <rdf:RDF>
      <cc:Work
         rdf:about="">
        <dc:format>image/svg+xml</dc:format>
        <dc:type
           rdf:resource="http://purl.org/dc/dcmitype/StillImage" />
        <dc:title />
      </cc:Work>
    </rdf:RDF>
  </metadata>
  <path
     inkscape:connector-curvature="0"
     style="fill:none;stroke:#000000;stroke-width:0;stroke-linecap:butt;stroke-linejoin:round;stroke-miterlimit:4;stroke-opacity:0.93706294;stroke-dasharray:none;stroke-dashoffset:0"
     id="path5430"
     d="m -355.25,-376.78125 a 0,0 0 0 0 0,0 0,0 0 0 0 0,0 z" />
  <path
     inkscape:connector-curvature="0"
     style="fill:#ff0000;fill-opacity:0;fill-rule:evenodd;stroke:#000000;stroke-width:30.81699944;stroke-linecap:butt;stroke-linejoin:miter;stroke-miterlimit:4;stroke-opacity:1;stroke-dasharray:none;marker-start:none;marker-mid:none;marker-end:none"
     id="path2985"
     d="m 571.60113,293.51356 a 278.09072,278.09072 0 0 1 -556.18144,0 278.09072,278.09072 0 1 1 556.18144,0 z"
     mask="none" />
  <a
     id="a3798"
     transform="translate(-31.06013,-125.78637)"
     mask="none">
    <g
       style="font-size:40px;font-style:normal;font-variant:normal;font-weight:bold;font-stretch:normal;line-height:125%;letter-spacing:0px;word-spacing:0px;fill:#000000;fill-opacity:1;stroke:none;font-family:Liberation Mono;-inkscape-font-specification:Liberation Mono Bold"
       id="flowRoot3787"
       transform="translate(318.08825,9.1735702)">
      <path
         inkscape:connector-curvature="0"
         style="font-size:230px;font-family:Liberation Mono;-inkscape-font-specification:Liberation Mono Bold"
         id="path3218"
         d="m 217.77246,372.51818 0,100.17579 -31.44531,0 0,-100.17579 -28.75,0 0,-21.33789 28.75,0 0,-9.32129 c -4e-5,-4.64179 0.63635,-9.28371 1.90918,-13.92578 1.34761,-4.64177 3.78088,-8.83448 7.2998,-12.57812 3.51883,-3.74333 8.34793,-6.77555 14.48731,-9.09668 6.13925,-2.39567 14.038,-3.59358 23.69629,-3.59375 7.63662,1.7e-4 14.52463,0.33708 20.66406,1.01074 6.21408,0.674 11.56726,1.38526 16.05957,2.13379 l 0,20.66406 c -4.71692,-0.59881 -9.77062,-1.08546 -15.16113,-1.45996 -5.31586,-0.44907 -10.66905,-0.67368 -16.05957,-0.67383 -4.34254,1.5e-4 -7.89885,0.4868 -10.66895,1.45996 -2.77026,0.97346 -4.97892,2.35855 -6.62598,4.15528 -1.57234,1.72214 -2.65795,3.85593 -3.25683,6.40136 -0.59903,2.47084 -0.89851,5.27846 -0.89844,8.42286 l 0,6.40136 49.75098,0 0,21.33789 -49.75098,0" />
    </g>
  </a>
  <path
     inkscape:connector-curvature="0"
     style="fill:none;stroke:#000000;stroke-width:31.47218323;stroke-linecap:butt;stroke-linejoin:miter;stroke-miterlimit:4;stroke-opacity:1;stroke-dasharray:none"
     id="path3804"
     d="m 489.10632,349.42959 0,136.42857"
     mask="none" />
  <path
     style="font-size:medium;font-style:normal;font-variant:normal;font-weight:normal;font-stretch:normal;text-indent:0;text-align:start;text-decoration:none;line-height:normal;letter-spacing:normal;word-spacing:normal;text-transform:none;direction:ltr;block-progression:tb;writing-mode:lr-tb;text-anchor:start;baseline-shift:baseline;color:#000000;fill:#000000;fill-opacity:1;stroke:none;stroke-width:28.29607582;marker:none;visibility:visible;display:inline;overflow:visible;enable-background:accumulate;font-family:Sans;-inkscape-font-specification:Sans"
     d="m 287.15625,224.65625 a 14.149453,14.149453 0 0 0 -11.59375,21.375 l 29.875,51.8125 4.09375,7.0625 8.15625,0 67.25,0 a 14.149453,14.149453 0 1 0 0,-28.28125 l -59.0625,0 -25.8125,-44.71875 a 14.149453,14.149453 0 0 0 -12.90625,-7.25 z"
     mask="none"
     id="path4894"
     inkscape:connector-curvature="0" />
  <path
     style="font-size:medium;font-style:normal;font-variant:normal;font-weight:normal;font-stretch:normal;text-indent:0;text-align:start;text-decoration:none;line-height:normal;letter-spacing:normal;word-spacing:normal;text-transform:none;direction:ltr;block-progression:tb;writing-mode:lr-tb;text-anchor:start;baseline-shift:baseline;color:#000000;fill:#000000;fill-opacity:1;stroke:none;stroke-width:28.29607582;marker:none;visibility:visible;display:inline;overflow:visible;enable-background:accumulate;font-family:Sans;-inkscape-font-specification:Sans"
     d="M 182.3125,211.625 A 14.149453,14.149453 0 0 0 168.75,221.6875 L 147.5625,292 a 14.149453,14.149453 0 1 0 27.09375,8.15625 l 18.15625,-60.21875 65.78125,0 a 14.15625,14.15625 0 0 0 0,-28.3125 l -76.28125,0 z"
     mask="none"
     id="path4896"
     inkscape:connector-curvature="0" />
  <path
     style="font-size:medium;font-style:normal;font-variant:normal;font-weight:normal;font-stretch:normal;text-indent:0;text-align:start;text-decoration:none;line-height:normal;letter-spacing:normal;word-spacing:normal;text-transform:none;direction:ltr;block-progression:tb;writing-mode:lr-tb;text-anchor:start;baseline-shift:baseline;color:#000000;fill:#000000;fill-opacity:1;stroke:none;stroke-width:45.2737236;marker:none;visibility:visible;display:inline;overflow:visible;enable-background:accumulate;font-family:Sans;-inkscape-font-specification:Sans"
     d="m 187.09375,363 -5.84375,21.84375 -14.4375,53.84375 -69.46875,0 -22.625,0 0,45.28125 22.625,0 86.84375,0 a 22.639125,22.639125 0 0 0 21.875,-16.78125 l 18.90625,-70.625 5.875,-21.84375 L 187.09375,363 z"
     mask="none"
     id="path5406"
     inkscape:connector-curvature="0" />
  <path
     style="font-size:medium;font-style:normal;font-variant:normal;font-weight:normal;font-stretch:normal;text-indent:0;text-align:start;text-decoration:none;line-height:normal;letter-spacing:normal;word-spacing:normal;text-transform:none;direction:ltr;block-progression:tb;writing-mode:lr-tb;text-anchor:start;baseline-shift:baseline;color:#000000;fill:#000000;fill-opacity:1;stroke:none;stroke-width:45.2737236;marker:none;visibility:visible;display:inline;overflow:visible;enable-background:accumulate;font-family:Sans;-inkscape-font-specification:Sans"
     d="m 236.09375,354.625 -22.625,39.21875 52.34375,30.21875 0,136.78125 45.28125,0 0,-149.84375 a 22.639125,22.639125 0 0 0 -11.3125,-19.625 l -63.6875,-36.75 z"
     mask="none"
     id="path5410"
     inkscape:connector-curvature="0" />
  <path
     inkscape:connector-curvature="0"
     style="fill:#000000;fill-opacity:1;fill-rule:nonzero;stroke:none"
     id="path5434"
     d="m 308.3604,257.26248 a 45.475841,45.475841 0 0 1 -90.95168,0 45.475841,45.475841 0 1 1 90.95168,0 z"
     mask="none" />
  <path
     style="font-size:medium;font-style:normal;font-variant:normal;font-weight:normal;font-stretch:normal;text-indent:0;text-align:start;text-decoration:none;line-height:normal;letter-spacing:normal;word-spacing:normal;text-transform:none;direction:ltr;block-progression:tb;writing-mode:lr-tb;text-anchor:start;baseline-shift:baseline;color:#000000;fill:#000000;fill-opacity:1;stroke:none;stroke-width:90.5474472;marker:none;visibility:visible;display:inline;overflow:visible;enable-background:accumulate;font-family:Sans;-inkscape-font-specification:Sans"
     d="m 220.34375,238.34375 -36.25,135.96875 87.5,23.34375 36.25,-136 -87.5,-23.3125 z"
     mask="none"
     id="path5438"
     inkscape:connector-curvature="0" />
  <path
     inkscape:connector-curvature="0"
     style="fill:#000000;fill-opacity:1;fill-rule:nonzero;stroke:none"
     id="path5440"
     d="m 356.86793,166.64767 a 41.096685,41.096685 0 0 1 -82.19337,0 41.096685,41.096685 0 1 1 82.19337,0 z"
     mask="none" />
  <path
     style="font-size:medium;font-style:normal;font-variant:normal;font-weight:normal;font-stretch:normal;text-indent:0;text-align:start;text-decoration:none;line-height:normal;letter-spacing:normal;word-spacing:normal;text-transform:none;direction:ltr;block-progression:tb;writing-mode:lr-tb;text-anchor:start;baseline-shift:baseline;color:#000000;fill:#000000;fill-opacity:1;stroke:none;stroke-width:13.99189091;marker:none;visibility:visible;display:inline;overflow:visible;enable-background:accumulate;font-family:Sans;-inkscape-font-specification:Sans"
     d="m 330.21875,284.75 0,-7 0,-1.40625 0,-7 7,0 66.9375,0 7,0 0,7 0,1.40625 0,7 -7,0 -66.9375,0 -7,0 z"
     mask="none"
     id="rect2998"
     inkscape:connector-curvature="0" />
  <path
     style="font-size:medium;font-style:normal;font-variant:normal;font-weight:normal;font-stretch:normal;text-indent:0;text-align:start;text-decoration:none;line-height:normal;letter-spacing:normal;word-spacing:normal;text-transform:none;direction:ltr;block-progression:tb;writing-mode:lr-tb;text-anchor:start;baseline-shift:baseline;color:#000000;fill:#000000;fill-opacity:1;stroke:none;stroke-width:13.99189091;marker:none;visibility:visible;display:inline;overflow:visible;enable-background:accumulate;font-family:Sans;-inkscape-font-specification:Sans"
     d="m 411.14879,284.77726 -6.23601,-3.11059 -1.28635,-0.64164 -6.26396,-3.12454 3.12453,-6.26397 29.87835,-59.89919 3.12453,-6.26396 6.26397,3.12453 1.28635,0.64164 6.236,3.11059 -3.12453,6.26397 -29.87835,59.89919 -3.12453,6.26397 z"
     mask="none"
     id="rect2998-2"
     inkscape:connector-curvature="0" />
  <g
     transform="translate(-36.31817,-193.31407)"
     style="font-size:144px;font-style:normal;font-weight:normal;line-height:125%;letter-spacing:0px;word-spacing:0px;fill:#000000;fill-opacity:1;stroke:none;font-family:Sans"
     id="flowRoot3945">
    <path
       inkscape:connector-curvature="0"
       d="m 651.97656,459.49282 19.125,0 46.54688,87.82031 0,-87.82031 13.78125,0 0,104.97656 -19.125,0 -46.54688,-87.82031 0,87.82031 -13.78125,0 0,-104.97656"
       id="path3081" />
    <path
       inkscape:connector-curvature="0"
       d="m 789.64844,494.78969 c -6.93754,7e-5 -12.42191,2.71882 -16.45313,8.15625 -4.03127,5.39068 -6.04689,12.79693 -6.04687,22.21875 -2e-5,9.42191 1.99216,16.85159 5.97656,22.28906 4.03122,5.39064 9.53903,8.08595 16.52344,8.08594 6.89057,1e-5 12.3515,-2.71874 16.38281,-8.15625 4.03119,-5.43748 6.04681,-12.84372 6.04687,-22.21875 -6e-5,-9.32807 -2.01568,-16.71088 -6.04687,-22.14844 -4.03131,-5.4843 -9.49224,-8.22649 -16.38281,-8.22656 m 0,-10.96875 c 11.24994,8e-5 20.08587,3.65633 26.50781,10.96875 6.4218,7.31256 9.63273,17.43755 9.63281,30.375 -8e-5,12.89065 -3.21101,23.01564 -9.63281,30.375 -6.42194,7.3125 -15.25787,10.96875 -26.50781,10.96875 -11.29691,0 -20.15628,-3.65625 -26.57813,-10.96875 -6.37501,-7.35936 -9.56251,-17.48435 -9.5625,-30.375 -10e-6,-12.93745 3.18749,-23.06244 9.5625,-30.375 6.42185,-7.31242 15.28122,-10.96867 26.57813,-10.96875"
       id="path3083" />
    <path
       inkscape:connector-curvature="0"
       d="m 892.79687,497.81313 c -1.45318,-0.84368 -3.04693,-1.45306 -4.78125,-1.82813 -1.68755,-0.4218 -3.56255,-0.63274 -5.625,-0.63281 -7.31254,7e-5 -12.93753,2.39069 -16.875,7.17188 -3.89065,4.73443 -5.83596,11.55473 -5.83593,20.46093 l 0,41.48438 -13.00782,0 0,-78.75 13.00782,0 0,12.23437 c 2.71872,-4.78117 6.25778,-8.32023 10.61718,-10.61718 4.35934,-2.34367 9.65621,-3.51555 15.89063,-3.51563 0.89057,8e-5 1.87495,0.0704 2.95312,0.21094 1.07807,0.0938 2.27338,0.25789 3.58594,0.49219 l 0.0703,13.28906"
       id="path3085" />
    <path
       inkscape:connector-curvature="0"
       d="m 955.79687,497.6725 0,-42.60937 12.9375,0 0,109.40625 -12.9375,0 0,-11.8125 c -2.71881,4.68751 -6.16412,8.17969 -10.33593,10.47656 -4.12505,2.25 -9.0938,3.375 -14.90625,3.375 -9.51566,0 -17.27346,-3.79687 -23.27344,-11.39062 -5.95314,-7.59374 -8.9297,-17.5781 -8.92969,-29.95313 -10e-6,-12.37495 2.97655,-22.35931 8.92969,-29.95312 5.99998,-7.59368 13.75778,-11.39055 23.27344,-11.39063 5.81245,8e-5 10.7812,1.14852 14.90625,3.44531 4.17181,2.25008 7.61712,5.71883 10.33593,10.40625 m -44.08593,27.49219 c -2e-5,9.51566 1.94529,16.99221 5.83593,22.42969 3.93747,5.39064 9.32809,8.08595 16.17188,8.08594 6.8437,10e-6 12.23432,-2.6953 16.17187,-8.08594 3.93744,-5.43748 5.90619,-12.91403 5.90625,-22.42969 -6e-5,-9.51557 -1.96881,-16.96869 -5.90625,-22.35937 -3.93755,-5.43744 -9.32817,-8.15618 -16.17187,-8.15625 -6.84379,7e-5 -12.23441,2.71881 -16.17188,8.15625 -3.89064,5.39068 -5.83595,12.8438 -5.83593,22.35937"
       id="path3087" />
    <path
       inkscape:connector-curvature="0"
       d="m 1062.7422,521.86 0,6.32813 -59.4844,0 c 0.5625,8.90628 3.2344,15.70314 8.0156,20.39062 4.8281,4.64064 11.5312,6.96095 20.1094,6.96094 4.9687,1e-5 9.7734,-0.60936 14.4141,-1.82812 4.6874,-1.21874 9.328,-3.04686 13.9219,-5.48438 l 0,12.23438 c -4.6407,1.96875 -9.3986,3.46875 -14.2735,4.5 -4.875,1.03125 -9.8204,1.54687 -14.8359,1.54687 -12.5626,0 -22.5235,-3.65625 -29.8828,-10.96875 -7.31255,-7.31248 -10.9688,-17.2031 -10.96879,-29.67187 -10e-6,-12.89058 3.46874,-23.10932 10.40629,-30.65625 6.9843,-7.59368 16.3827,-11.39055 28.1953,-11.39063 10.5937,8e-5 18.9608,3.42195 25.1015,10.26563 6.1875,6.79694 9.2812,16.05474 9.2813,27.77343 m -12.9375,-3.79687 c -0.094,-7.07807 -2.086,-12.7265 -5.9766,-16.94531 -3.8438,-4.21869 -8.9532,-6.32806 -15.3281,-6.32813 -7.2188,7e-5 -13.0078,2.03913 -17.3672,6.11719 -4.3125,4.07818 -6.7969,9.82037 -7.4531,17.22656 l 46.125,-0.0703"
       id="path3089" />
    <path
       inkscape:connector-curvature="0"
       d="m 1083.9766,485.71938 12.9375,0 0,78.75 -12.9375,0 0,-78.75 m 0,-30.65625 12.9375,0 0,16.38281 -12.9375,0 0,-16.38281"
       id="path3091" />
    <path
       inkscape:connector-curvature="0"
       d="m 1189.375,516.93813 0,47.53125 -12.9375,0 0,-47.10938 c -10e-5,-7.45307 -1.4532,-13.03119 -4.3594,-16.73437 -2.9063,-3.70306 -7.2657,-5.55462 -13.0781,-5.55469 -6.9844,7e-5 -12.4922,2.22663 -16.5234,6.67969 -4.0313,4.45318 -6.0469,10.52349 -6.0469,18.21094 l 0,44.50781 -13.0078,0 0,-78.75 13.0078,0 0,12.23437 c 3.0937,-4.7343 6.7265,-8.27336 10.8984,-10.61718 4.2187,-2.34367 9.0703,-3.51555 14.5547,-3.51563 9.0468,8e-5 15.8906,2.81258 20.5313,8.4375 4.6405,5.57819 6.9608,13.80475 6.9609,24.67969"
       id="path3093" />
    <path
       inkscape:connector-curvature="0"
       d="m 1267.1406,524.18032 c 0,-9.37495 -1.9454,-16.64057 -5.8359,-21.79688 -3.8438,-5.15618 -9.2579,-7.7343 -16.2422,-7.73437 -6.9375,7e-5 -12.3516,2.57819 -16.2422,7.73437 -3.8438,5.15631 -5.7656,12.42193 -5.7656,21.79688 0,9.32815 1.9218,16.57033 5.7656,21.72656 3.8906,5.15626 9.3047,7.73439 16.2422,7.73437 6.9843,2e-5 12.3984,-2.57811 16.2422,-7.73437 3.8905,-5.15623 5.8359,-12.39841 5.8359,-21.72656 m 12.9375,30.51562 c -10e-5,13.40625 -2.9766,23.36718 -8.9297,29.88281 -5.9532,6.56248 -15.0703,9.84372 -27.3515,9.84375 -4.5469,-3e-5 -8.836,-0.35159 -12.8672,-1.05468 -4.0313,-0.65628 -7.9453,-1.68753 -11.7422,-3.09375 l 0,-12.58594 c 3.7969,2.06248 7.5469,3.58592 11.25,4.57031 3.7031,0.98436 7.4765,1.47654 11.3203,1.47656 8.4843,-2e-5 14.8359,-2.22658 19.0547,-6.67968 4.2187,-4.40626 6.3281,-11.08594 6.3281,-20.03907 l 0,-6.39843 c -2.6719,4.64063 -6.0938,8.10938 -10.2656,10.40625 -4.1719,2.29687 -9.1641,3.44531 -14.9766,3.44531 -9.6562,0 -17.4375,-3.67968 -23.3437,-11.03906 -5.9063,-7.35936 -8.8594,-17.10935 -8.8594,-29.25 0,-12.18745 2.9531,-21.96088 8.8594,-29.32032 5.9062,-7.35929 13.6875,-11.03898 23.3437,-11.03906 5.8125,8e-5 10.8047,1.14852 14.9766,3.44531 4.1718,2.29695 7.5937,5.7657 10.2656,10.40625 l 0,-11.95312 12.9375,0 0,68.97656"
       id="path3095" />
    <path
       inkscape:connector-curvature="0"
       d="m 1342.5156,524.88344 c -10.4531,4e-5 -17.6953,1.19535 -21.7265,3.58594 -4.0313,2.39066 -6.0469,6.46878 -6.0469,12.23437 0,4.59377 1.5,8.25002 4.5,10.96875 3.0468,2.67189 7.1718,4.00783 12.375,4.00782 7.1718,10e-6 12.914,-2.53124 17.2266,-7.59375 4.3593,-5.10936 6.539,-11.88279 6.539,-20.32032 l 0,-2.88281 -12.8672,0 m 25.8047,-5.34375 0,44.92969 -12.9375,0 0,-11.95313 c -2.9532,4.78126 -6.6329,8.32032 -11.039,10.61719 -4.4063,2.25 -9.797,3.375 -16.1719,3.375 -8.0626,0 -14.4844,-2.25 -19.2656,-6.75 -4.7344,-4.54686 -7.1016,-10.61717 -7.1016,-18.21094 0,-8.85934 2.9531,-15.53902 8.8594,-20.03906 5.9531,-4.49995 14.8124,-6.74995 26.5781,-6.75 l 18.1406,0 0,-1.26562 c 0,-5.95307 -1.9688,-10.54682 -5.9062,-13.78125 -3.8907,-3.28119 -9.3751,-4.92181 -16.4532,-4.92188 -4.5,7e-5 -8.8828,0.53913 -13.1484,1.61719 -4.2656,1.07819 -8.3672,2.69538 -12.3047,4.85156 l 0,-11.95312 c 4.7344,-1.82805 9.3281,-3.18742 13.7813,-4.07813 4.4531,-0.93742 8.789,-1.40617 13.0078,-1.40625 11.3905,8e-5 19.8984,2.9532 25.5234,8.85938 5.6249,5.90631 8.4374,14.85943 8.4375,26.85937"
       id="path3097" />
    <path
       inkscape:connector-curvature="0"
       d="m 1460.5,516.93813 0,47.53125 -12.9375,0 0,-47.10938 c -10e-5,-7.45307 -1.4532,-13.03119 -4.3594,-16.73437 -2.9063,-3.70306 -7.2657,-5.55462 -13.0781,-5.55469 -6.9844,7e-5 -12.4922,2.22663 -16.5234,6.67969 -4.0313,4.45318 -6.0469,10.52349 -6.0469,18.21094 l 0,44.50781 -13.0078,0 0,-78.75 13.0078,0 0,12.23437 c 3.0937,-4.7343 6.7265,-8.27336 10.8984,-10.61718 4.2187,-2.34367 9.0703,-3.51555 14.5547,-3.51563 9.0468,8e-5 15.8906,2.81258 20.5313,8.4375 4.6405,5.57819 6.9608,13.80475 6.9609,24.67969"
       id="path3099" />
    <path
       inkscape:connector-curvature="0"
       d="m 1538.2656,524.18032 c 0,-9.37495 -1.9454,-16.64057 -5.8359,-21.79688 -3.8438,-5.15618 -9.2579,-7.7343 -16.2422,-7.73437 -6.9375,7e-5 -12.3516,2.57819 -16.2422,7.73437 -3.8438,5.15631 -5.7656,12.42193 -5.7656,21.79688 0,9.32815 1.9218,16.57033 5.7656,21.72656 3.8906,5.15626 9.3047,7.73439 16.2422,7.73437 6.9843,2e-5 12.3984,-2.57811 16.2422,-7.73437 3.8905,-5.15623 5.8359,-12.39841 5.8359,-21.72656 m 12.9375,30.51562 c -10e-5,13.40625 -2.9766,23.36718 -8.9297,29.88281 -5.9532,6.56248 -15.0703,9.84372 -27.3515,9.84375 -4.5469,-3e-5 -8.836,-0.35159 -12.8672,-1.05468 -4.0313,-0.65628 -7.9453,-1.68753 -11.7422,-3.09375 l 0,-12.58594 c 3.7969,2.06248 7.5469,3.58592 11.25,4.57031 3.7031,0.98436 7.4765,1.47654 11.3203,1.47656 8.4843,-2e-5 14.8359,-2.22658 19.0547,-6.67968 4.2187,-4.40626 6.3281,-11.08594 6.3281,-20.03907 l 0,-6.39843 c -2.6719,4.64063 -6.0938,8.10938 -10.2656,10.40625 -4.1719,2.29687 -9.1641,3.44531 -14.9766,3.44531 -9.6562,0 -17.4375,-3.67968 -23.3437,-11.03906 -5.9063,-7.35936 -8.8594,-17.10935 -8.8594,-29.25 0,-12.18745 2.9531,-21.96088 8.8594,-29.32032 5.9062,-7.35929 13.6875,-11.03898 23.3437,-11.03906 5.8125,8e-5 10.8047,1.14852 14.9766,3.44531 4.1718,2.29695 7.5937,5.7657 10.2656,10.40625 l 0,-11.95312 12.9375,0 0,68.97656"
       id="path3101" />
  </g>
  <g
     transform="matrix(1.7559906,0,0,1.7559906,-1223.4259,90.0769)"
     style="font-size:64px;font-style:normal;font-weight:normal;line-height:125%;letter-spacing:0px;word-spacing:0px;fill:#000000;fill-opacity:1;stroke:#000000;stroke-width:0;stroke-linejoin:round;stroke-miterlimit:4;stroke-opacity:1;stroke-dashoffset:0;font-family:Sans"
     id="flowRoot3971">
    <path
       inkscape:connector-curvature="0"
       d="m 1046.907,183.17915 6.4289,0 15.6468,29.52088 0,-29.52088 4.6325,0 0,35.28797 -6.4288,0 -15.6468,-29.52088 0,29.52088 -4.6326,0 0,-35.28797"
       style="font-size:48.40572739px;stroke:#000000;stroke-dashoffset:0"
       id="path3104" />
    <path
       inkscape:connector-curvature="0"
       d="m 1105.5706,204.14394 0,2.1272 -19.9957,0 c 0.189,2.99386 1.0872,5.27863 2.6944,6.85433 1.623,1.55995 3.8763,2.33993 6.7598,2.33993 1.6702,0 3.2853,-0.20484 4.8453,-0.61453 1.5757,-0.40968 3.1356,-1.02421 4.6799,-1.84358 l 0,4.1126 c -1.56,0.6618 -3.1594,1.16602 -4.7981,1.51268 -1.6387,0.34665 -3.3011,0.51998 -4.9871,0.51998 -4.2229,0 -7.5713,-1.22905 -10.0451,-3.68715 -2.4581,-2.4581 -3.6872,-5.78284 -3.6872,-9.97423 0,-4.33318 1.166,-7.76822 3.4981,-10.30513 2.3478,-2.55262 5.5071,-3.82894 9.4779,-3.82897 3.5611,3e-5 6.3737,1.1503 8.4379,3.4508 2.0799,2.2848 3.1199,5.39682 3.1199,9.33607 m -4.349,-1.27632 c -0.032,-2.3793 -0.7012,-4.27803 -2.009,-5.69619 -1.2921,-1.41811 -3.0096,-2.12718 -5.1526,-2.1272 -2.4266,2e-5 -4.3725,0.68545 -5.8379,2.0563 -1.4497,1.37088 -2.2848,3.30112 -2.5054,5.79072 l 15.5049,-0.0236"
       style="font-size:48.40572739px;stroke:#000000;stroke-dashoffset:0"
       id="path3106" />
    <path
       inkscape:connector-curvature="0"
       d="m 1112.2595,208.02018 0,-16.02494 4.3489,0 0,15.85949 c 0,2.50538 0.4885,4.38835 1.4654,5.64891 0.977,1.24481 2.4424,1.86722 4.3963,1.86721 2.3477,1e-5 4.1992,-0.74845 5.5543,-2.24538 1.3709,-1.49691 2.0563,-3.53745 2.0563,-6.12162 l 0,-15.00861 4.349,0 0,26.47188 -4.349,0 0,-4.06533 c -1.0557,1.60723 -2.2848,2.80476 -3.6871,3.59262 -1.3867,0.77209 -3.0018,1.15814 -4.8453,1.15814 -3.0412,0 -5.3496,-0.94542 -6.9253,-2.83627 -1.5757,-1.89085 -2.3635,-4.65621 -2.3635,-8.2961 m 10.9433,-16.66311 0,0"
       style="font-size:48.40572739px;stroke:#000000;stroke-dashoffset:0"
       id="path3108" />
    <path
       inkscape:connector-curvature="0"
       d="m 1160.3107,192.77521 0,4.1126 c -1.2291,-0.63026 -2.5054,-1.10298 -3.829,-1.41814 -1.3236,-0.31512 -2.6945,-0.47269 -4.1126,-0.47271 -2.1587,2e-5 -3.7817,0.33092 -4.8689,0.99269 -1.0715,0.66182 -1.6073,1.65452 -1.6073,2.97809 0,1.00847 0.3861,1.8042 1.1582,2.3872 0.7721,0.56727 2.3241,1.11089 4.6562,1.63085 l 1.489,0.3309 c 3.0884,0.66181 5.2786,1.59936 6.5707,2.81264 1.3079,1.19755 1.9618,2.87568 1.9618,5.03438 0,2.45811 -0.977,4.40411 -2.9308,5.838 -1.9382,1.43389 -4.609,2.15084 -8.0125,2.15084 -1.4181,0 -2.8993,-0.14181 -4.4435,-0.42544 -1.5284,-0.26787 -3.1435,-0.67755 -4.8453,-1.22905 l 0,-4.49077 c 1.6072,0.83513 3.1908,1.46541 4.7508,1.89085 1.5599,0.40969 3.1041,0.61453 4.6326,0.61453 2.0484,0 3.6241,-0.34666 4.7271,-1.03997 1.1029,-0.70906 1.6544,-1.70176 1.6545,-2.97809 -10e-5,-1.18177 -0.4019,-2.0878 -1.2055,-2.71809 -0.7878,-0.63027 -2.529,-1.23692 -5.2234,-1.81994 l -1.5127,-0.35454 c -2.6945,-0.56724 -4.6405,-1.43388 -5.838,-2.59991 -1.1975,-1.18177 -1.7963,-2.79687 -1.7963,-4.8453 0,-2.4896 0.8824,-4.41196 2.6472,-5.76709 1.7648,-1.35508 4.2701,-2.03264 7.5161,-2.03267 1.6072,3e-5 3.1199,0.11821 4.538,0.35454 1.4182,0.23638 2.726,0.59092 3.9236,1.0636"
       style="font-size:48.40572739px;stroke:#000000;stroke-dashoffset:0"
       id="path3110" />
    <path
       inkscape:connector-curvature="0"
       d="m 1185.5535,192.77521 0,4.1126 c -1.2291,-0.63026 -2.5054,-1.10298 -3.829,-1.41814 -1.3236,-0.31512 -2.6944,-0.47269 -4.1126,-0.47271 -2.1587,2e-5 -3.7817,0.33092 -4.8689,0.99269 -1.0715,0.66182 -1.6072,1.65452 -1.6072,2.97809 0,1.00847 0.386,1.8042 1.1581,2.3872 0.7721,0.56727 2.3242,1.11089 4.6562,1.63085 l 1.4891,0.3309 c 3.0883,0.66181 5.2786,1.59936 6.5707,2.81264 1.3078,1.19755 1.9617,2.87568 1.9617,5.03438 0,2.45811 -0.9769,4.40411 -2.9308,5.838 -1.9381,1.43389 -4.6089,2.15084 -8.0125,2.15084 -1.4181,0 -2.8993,-0.14181 -4.4435,-0.42544 -1.5284,-0.26787 -3.1435,-0.67755 -4.8453,-1.22905 l 0,-4.49077 c 1.6073,0.83513 3.1909,1.46541 4.7508,1.89085 1.5599,0.40969 3.1041,0.61453 4.6326,0.61453 2.0484,0 3.6241,-0.34666 4.7271,-1.03997 1.103,-0.70906 1.6545,-1.70176 1.6545,-2.97809 0,-1.18177 -0.4018,-2.0878 -1.2054,-2.71809 -0.7879,-0.63027 -2.529,-1.23692 -5.2235,-1.81994 l -1.5127,-0.35454 c -2.6944,-0.56724 -4.6404,-1.43388 -5.838,-2.59991 -1.1975,-1.18177 -1.7963,-2.79687 -1.7963,-4.8453 0,-2.4896 0.8824,-4.41196 2.6472,-5.76709 1.7648,-1.35508 4.2702,-2.03264 7.5161,-2.03267 1.6073,3e-5 3.1199,0.11821 4.5381,0.35454 1.4181,0.23638 2.7259,0.59092 3.9235,1.0636"
       style="font-size:48.40572739px;stroke:#000000;stroke-dashoffset:0"
       id="path3112" />
    <path
       inkscape:connector-curvature="0"
       d="m 1231.9738,204.14394 0,2.1272 -19.9957,0 c 0.1891,2.99386 1.0872,5.27863 2.6945,6.85433 1.6229,1.55995 3.8762,2.33993 6.7597,2.33993 1.6703,0 3.2854,-0.20484 4.8453,-0.61453 1.5757,-0.40968 3.1357,-1.02421 4.6799,-1.84358 l 0,4.1126 c -1.56,0.6618 -3.1593,1.16602 -4.798,1.51268 -1.6388,0.34665 -3.3012,0.51998 -4.9871,0.51998 -4.223,0 -7.5713,-1.22905 -10.0452,-3.68715 -2.4581,-2.4581 -3.6871,-5.78284 -3.6871,-9.97423 0,-4.33318 1.166,-7.76822 3.498,-10.30513 2.3478,-2.55262 5.5071,-3.82894 9.4779,-3.82897 3.5611,3e-5 6.3737,1.1503 8.4379,3.4508 2.0799,2.2848 3.1199,5.39682 3.1199,9.33607 m -4.3489,-1.27632 c -0.032,-2.3793 -0.7012,-4.27803 -2.0091,-5.69619 -1.2921,-1.41811 -3.0096,-2.12718 -5.1525,-2.1272 -2.4266,2e-5 -4.3726,0.68545 -5.838,2.0563 -1.4497,1.37088 -2.2848,3.30112 -2.5054,5.79072 l 15.505,-0.0236"
       style="font-size:48.40572739px;stroke:#000000;stroke-dashoffset:0"
       id="path3114" />
    <path
       inkscape:connector-curvature="0"
       d="m 1239.7263,212.46367 4.9871,0 0,6.00345 -4.9871,0 0,-6.00345"
       style="font-size:48.40572739px;stroke:#000000;stroke-dashoffset:0"
       id="path3116" />
    <path
       inkscape:connector-curvature="0"
       d="m 1263.811,218.46712 -13.4723,-35.28797 4.9871,0 11.1797,29.70996 11.2032,-29.70996 4.9635,0 -13.4487,35.28797 -5.4125,0"
       style="font-size:48.40572739px;stroke:#000000;stroke-dashoffset:0"
       id="path3118" />
    <path
       inkscape:connector-curvature="0"
       d="m 1281.9868,212.46367 4.9871,0 0,6.00345 -4.9871,0 0,-6.00345"
       style="font-size:48.40572739px;stroke:#000000;stroke-dashoffset:0"
       id="path3120" />
  </g>
  <path
     sodipodi:type="star"
     style="fill:#00000c;fill-opacity:1;fill-rule:nonzero;stroke:#000000;stroke-width:10;stroke-miterlimit:4;stroke-opacity:1;stroke-dasharray:none;stroke-dashoffset:0"
     id="path3017"
     sodipodi:sides="3"
     sodipodi:cx="684.28571"
     sodipodi:cy="-214.78067"
     sodipodi:r1="38.57143"
     sodipodi:r2="19.285713"
     sodipodi:arg1="0"
     sodipodi:arg2="1.0471976"
     inkscape:flatsided="true"
     inkscape:rounded="0"
     inkscape:randomized="0"
     d="m 722.85714,-214.78067 -57.85715,33.40384 0,-66.80768 z"
     inkscape:transform-center-x="-9.6428571"
     transform="translate(880.6932,459.25052)" />
  <path
     style="fill:none;stroke:#000000;stroke-width:21.20000076;stroke-linecap:butt;stroke-linejoin:miter;stroke-miterlimit:4;stroke-opacity:1;stroke-dasharray:none"
     d="m 558.36675,244.837 985.03365,0"
     id="path3796"
     inkscape:connector-curvature="0"
     sodipodi:nodetypes="cc" />
</svg>
