<?xml version="1.0" encoding="UTF-8" standalone="no"?>
<!-- Created with Inkscape (http://www.inkscape.org/) -->
<svg xmlns:rdf="http://www.w3.org/1999/02/22-rdf-syntax-ns#" xmlns="http://www.w3.org/2000/svg" version="1.2" xmlns:cc="http://creativecommons.org/ns#" xmlns:dc="http://purl.org/dc/elements/1.1/" viewBox="0 0 121.29 124.02">
 <defs></defs>
 <metadata>
  <rdf:RDF>
   <cc:Work rdf:about="">
    <dc:format>image/svg+xml</dc:format>
    <dc:type rdf:resource="http://purl.org/dc/dcmitype/StillImage"/>
    <dc:title/>
   </cc:Work>
  </rdf:RDF>
 </metadata>
 <g transform="matrix(0.52272728,0,0,0.52272728,13.416121,14.7772)">
  <g transform="matrix(0.97931599,0,0,0.97931599,1.8688905,1.8688894)">
   <a transform="matrix(0.21475032,0,0,0.21475032,29.550695,-2.0838669)">
    <g style="letter-spacing:0px;word-spacing:0px;" font-weight="bold" transform="translate(318.08825,9.1735702)" font-stretch="normal" line-height="125%" font-size="40px" font-variant="normal" font-family="Liberation Mono" font-style="normal" fill="#000">
     <path d="M293.28,0.28125c-161.84,0-293.22,131.38-293.22,293.22s131.38,293.22,293.22,293.22,293.22-131.38,293.22-293.22c0-14.719-1.0902-29.174-3.1875-43.312-1.15-6.33-2.31-12.65-3.47-18.97-28.59-131.96-146.09-230.94-286.56-230.94zm0,16.969c115.63,0,214.55,70.9,255.75,171.62-5.1182-0.50703-10.786-0.74986-17.031-0.75-8.582,0.00015-15.576,1.0588-21.031,3.1875-5.4552,2.0625-9.7483,4.7363-12.875,8.0625-3.1268,3.3264-5.3026,7.063-6.5,11.188-1.131,4.1248-1.6875,8.2505-1.6875,12.375v8.2812h-25.562v18.969h25.562v237.41c-48.4,49.01-115.01,80-188.91,82.02v-153.88c0.0375-7.0067-3.8645-13.895-9.8438-17.375l-54.094-38.75,30.25-116.69,22.531,39.875c3.4221,5.924,10.057,9.7875,16.812,9.8125h75.875c5.1282-0.003,10.219-2.1546,13.844-5.8438,3.6252-3.6892,5.7188-8.8779,5.7188-14.094,0-5.2159-2.0935-10.405-5.7188-14.094-3.6252-3.6892-8.7155-5.8409-13.844-5.8438h-64.688l-28-48.5c-12.542-18.307-32.593-26.573-52.031-27h-86c-4.1642-0.00024-8.3125,1.4131-11.656,3.9375-3.3438,2.5244-5.8571,6.1647-7.0625,10.219l-23.85,79.21c-1.7853,5.0482-1.4524,10.826,0.90625,15.625,2.3587,4.7985,6.7083,8.5482,11.75,10.125s10.711,0.96535,15.312-1.6562c4.602-2.6216,8.0631-7.21,9.375-12.406l19.688-65.188h28.188c-20.097,74.367-40.849,154.39-59.938,225.72h-73.719c-27.707-43.03-43.79-94.28-43.79-149.32,0-152.67,123.58-276.25,276.25-276.25zm243.62,190.12c4.7898,0.00013,9.5265,0.19472,14.25,0.59375,1.729,0.12012,3.3802,0.26015,5.0312,0.40625,2.4152,7.4748,4.5317,15.105,6.3125,22.844h-44.656v-5.6875c-0.00006-2.794,0.24898-5.2733,0.78125-7.4688,0.53214-2.2618,1.5091-4.1573,2.9062-5.6875,1.4635-1.5965,3.4135-2.8538,5.875-3.7188,2.4614-0.86471,5.6414-1.2811,9.5-1.2812zm-19.062,42.812,48.312,0c2.2179,14.11,3.375,28.575,3.375,43.312,0,60.096-19.156,115.68-51.688,161zm-326.16,130.41,70.219,46.75,0,140.62c-66.835-7.5428-126.41-38.889-170.06-85.375h57.562c8.5139,0.0253,16.652-6.2747,18.906-14.625,7.7228-29.143,15.751-58.206,23.375-87.375z" transform="matrix(1.1254164,0,0,1.1254164,-365.01536,90.961704)"/>
    </g>
   </a>
   <path style="baseline-shift:baseline;block-progression:tb;color:#000000;direction:ltr;text-indent:0;text-align:start;enable-background:accumulate;text-transform:none;" fill="#000000" d="m82.646,40.586c-2.577-0.07556-5.1687,0.93232-7.0176,2.7291s-2.9305,4.3586-2.9287,6.9367c0.000743,2.5296,1.0429,5.0432,2.8319,6.8316s4.303,2.8294,6.8326,2.8294,5.0436-1.0411,6.8326-2.8294c1.789-1.7884,2.831-4.302,2.8319-6.8316,0.0017-2.4842-0.9992-4.9548-2.7295-6.7373s-4.17-2.8564-6.6531-2.9285z"/>
   <path style="baseline-shift:baseline;block-progression:tb;color:#000000;direction:ltr;text-indent:0;text-align:start;enable-background:accumulate;text-transform:none;" fill="#000000" d="m127.14,57.473-0.86086,1.7268-8.0346,16.101-18.006,0-1.9369,0,0,1.97,0,0.38914,0,1.97,1.9369,0,18.7,0,1.9369,0,0.86085-1.7268,8.3455-16.733,0.88477-1.7754-1.7456-0.89988-0.35869-0.17024z"/>
  </g>
  <g transform="matrix(1.0218247,0,0,1.0218247,-1.9719611,0.63184876)">
   <path fill="none" d="m28.632,76.508c0,29.552-23.957,53.509-53.509,53.509s-53.509-23.957-53.509-53.509,23.957-53.509,53.509-53.509,53.509,23.957,53.509,53.509z" transform="matrix(1.3780903,0,0,1.3780903,124.63678,-15.080363)"/>
   <g style="letter-spacing:0px;word-spacing:0px;" font-family="Sans" font-size="8px" line-height="125%" font-style="normal" font-weight="normal" fill="#000">
    <path d="m51.613,21.103,0.467,0.7903-0.66587,0.39348c-0.17039,0.10069-0.27067,0.2023-0.30083,0.30481-0.03149,0.10028-0.0022,0.22665,0.0879,0.3791l0.15501,0.26231,1.0291-0.6081,0.50874,0.86092-1.0291,0.6081,1.717,2.9056-1.2039,0.71144-1.717-2.9056-0.59861,0.35373-0.50874-0.86092,0.59861-0.35373-0.15501-0.26231c-0.24244-0.41028-0.30696-0.78051-0.19354-1.1107,0.1121-0.33242,0.40804-0.64039,0.88782-0.92391l0.92146-0.54451"/>
    <path d="m52.637,20.793,1.5017-0.75243,3.6882,2.6261-1.7918-3.5762,1.2747-0.63869,2.6125,5.2142-1.5017,0.75243-3.6882-2.6261,1.7918,3.5762-1.2747,0.63869-2.6125-5.2142"/>
    <path d="m61.822,19.116c-0.28764,0.11532-0.46593,0.30745-0.53487,0.57637-0.06749,0.26554-0.02323,0.59289,0.1328,0.98205,0.15602,0.38916,0.35063,0.65764,0.58384,0.80543,0.23465,0.14441,0.4958,0.15895,0.78344,0.04363,0.2828-0.11338,0.45795-0.30284,0.52544-0.56838,0.06652-0.26795,0.02177-0.59651-0.13425-0.98568-0.15602-0.38916-0.35015-0.65642-0.58238-0.8018-0.2332-0.14779-0.49121-0.16499-0.77401-0.05161m-0.37213-0.92818c0.69855-0.28006,1.3192-0.31005,1.862-0.08997,0.54517,0.21912,0.95148,0.66224,1.219,1.3294,0.26746,0.66714,0.27979,1.2682,0.03697,1.8032-0.2404,0.53407-0.70988,0.94113-1.4084,1.2212-0.70097,0.28103-1.3253,0.31248-1.8728,0.09433-0.54517-0.21911-0.95149-0.66224-1.219-1.3294-0.26746-0.66713-0.27979-1.2682-0.03697-1.8032,0.24524-0.536,0.71834-0.94452,1.4193-1.2256"/>
    <path d="m68.381,17.112c-0.13416-0.01632-0.26344-0.01779-0.38786-0.0044-0.12276,0.01009-0.24229,0.0342-0.3586,0.07231-0.3415,0.11193-0.56896,0.30844-0.68237,0.5895-0.11175,0.27779-0.10071,0.62084,0.03312,1.0292l0.62778,1.9154-1.3289,0.43555-1.3626-4.1574,1.3289-0.43555,0.22386,0.683c0.08153-0.32817,0.21214-0.59022,0.39183-0.78614,0.18135-0.1992,0.42669-0.34949,0.73602-0.45088,0.04454-0.01459,0.09361-0.02794,0.1472-0.04003,0.05278-0.01455,0.13069-0.03187,0.23373-0.05194l0.3979,1.2015"/>
    <path d="m71.973,15.585-0.58106-2.2706,1.3623-0.34863,1.5069,5.8884-1.3623,0.34863-0.15688-0.61306c-0.12278,0.29754-0.28159,0.53307-0.47642,0.70658-0.19484,0.17351-0.43984,0.29804-0.73502,0.37357-0.52224,0.13364-1.0041,0.03652-1.4455-0.29136-0.44207-0.3304-0.74671-0.82232-0.91392-1.4757-0.16722-0.65342-0.13599-1.2299,0.09367-1.7296,0.22901-0.50214,0.60464-0.82003,1.1269-0.95368,0.29265-0.07489,0.56642-0.08178,0.8213-0.02067,0.25675,0.05795,0.51011,0.18666,0.76008,0.38612m-0.19098,2.9722c0.29013-0.07425,0.48376-0.2367,0.5809-0.48736,0.09966-0.2513,0.09784-0.57878-0.0055-0.98244-0.1033-0.40366-0.25902-0.69175-0.46714-0.8643-0.20561-0.17318-0.45347-0.22265-0.7436-0.14841-0.28761,0.0736-0.48124,0.23606-0.5809,0.48736-0.09714,0.25066-0.09406,0.57782,0.0092,0.98148,0.1033,0.40366,0.25775,0.69208,0.46335,0.86526,0.20812,0.17254,0.45599,0.22201,0.7436,0.14841"/>
    <path d="m79.467,15.659,0.06916,0.39239-3.2199,0.56749c0.09029,0.31727,0.2497,0.53906,0.47822,0.66538s0.5223,0.15784,0.88135,0.09455c0.2898-0.05107,0.57856-0.1456,0.86627-0.28357,0.28982-0.14098,0.57965-0.32692,0.8695-0.55782l0.18713,1.0618c-0.30402,0.18051-0.61345,0.33024-0.92831,0.44919-0.31441,0.12152-0.63447,0.21098-0.96018,0.26839-0.77965,0.13741-1.421,0.04683-1.924-0.27174-0.50092-0.32158-0.81443-0.84014-0.94054-1.5557-0.12385-0.70271-0.0097-1.2927,0.34253-1.7699,0.35477-0.47768,0.90402-0.78206,1.6478-0.91314,0.67706-0.11932,1.2541-0.01081,1.7312,0.32555,0.47964,0.33591,0.77958,0.84497,0.89982,1.5272m-1.4964-0.20828c-0.04611-0.26159-0.16011-0.45833-0.34201-0.59022-0.17979-0.1349-0.39279-0.18066-0.63899-0.13727-0.26672,0.04701-0.4701,0.16086-0.61013,0.34155-0.14049,0.17813-0.20639,0.41187-0.1977,0.70121l1.7888-0.31527"/>
    <path d="m80.353,13.375,1.3886-0.16596,0.51922,4.3441-1.3886,0.16596-0.51922-4.3441m-0.20212-1.6911,1.3886-0.16596,0.13537,1.1326-1.3886,0.16596-0.13537-1.1326"/>
    <path d="m87.8,14.461,0.165,2.6589-1.4036,0.0871-0.02686-0.43276-0.09944-1.6024c-0.02339-0.37688-0.04862-0.63623-0.07568-0.77806-0.02447-0.14198-0.05959-0.24548-0.10537-0.31048-0.06023-0.08758-0.13866-0.15316-0.23529-0.19674-0.0968-0.04617-0.20498-0.06555-0.32454-0.05814-0.29111,0.01807-0.51282,0.14533-0.66513,0.38177-0.15248,0.23385-0.21638,0.54962-0.1917,0.94728l0.13331,2.1482-1.3958,0.08661-0.27098-4.3666,1.3958-0.08662,0.03968,0.6394c0.19472-0.26778,0.40664-0.46879,0.63574-0.60303,0.22894-0.13684,0.48637-0.21412,0.77228-0.23187,0.50423-0.03129,0.89591,0.09965,1.175,0.39282,0.28171,0.29301,0.44087,0.73452,0.47749,1.3245"/>
    <path d="m92.221,16.392c-0.19637,0.2524-0.41129,0.43683-0.64476,0.55326-0.23348,0.11644-0.50254,0.17246-0.80719,0.16807-0.5338-0.0077-0.97214-0.22367-1.315-0.64792-0.34284-0.42686-0.50957-0.96578-0.50019-1.6168,0.0094-0.65358,0.19159-1.1862,0.54652-1.5978,0.35496-0.41419,0.79934-0.61745,1.3331-0.60976,0.30465,0.0044,0.57199,0.06815,0.80201,0.19127s0.43951,0.31496,0.62849,0.57552l0.0093-0.64837,1.4061,0.02027-0.05669,3.9332c-0.01014,0.70305-0.2405,1.2362-0.69109,1.5996-0.44803,0.36598-1.0939,0.54288-1.9375,0.53072-0.27341-0.0039-0.53741-0.02858-0.79198-0.07392-0.25458-0.04534-0.51015-0.11283-0.76669-0.20248l0.01571-1.0897c0.24274,0.14414,0.4808,0.25175,0.71417,0.32283,0.23334,0.07368,0.46848,0.11223,0.70544,0.11565,0.45828,0.0066,0.79563-0.0888,1.012-0.28623,0.21641-0.19742,0.32769-0.50965,0.33385-0.93669l0.0043-0.30075m-0.88254-2.7357c-0.28904-0.0042-0.51581,0.09935-0.68033,0.31054-0.16452,0.2112-0.2496,0.51208-0.25522,0.90266-0.0058,0.401,0.06794,0.70678,0.22118,0.91735,0.15327,0.20796,0.37962,0.3141,0.67908,0.31841,0.29163,0.0042,0.51971-0.09929,0.68423-0.31048s0.24957-0.51078,0.25517-0.89876c0.0056-0.39058-0.07074-0.6938-0.2291-0.90965-0.15837-0.21584-0.38337-0.32587-0.675-0.33007"/>
    <path d="m97.058,15.441c-0.29051-0.02595-0.51409,0.0038-0.67074,0.08912-0.15406,0.08559-0.23966,0.22436-0.2568,0.4163-0.01576,0.17638,0.03021,0.32036,0.1379,0.43195,0.11051,0.10922,0.27082,0.17322,0.48092,0.19198,0.26198,0.0234,0.49079-0.05028,0.68645-0.22106,0.19588-0.17336,0.30646-0.40141,0.33171-0.68414l0.01425-0.15952-0.72368-0.06464m2.1752-0.33516-0.22207,2.4862-1.4046-0.12546,0.05769-0.64587c-0.21039,0.24789-0.43775,0.42236-0.68208,0.52342-0.2441,0.09847-0.53346,0.13275-0.86806,0.10287-0.45133-0.04031-0.80666-0.20408-1.066-0.49132-0.2565-0.28959-0.36599-0.64449-0.32846-1.0647,0.04564-0.51098,0.2542-0.87016,0.62569-1.0775,0.37408-0.20712,0.93722-0.27709,1.6894-0.2099l0.82095,0.07333,0.0097-0.10894c0.01969-0.22047-0.05284-0.38905-0.21759-0.50574-0.16452-0.11927-0.43095-0.19536-0.79927-0.22826-0.29829-0.02664-0.5785-0.0216-0.84062,0.01512-0.26212,0.03673-0.50875,0.1049-0.73988,0.20452l0.09487-1.0622c0.30478-0.04598,0.60923-0.07369,0.91336-0.08313,0.30436-0.01203,0.60698-0.0046,0.90787,0.02226,0.78593,0.0702,1.3388,0.27646,1.6586,0.61876,0.32259,0.33995,0.45273,0.85879,0.39041,1.5565"/>
    <path d="m105.05,15.839-0.43584,2.6282-1.3873-0.23006,0.0709-0.42775,0.26265-1.5838c0.0618-0.37252,0.0954-0.63091,0.10084-0.7752,0.008-0.14385-0.003-0.25259-0.033-0.3262-0.039-0.09886-0.10076-0.18037-0.18515-0.24452-0.084-0.06672-0.18504-0.10988-0.30321-0.12948-0.28774-0.04771-0.53235,0.02655-0.73384,0.22279-0.20106,0.19368-0.33418,0.48705-0.39936,0.88012l-0.35213,2.1233-1.3796-0.22878,0.71575-4.3161,1.3796,0.22878-0.1048,0.63199c0.24984-0.21726,0.50146-0.36559,0.75484-0.445,0.25381-0.08197,0.52201-0.09953,0.80462-0.05267,0.49839,0.08266,0.8507,0.29814,1.0569,0.64646,0.20878,0.34875,0.26481,0.81472,0.1681,1.3979"/>
    <path d="m108.92,18.718c-0.24832,0.20152-0.49934,0.33262-0.75308,0.3933-0.25375,0.06068-0.52851,0.05447-0.8243-0.01863-0.51826-0.12809-0.89647-0.43751-1.1346-0.92826-0.23754-0.49328-0.27821-1.0559-0.12201-1.688,0.15683-0.63455,0.45462-1.1122,0.89336-1.433,0.43936-0.32329,0.91817-0.4209,1.4364-0.29281,0.29578,0.07311,0.54181,0.19561,0.73807,0.36751,0.19625,0.1719,0.35699,0.40612,0.48222,0.70263l0.15558-0.6295,1.3652,0.33741-0.9438,3.8187c-0.1687,0.68258-0.51357,1.15-1.0346,1.4021-0.51914,0.2553-1.1882,0.28172-2.0074,0.07928-0.26545-0.06561-0.51706-0.14925-0.75481-0.25093-0.23776-0.10168-0.47147-0.22517-0.70113-0.37045l0.26149-1.058c0.2039,0.19525,0.41149,0.35386,0.62278,0.47582,0.21065,0.12449,0.43101,0.21517,0.66107,0.27203,0.44494,0.10997,0.79512,0.09324,1.0505-0.05019,0.25541-0.14343,0.43436-0.42245,0.53683-0.83705l0.0722-0.292m-0.24169-2.8643c-0.28062-0.06935-0.52492-0.01975-0.7329,0.14881-0.20798,0.16857-0.35883,0.44246-0.45255,0.82167-0.0962,0.38933-0.0935,0.70386,0.008,0.9436,0.10232,0.23721,0.29885,0.39174,0.58958,0.4636,0.28314,0.06998,0.5287,0.02069,0.73669-0.14788,0.20797-0.16856,0.35851-0.44119,0.45161-0.81788,0.0937-0.37921,0.0878-0.69184-0.0177-0.93789-0.10551-0.24604-0.29984-0.40405-0.58298-0.47404"/>
    <path d="m118.86,20.45-0.13906,0.37338-3.0639-1.1411c-0.0828,0.31931-0.0576,0.59128,0.0754,0.81592,0.13309,0.22464,0.37046,0.40058,0.71212,0.52783,0.27576,0.10271,0.57263,0.16742,0.89059,0.19414,0.32131,0.02519,0.66539,0.01161,1.0322-0.04072l-0.37629,1.0103c-0.35356,0.0017-0.69621-0.02587-1.028-0.08273-0.33265-0.05442-0.65394-0.13935-0.96387-0.25478-0.74189-0.27631-1.249-0.67918-1.5215-1.2086-0.2691-0.53096-0.27686-1.1369-0.0233-1.8177,0.24904-0.66867,0.64624-1.1196,1.1916-1.3528,0.5478-0.23226,1.1756-0.2166,1.8833,0.04698,0.64426,0.23996,1.0869,0.62575,1.328,1.1574,0.2435,0.53254,0.24437,1.1234,0.003,1.7725m-1.1849-0.93733c0.0927-0.24892,0.094-0.4763,0.004-0.68214-0.0867-0.20737-0.24723-0.35468-0.4815-0.44194-0.25381-0.09453-0.48683-0.09934-0.69908-0.01444-0.21135,0.08247-0.38653,0.25065-0.52556,0.50455l1.7022,0.63397"/>
    <path d="m119.77,21.611,1.2873,0.56613-0.60859,1.3838-1.2873-0.56613,0.60859-1.3838"/>
    <path d="m123.87,18.673,1.3477,0.68492-0.57134,4.5384,3.3258-3.1384,1.3477,0.68492-4.5681,4.2204-1.5984-0.81234,0.71661-6.1778"/>
    <path d="m127.22,25.306,1.2162,0.706-0.75895,1.3074-1.2162-0.706,0.75895-1.3074"/>
   </g>
  </g>
  <g transform="matrix(1.0218247,0,0,1.0218247,-1.9719611,-4.0828702)">
   <path fill="none" d="m28.632,76.508c0,29.552-23.957,53.509-53.509,53.509s-53.509-23.957-53.509-53.509,23.957-53.509,53.509-53.509,53.509,23.957,53.509,53.509z" transform="matrix(1.3780903,0,0,-1.3780903,124.63678,195.78903)"/>
   <g style="letter-spacing:0px;word-spacing:0px;" font-family="Sans" font-size="8px" line-height="0%" font-style="normal" font-weight="bold" fill="#000">
    <path d="m46.986,151.68-1.6033,2.1276-1.1231-0.8463,0.26094-0.34628,0.9615-1.276c0.23038-0.30572,0.38139-0.52127,0.45303-0.64662,0.07371-0.1238,0.11431-0.22527,0.12179-0.30442,0.01117-0.1057-0.0058-0.20652-0.05087-0.30246-0.04353-0.098-0.11313-0.18307-0.2088-0.25516-0.23294-0.17553-0.48413-0.22297-0.75358-0.14234-0.26789,0.0786-0.52173,0.27694-0.76151,0.59515l-1.2953,1.7189-1.1168-0.84161,3.6579-4.8542,1.1168,0.8416-1.4105,1.8718c0.32205-0.0769,0.61375-0.0918,0.8751-0.0449,0.26291,0.0449,0.50876,0.1535,0.73754,0.32589,0.40347,0.30405,0.61595,0.65818,0.63743,1.0624,0.02355,0.40579-0.14255,0.84473-0.49831,1.3168"/>
    <path d="m51.04,150.83-0.68212,1.0381,1.2046,0.79152-0.54913,0.83574-1.2046-0.79152-1.0189,1.5507c-0.11154,0.16976-0.1536,0.30727-0.12617,0.41254,0.02886,0.1031,0.1434,0.22043,0.34363,0.35199l0.60068,0.39469-0.54913,0.83573-1.0022-0.65853c-0.4614-0.30316-0.72602-0.61414-0.79388-0.93294-0.06425-0.31954,0.05521-0.71001,0.35837-1.1714l1.0189-1.5507-0.5811-0.38181,0.54913-0.83574,0.5811,0.38182,0.68212-1.0381,1.1687,0.76792"/>
    <path d="m54.229,152.79-0.62735,1.0721,1.2441,0.72796-0.50504,0.8631-1.2441-0.72796-0.93708,1.6014c-0.10259,0.17532-0.13746,0.31483-0.1046,0.41854,0.03416,0.10145,0.15464,0.21268,0.36142,0.33368l0.62035,0.363-0.50504,0.8631-1.035-0.60566c-0.4765-0.27882-0.7569-0.57566-0.84121-0.8905-0.08074-0.31578,0.0183-0.71192,0.29713-1.1884l0.93708-1.6014-0.60012-0.35116,0.50504-0.8631,0.60012,0.35116,0.62735-1.0721,1.207,0.70626"/>
    <path d="m55.148,158.98-1.0288,2.0536-1.2503-0.62638,2.705-5.3994,1.2503,0.62638-0.28695,0.57277c0.2866-0.14186,0.56151-0.21385,0.82472-0.21597,0.26437-0.004,0.53276,0.0616,0.80518,0.19803,0.48196,0.24146,0.78154,0.63184,0.89875,1.1712,0.11836,0.53698,0.02649,1.107-0.27561,1.71-0.30212,0.60303-0.70424,1.0191-1.2064,1.2481-0.50097,0.22671-0.99243,0.21934-1.4744-0.0221-0.27242-0.13647-0.48657-0.31075-0.64246-0.52283-0.15473-0.21441-0.26108-0.47887-0.31906-0.79336m2.0997-2.1156c-0.26776-0.13414-0.52339-0.13841-0.76689-0.0128-0.24001,0.12443-0.45275,0.37174-0.63821,0.74195-0.18547,0.3702-0.25676,0.68983-0.21388,0.95889,0.04637,0.2679,0.20344,0.46892,0.4712,0.60306,0.26775,0.13414,0.52047,0.13842,0.75816,0.0128,0.24-0.12443,0.45333-0.37291,0.63996-0.74544s0.25792-0.69216,0.21388-0.9589c-0.04172-0.26556-0.19646-0.46541-0.46421-0.59956"/>
    <path d="m60.92,157.58,1.2969,0.55373-0.59361,1.3903-1.2969-0.55373,0.59361-1.3903m-1.1243,2.6333,1.2969,0.55374-0.59361,1.3903-1.2969-0.55373,0.59361-1.3903"/>
    <path d="m65.467,157.84,0.81107,0.30689-4.2519,5.4203-0.80742-0.30551,4.2483-5.4216"/>
    <path d="m68.159,158.77,0.82267,0.27427-4.0322,5.5857-0.81897-0.27304,4.0285-5.5869"/>
    <path d="m72.385,159.77-0.25194,0.88272-0.74374-0.21227c-0.19032-0.0543-0.33305-0.0571-0.42818-0.008-0.09443,0.0462-0.16594,0.1544-0.21453,0.32468l-0.08362,0.29299,1.1494,0.32805-0.27445,0.9616-1.1494-0.32805-0.92627,3.2454-1.3447-0.3838,0.92627-3.2454-0.66861-0.19083,0.27445-0.9616,0.66861,0.19082,0.08362-0.29298c0.13079-0.45826,0.35499-0.75987,0.6726-0.90484,0.31832-0.14746,0.74542-0.14472,1.2813,0.008l1.0292,0.29375"/>
    <path d="m76.412,164.17-0.56911,2.6026-1.3738-0.30041,0.09263-0.42359,0.34297-1.5684c0.08066-0.36889,0.12739-0.62524,0.14018-0.76906,0.01533-0.14326,0.0099-0.25241-0.01636-0.32746-0.03396-0.10072-0.09144-0.18527-0.17246-0.25363-0.08046-0.0709-0.17921-0.11916-0.29623-0.14475-0.28494-0.0623-0.53301-0.0006-0.74423,0.18513-0.21066,0.18319-0.35855,0.4694-0.44367,0.85864l-0.45979,2.1027-1.3662-0.29875,0.93461-4.274,1.3662,0.29874-0.13685,0.62584c0.26058-0.20426,0.51943-0.33959,0.77653-0.40599,0.25765-0.0689,0.5264-0.0728,0.80625-0.0116,0.49354,0.10793,0.83442,0.34108,1.0226,0.69945,0.19074,0.35893,0.22297,0.82715,0.0967,1.4046"/>
    <path d="m79.975,163.89c-0.30691-0.043-0.55712,0.0351-0.75064,0.23416-0.19058,0.19684-0.31493,0.50287-0.37304,0.91809-0.05811,0.41523-0.02274,0.74493,0.10612,0.9891,0.1318,0.24196,0.35115,0.38441,0.65806,0.42736,0.30174,0.0422,0.54791-0.0351,0.73849-0.23191,0.19094-0.19942,0.31546-0.50674,0.37358-0.92197,0.05811-0.41522,0.02255-0.74363-0.10666-0.98523-0.12886-0.24417-0.34417-0.38737-0.64591-0.4296m0.1386-0.99035c0.74534,0.10431,1.2988,0.38687,1.6603,0.84766,0.36407,0.46117,0.4963,1.0476,0.39669,1.7595-0.09962,0.71181-0.38778,1.2395-0.86446,1.583-0.47411,0.34386-1.0838,0.46363-1.8292,0.35932-0.74792-0.10467-1.3052-0.38777-1.6719-0.84929-0.36408-0.46116-0.49631-1.0476-0.39669-1.7595,0.09962-0.71181,0.38777-1.2395,0.86446-1.583,0.47926-0.34313,1.0929-0.46236,1.8408-0.35769"/>
    <path d="m86.62,164.84c-0.11775-0.0663-0.23668-0.11705-0.35677-0.15221-0.11731-0.0376-0.23698-0.0609-0.35903-0.0701-0.35836-0.027-0.64362,0.0678-0.85578,0.28421-0.20937,0.21406-0.33018,0.53532-0.36244,0.9638l-0.15132,2.0099-1.3945-0.10498,0.32844-4.3626,1.3945,0.10498-0.05396,0.71672c0.20068-0.27216,0.42147-0.46446,0.66237-0.5769,0.24368-0.11484,0.52782-0.16004,0.85243-0.13561,0.04674,0.004,0.09718,0.01,0.15133,0.0192,0.05433,0.007,0.13295,0.0205,0.23585,0.0413l-0.09112,1.2623"/>
    <path d="m90.358,164.36,0.02418-2.3436,1.4062,0.0145-0.06271,6.0778-1.4062-0.0145,0.0065-0.63278c-0.19536,0.25581-0.40954,0.44241-0.64253,0.5598-0.233,0.1174-0.50183,0.17452-0.8065,0.17138-0.53904-0.006-0.97952-0.22366-1.3214-0.6543-0.3419-0.43323-0.50937-0.98707-0.50241-1.6615,0.007-0.67444,0.18581-1.2234,0.53655-1.6469,0.35077-0.42609,0.79567-0.63636,1.3347-0.6308,0.30206,0.003,0.56835,0.0671,0.79884,0.19185,0.23312,0.12221,0.44472,0.3119,0.63479,0.56908m-0.95105,2.8224c0.29946,0.003,0.52844-0.10393,0.68694-0.32106,0.1611-0.21709,0.2438-0.53397,0.2481-0.95061s-0.07185-0.73515-0.22843-0.95553c-0.15399-0.22035-0.38071-0.33207-0.68017-0.33517-0.29686-0.003-0.52584,0.10396-0.68694,0.32106-0.1585,0.21713-0.2399,0.53401-0.2442,0.95065-0.0043,0.41665,0.07054,0.73515,0.22453,0.9555,0.15659,0.22038,0.38331,0.3321,0.68017,0.33516"/>
    <path d="m97.594,165.59,0.02557,0.39762-3.2628,0.20979c0.05484,0.32528,0.18887,0.56326,0.40211,0.71395,0.21323,0.15069,0.50176,0.21434,0.8656,0.19095,0.29366-0.0189,0.59107-0.0811,0.89221-0.18654,0.30357-0.10825,0.6121-0.26117,0.9256-0.45878l0.06918,1.0759c-0.32203,0.14596-0.64606,0.26074-0.9721,0.34433-0.32587,0.0862-0.65383,0.1399-0.98388,0.16112-0.79004,0.0508-1.4175-0.10979-1.8824-0.48177-0.4625-0.37474-0.71706-0.92464-0.76368-1.6497-0.04578-0.71207,0.13261-1.2859,0.53518-1.7215,0.40517-0.43575,0.98457-0.67785,1.7382-0.72631,0.68608-0.0441,1.2477,0.12724,1.6849,0.51404,0.43977,0.38664,0.68189,0.9256,0.72634,1.6169m-1.4644-0.37165c-0.01705-0.26507-0.10871-0.47316-0.275-0.62426-0.16386-0.15386-0.37053-0.22278-0.62001-0.20674-0.27028,0.0174-0.48495,0.10817-0.64401,0.27235-0.15923,0.1616-0.25045,0.38667-0.27365,0.6752l1.8127-0.11655"/>
    <path d="m98.481,163.28,1.3885-0.16645,0.52074,4.3439-1.3885,0.16645-0.52074-4.3439m-0.20272-1.691,1.3885-0.16645,0.13576,1.1325-1.3885,0.16645-0.13576-1.1325"/>
    <path d="m105.82,163.87,0.46834,2.6226-1.3844,0.24722-0.0762-0.42684-0.28224-1.5805c-0.0664-0.37172-0.12114-0.62648-0.16426-0.76428-0.0406-0.13825-0.0873-0.23704-0.14022-0.29637-0.0699-0.0801-0.15529-0.13628-0.25627-0.16851-0.10145-0.0348-0.21114-0.0416-0.32906-0.0206-0.28713,0.0513-0.49281,0.20309-0.61705,0.45542-0.1247,0.24977-0.15203,0.57077-0.082,0.963l0.37838,2.1188-1.3767,0.24585-0.76912-4.3069,1.3767-0.24584,0.11262,0.63065c0.16278-0.28831,0.35029-0.51227,0.56252-0.67186,0.21177-0.16214,0.45865-0.2684,0.74065-0.31876,0.49734-0.0888,0.90143-0.004,1.2123,0.25571,0.3134,0.25883,0.52207,0.67922,0.626,1.2612"/>
    <path d="m110.56,164.68c-0.12218,0.29553-0.28033,0.53046-0.47443,0.70479-0.19411,0.17433-0.43859,0.29988-0.73345,0.37665-0.51663,0.13452-0.99661,0.0429-1.44-0.27493-0.444-0.32033-0.74803-0.79552-0.91207-1.4256-0.16471-0.63255-0.13071-1.1944,0.102-1.6856,0.23205-0.49367,0.60639-0.80777,1.123-0.94229,0.29485-0.0768,0.56952-0.0864,0.824-0.0289,0.25447,0.0575,0.50744,0.18676,0.75889,0.38769l-0.16339-0.62751,1.3609-0.35435,0.99119,3.8067c0.17717,0.68044,0.0969,1.2557-0.24089,1.7258-0.33459,0.47193-0.91014,0.8142-1.7267,1.0268-0.26461,0.0689-0.52566,0.11534-0.78313,0.13933-0.25747,0.024-0.52178,0.0269-0.79293,0.009l-0.27461-1.0547c0.27232,0.0744,0.53042,0.11484,0.7743,0.1213,0.24452,0.009,0.48145-0.0164,0.71079-0.0761,0.44354-0.11549,0.74337-0.29716,0.8995-0.54502,0.15612-0.24786,0.18038-0.57844,0.0728-0.99174l-0.0758-0.29108m-1.5782-2.4025c-0.27974,0.0728-0.47082,0.23293-0.57326,0.48026-0.10244,0.24734-0.10445,0.56002-0.006,0.93803,0.10105,0.38811,0.25343,0.66328,0.45714,0.82551,0.20304,0.15972,0.44948,0.20185,0.73929,0.12639,0.28226-0.0735,0.4746-0.23391,0.57705-0.48125,0.10244-0.24733,0.10477-0.55875,0.007-0.93425-0.0984-0.37802-0.25268-0.65001-0.46273-0.81598-0.21006-0.16596-0.45622-0.2122-0.73847-0.13871"/>
    <path d="m114.91,162.06c-0.27585,0.0948-0.46789,0.21303-0.57613,0.35484-0.10578,0.14097-0.12737,0.30258-0.0648,0.48484,0.0575,0.16748,0.1582,0.28021,0.30203,0.33819,0.14544,0.0547,0.31791,0.0478,0.51741-0.0208,0.24875-0.0854,0.42764-0.24602,0.53668-0.48172,0.10818-0.23816,0.11617-0.49148,0.024-0.75994l-0.052-0.15147-0.68716,0.23602m1.8495-1.1928,0.81085,2.3607-1.3337,0.45809-0.21065-0.61327c-0.091,0.31213-0.22752,0.56414-0.40942,0.75603-0.18275,0.18943-0.43298,0.33871-0.7507,0.44784-0.42855,0.1472-0.81978,0.14253-1.1737-0.014-0.35228-0.15986-0.59695-0.43928-0.73399-0.83828-0.16666-0.48519-0.12265-0.89819,0.13201-1.239,0.25713-0.34164,0.74282-0.63513,1.4571-0.88046l0.77951-0.26775-0.0355-0.10344c-0.0719-0.20934-0.20686-0.33371-0.40487-0.37308-0.19886-0.0418-0.47315-0.003-0.82289,0.11743-0.28324,0.0973-0.53704,0.21613-0.76141,0.35652-0.22438,0.1404-0.42178,0.3032-0.59222,0.4884l-0.34642-1.0086c0.25955-0.16624,0.52626-0.31567,0.80011-0.44829,0.27301-0.13507,0.55237-0.25167,0.83807-0.34981,0.74627-0.25632,1.3352-0.29339,1.7667-0.1112,0.43317,0.17889,0.76353,0.59959,0.9911,1.2621"/>
    <path d="m122.07,158.46,1.0539,2.4468-1.2915,0.55629-0.17153-0.39822-0.6351-1.4745c-0.14938-0.3468-0.26076-0.58237-0.33416-0.70671-0.071-0.12536-0.13905-0.21089-0.2041-0.2566-0.0863-0.0621-0.18226-0.0973-0.28794-0.10565-0.1067-0.0107-0.21507,0.008-0.32508,0.055-0.26788,0.11538-0.43354,0.31008-0.49699,0.58409-0.0645,0.27162-0.0179,0.5904,0.13971,0.95633l0.85144,1.9768-1.2844,0.5532-1.7307-4.0181,1.2844-0.5532,0.25342,0.58837c0.0928-0.31783,0.22429-0.57863,0.39456-0.7824,0.16922-0.20615,0.38539-0.36589,0.64848-0.47922,0.46399-0.19984,0.87687-0.20897,1.2386-0.0274,0.36416,0.18058,0.66316,0.54233,0.89701,1.0852"/>
    <path d="m126.87,158.16c-0.0516,0.3156-0.15209,0.58038-0.30136,0.79435-0.14929,0.21397-0.35873,0.39193-0.62833,0.53387-0.47239,0.2487-0.96063,0.26884-1.4647,0.0604-0.50531-0.21074-0.90961-0.60414-1.2129-1.1802-0.3045-0.57838-0.39942-1.1332-0.28475-1.6645,0.11346-0.53355,0.40638-0.92469,0.87876-1.1734,0.26961-0.14194,0.53486-0.21389,0.79575-0.21587,0.26089-0.002,0.53665,0.0662,0.82727,0.20457l-0.30208-0.57378,1.2443-0.65511,1.8325,3.4807c0.32755,0.62217,0.38045,1.2006,0.15868,1.7352-0.21825,0.53576-0.70068,1.0002-1.4473,1.3932-0.24196,0.12738-0.48555,0.23209-0.73078,0.31411-0.24524,0.082-0.50194,0.14506-0.7701,0.18912l-0.50771-0.96435c0.28211,0.0104,0.54264-0.009,0.78157-0.0583,0.24014-0.047,0.46506-0.12565,0.67476-0.23605,0.40556-0.21352,0.65611-0.45874,0.75165-0.73565,0.0955-0.27691,0.0438-0.60432-0.15513-0.98223l-0.14012-0.26615m-2.0841-1.9797c-0.25578,0.13467-0.40536,0.33409-0.44875,0.59825-0.0434,0.26418,0.0259,0.56909,0.20789,0.91473,0.18682,0.35487,0.39789,0.58808,0.63321,0.69963,0.2341,0.10926,0.48365,0.0941,0.74864-0.0454,0.25809-0.13588,0.40882-0.3359,0.45221-0.60007,0.0434-0.26417-0.0253-0.56793-0.20606-0.91127-0.18198-0.34565-0.39414-0.57534-0.63649-0.68908s-0.49256-0.10267-0.75065,0.0332"/>
    <path d="m129.16,155.98,1.2031-0.72812,0.78273,1.2933-1.2031,0.72811-0.78273-1.2933"/>
    <path d="m132.96,150.88-1.3306-1.9295,1.1577-0.79833,3.4506,5.0037-1.1577,0.79833-0.35925-0.52095c-0.0123,0.32164-0.0798,0.59756-0.20262,0.82775-0.1228,0.23019-0.30961,0.43178-0.56043,0.60475-0.44378,0.30603-0.92946,0.38156-1.457,0.22659-0.52906-0.1571-0.98505-0.51328-1.368-1.0685-0.3829-0.55525-0.55302-1.107-0.51035-1.6552,0.0412-0.55036,0.28369-0.97855,0.72746-1.2846,0.24868-0.17149,0.50317-0.27265,0.76346-0.30347,0.26095-0.0344,0.54319-0.001,0.84671,0.0994m0.84884,2.8548c0.24654-0.17001,0.37203-0.38941,0.37648-0.6582,0.007-0.27026-0.10839-0.5769-0.34493-0.91992-0.23655-0.34301-0.4823-0.55946-0.73726-0.64937-0.25281-0.0914-0.50249-0.0521-0.74903,0.11796-0.2444,0.16854-0.36989,0.38794-0.37648,0.6582-0.004,0.26879,0.1116,0.57469,0.34815,0.9177,0.23654,0.34301,0.48122,0.56021,0.73403,0.65159,0.25496,0.0899,0.50464,0.0506,0.74904-0.11796"/>
    <path d="m139.58,147.7,0.25025,0.31004-2.5442,2.0535c0.23244,0.23407,0.4792,0.35115,0.74031,0.35123,0.26111,0.00009,0.53351-0.11436,0.81721-0.34335,0.22898-0.18483,0.43605-0.40718,0.62119-0.66706,0.18553-0.26353,0.34934-0.56643,0.49142-0.90868l0.67715,0.83894c-0.17885,0.305-0.37732,0.58567-0.59542,0.84203-0.21647,0.25839-0.45338,0.49144-0.71073,0.69916-0.61604,0.49724-1.2212,0.72803-1.8156,0.69238-0.59396-0.0393-1.1191-0.34165-1.5754-0.90703-0.44816-0.55524-0.63346-1.1269-0.5559-1.7149,0.0796-0.58966,0.41323-1.1217,1.0009-1.596,0.53498-0.4318,1.0926-0.61582,1.6728-0.55205,0.58226,0.0621,1.0909,0.36272,1.526,0.90175m-1.4106,0.54115c-0.16683-0.2067-0.36175-0.32379-0.58474-0.3513-0.2226-0.0312-0.43117,0.0318-0.62571,0.18879-0.21075,0.17011-0.33373,0.3681-0.36895,0.59397-0.0368,0.22385,0.0185,0.46031,0.16597,0.70939l1.4134-1.1408"/>
   </g>
  </g>
  <path d="m109.83,131.42c0,30.33-24.587,54.917-54.917,54.917-30.326,0-54.913-24.59-54.913-54.92s24.587-54.912,54.917-54.912,54.917,24.587,54.917,54.917z" transform="matrix(1.1841961,0,0,1.1841961,25.322238,-65.278028)" stroke="#000" stroke-miterlimit="4" stroke-width="2.9921627" fill="none"/>
 </g>
 <path stroke-linejoin="miter" d="m120.63,61.824a60.314,61.723,0,1,1,-120.63,0,60.314,61.723,0,1,1,120.63,0z" stroke="#000" stroke-linecap="butt" stroke-width="1px" fill="none"/>
</svg>
