<?xml version="1.0" encoding="UTF-8" standalone="no"?>
<!-- Created with Inkscape (http://www.inkscape.org/) -->
<svg xmlns:rdf="http://www.w3.org/1999/02/22-rdf-syntax-ns#" xmlns="http://www.w3.org/2000/svg" version="1.2" xmlns:cc="http://creativecommons.org/ns#" xmlns:dc="http://purl.org/dc/elements/1.1/" viewBox="0 0 1613.5 587">
 <defs></defs>
 <metadata>
  <rdf:RDF>
   <cc:Work rdf:about="">
    <dc:format>image/svg+xml</dc:format>
    <dc:type rdf:resource="http://purl.org/dc/dcmitype/StillImage"/>
    <dc:title/>
   </cc:Work>
  </rdf:RDF>
 </metadata>
 <path d="m-355.25-376.78z" stroke-miterlimit="4" stroke-width="0" fill="none"/>
 <path stroke-linejoin="miter" style="marker-end:none;marker-start:none;marker-mid:none;" d="m571.6,293.51a278.09,278.09,0,0,1,-556.18,0,278.09,278.09,0,1,1,556.18,0z" fill-opacity="0" stroke="#000" stroke-linecap="butt" stroke-miterlimit="4" stroke-dasharray="none" stroke-width="30.81699944"/>
 <a transform="translate(-31.06013,-125.78637)">
  <g style="letter-spacing:0px;word-spacing:0px;" font-weight="bold" transform="translate(318.08825,9.1735702)" font-stretch="normal" line-height="125%" font-size="40px" font-variant="normal" font-family="Liberation Mono" font-style="normal" fill="#000">
   <path d="m217.77,372.52,0,100.18-31.445,0,0-100.18-28.75,0,0-21.338,28.75,0,0-9.3213c-0.00004-4.6418,0.63635-9.2837,1.9092-13.926,1.3476-4.6418,3.7809-8.8345,7.2998-12.578,3.5188-3.7433,8.3479-6.7756,14.487-9.0967,6.1392-2.3957,14.038-3.5936,23.696-3.5938,7.6366,0.00017,14.525,0.33708,20.664,1.0107,6.2141,0.674,11.567,1.3853,16.06,2.1338v20.664c-4.7169-0.59881-9.7706-1.0855-15.161-1.46-5.3159-0.44907-10.669-0.67368-16.06-0.67383-4.3425,0.00015-7.8988,0.4868-10.669,1.46-2.7703,0.97346-4.9789,2.3586-6.626,4.1553-1.5723,1.7221-2.658,3.8559-3.2568,6.4014-0.59903,2.4708-0.89851,5.2785-0.89844,8.4229v6.4014h49.751v21.338h-49.751"/>
  </g>
 </a>
 <path stroke-linejoin="miter" d="m489.11,349.43,0,136.43" stroke="#000" stroke-linecap="butt" stroke-miterlimit="4" stroke-dasharray="none" stroke-width="31.47218323" fill="none"/>
 <path style="baseline-shift:baseline;block-progression:tb;color:#000000;direction:ltr;text-indent:0;text-align:start;enable-background:accumulate;text-transform:none;" fill="#000" d="m287.16,224.66a14.149,14.149,0,0,0,-11.594,21.375l29.875,51.812,4.0938,7.0625h8.1562,67.25a14.149,14.149,0,1,0,0,-28.281h-59.062l-25.812-44.719a14.149,14.149,0,0,0,-12.906,-7.25z"/>
 <path style="baseline-shift:baseline;block-progression:tb;color:#000000;direction:ltr;text-indent:0;text-align:start;enable-background:accumulate;text-transform:none;" fill="#000" d="M182.31,211.62a14.149,14.149,0,0,0,-13.56,10.07l-21.19,70.31a14.149,14.149,0,1,0,27.094,8.1562l18.156-60.219h65.781a14.156,14.156,0,0,0,0,-28.312h-76.281z"/>
 <path style="baseline-shift:baseline;block-progression:tb;color:#000000;direction:ltr;text-indent:0;text-align:start;enable-background:accumulate;text-transform:none;" fill="#000" d="m187.09,363-5.8438,21.844-14.438,53.844-69.469,0-22.625,0,0,45.281,22.625,0,86.844,0a22.639,22.639,0,0,0,21.875,-16.781l18.906-70.625,5.875-21.844-43.75-11.72z"/>
 <path style="baseline-shift:baseline;block-progression:tb;color:#000000;direction:ltr;text-indent:0;text-align:start;enable-background:accumulate;text-transform:none;" fill="#000" d="m236.09,354.62-22.625,39.219,52.344,30.219,0,136.78,45.281,0,0-149.84a22.639,22.639,0,0,0,-11.312,-19.625l-63.688-36.75z"/>
 <path fill-rule="nonzero" fill="#000" d="m308.36,257.26a45.476,45.476,0,0,1,-90.952,0,45.476,45.476,0,1,1,90.952,0z"/>
 <path style="baseline-shift:baseline;block-progression:tb;color:#000000;direction:ltr;text-indent:0;text-align:start;enable-background:accumulate;text-transform:none;" fill="#000" d="m220.34,238.34-36.25,135.97,87.5,23.344,36.25-136-87.5-23.312z"/>
 <path fill-rule="nonzero" fill="#000" d="m356.87,166.65a41.097,41.097,0,0,1,-82.193,0,41.097,41.097,0,1,1,82.193,0z"/>
 <path style="baseline-shift:baseline;block-progression:tb;color:#000000;direction:ltr;text-indent:0;text-align:start;enable-background:accumulate;text-transform:none;" fill="#000" d="m330.22,284.75,0-7,0-1.4062,0-7,7,0,66.938,0,7,0,0,7,0,1.4062,0,7-7,0-66.938,0-7,0z"/>
 <path style="baseline-shift:baseline;block-progression:tb;color:#000000;direction:ltr;text-indent:0;text-align:start;enable-background:accumulate;text-transform:none;" fill="#000" d="m411.15,284.78-6.236-3.1106-1.2864-0.64164-6.264-3.1245,3.1245-6.264,29.878-59.899,3.1245-6.264,6.264,3.1245,1.2864,0.64164,6.236,3.1106-3.1245,6.264-29.878,59.899-3.1245,6.264z"/>
 <g style="letter-spacing:0px;word-spacing:0px;" font-weight="normal" transform="translate(-36.31817,-193.31407)" font-size="144px" font-style="normal" font-family="Sans" line-height="125%" fill="#000">
  <path d="m651.98,459.49,19.125,0,46.547,87.82,0-87.82,13.781,0,0,104.98-19.125,0-46.547-87.82,0,87.82-13.781,0,0-104.98"/>
  <path d="m789.65,494.79c-6.9375,0.00007-12.422,2.7188-16.453,8.1562-4.0313,5.3907-6.0469,12.797-6.0469,22.219-0.00002,9.4219,1.9922,16.852,5.9766,22.289,4.0312,5.3906,9.539,8.086,16.523,8.0859,6.8906,0.00001,12.352-2.7187,16.383-8.1562,4.0312-5.4375,6.0468-12.844,6.0469-22.219-0.00006-9.3281-2.0157-16.711-6.0469-22.148-4.0313-5.4843-9.4922-8.2265-16.383-8.2266m0-10.969c11.25,0.00008,20.086,3.6563,26.508,10.969,6.4218,7.3126,9.6327,17.438,9.6328,30.375-0.00008,12.891-3.211,23.016-9.6328,30.375-6.4219,7.3125-15.258,10.969-26.508,10.969-11.297,0-20.156-3.6562-26.578-10.969-6.375-7.3594-9.5625-17.484-9.5625-30.375-0.00001-12.937,3.1875-23.062,9.5625-30.375,6.4218-7.3124,15.281-10.969,26.578-10.969"/>
  <path d="m892.8,497.81c-1.4532-0.84368-3.0469-1.4531-4.7812-1.8281-1.6876-0.4218-3.5626-0.63274-5.625-0.63281-7.3125,0.00007-12.938,2.3907-16.875,7.1719-3.8906,4.7344-5.836,11.555-5.8359,20.461v41.484h-13.008v-78.75h13.008v12.234c2.7187-4.7812,6.2578-8.3202,10.617-10.617,4.3593-2.3437,9.6562-3.5156,15.891-3.5156,0.89057,0.00008,1.875,0.0704,2.9531,0.21094,1.0781,0.0938,2.2734,0.25789,3.5859,0.49219l0.0703,13.289"/>
  <path d="m955.8,497.67,0-42.609,12.938,0,0,109.41-12.938,0,0-11.812c-2.7188,4.6875-6.1641,8.1797-10.336,10.477-4.125,2.25-9.0938,3.375-14.906,3.375-9.5157,0-17.273-3.7969-23.273-11.391-5.9531-7.5937-8.9297-17.578-8.9297-29.953-0.00001-12.375,2.9766-22.359,8.9297-29.953,6-7.5937,13.758-11.391,23.273-11.391,5.8124,0.00008,10.781,1.1485,14.906,3.4453,4.1718,2.2501,7.6171,5.7188,10.336,10.406m-44.086,27.492c-0.00002,9.5157,1.9453,16.992,5.8359,22.43,3.9375,5.3906,9.3281,8.086,16.172,8.0859,6.8437,0.00001,12.234-2.6953,16.172-8.0859,3.9374-5.4375,5.9062-12.914,5.9062-22.43-0.00006-9.5156-1.9688-16.969-5.9062-22.359-3.9376-5.4374-9.3282-8.1562-16.172-8.1562-6.8438,0.00007-12.234,2.7188-16.172,8.1562-3.8906,5.3907-5.836,12.844-5.8359,22.359"/>
  <path d="m1062.7,521.86,0,6.3281-59.484,0c0.5625,8.9063,3.2344,15.703,8.0156,20.391,4.8281,4.6406,11.531,6.961,20.109,6.9609,4.9687,0.00001,9.7734-0.60936,14.414-1.8281,4.6874-1.2187,9.328-3.0469,13.922-5.4844v12.234c-4.6407,1.9688-9.3986,3.4688-14.274,4.5-4.875,1.0312-9.8204,1.5469-14.836,1.5469-12.563,0-22.524-3.6562-29.883-10.969-7.3126-7.3125-10.969-17.203-10.969-29.672-0.00001-12.891,3.4687-23.109,10.406-30.656,6.9843-7.5937,16.383-11.391,28.195-11.391,10.594,0.00008,18.961,3.422,25.102,10.266,6.1875,6.7969,9.2812,16.055,9.2813,27.773m-12.938-3.7969c-0.094-7.0781-2.086-12.726-5.9766-16.945-3.8438-4.2187-8.9532-6.3281-15.328-6.3281-7.2188,0.00007-13.008,2.0391-17.367,6.1172-4.3125,4.0782-6.7969,9.8204-7.4531,17.227l46.125-0.0703"/>
  <path d="m1084,485.72,12.938,0,0,78.75-12.938,0,0-78.75m0-30.656,12.938,0,0,16.383-12.938,0,0-16.383"/>
  <path d="m1189.4,516.94,0,47.531-12.938,0,0-47.109c-0.0001-7.4531-1.4532-13.031-4.3594-16.734-2.9063-3.7031-7.2657-5.5546-13.078-5.5547-6.9844,0.00007-12.492,2.2266-16.523,6.6797-4.0313,4.4532-6.0469,10.523-6.0469,18.211v44.508h-13.008v-78.75h13.008v12.234c3.0937-4.7343,6.7265-8.2734,10.898-10.617,4.2187-2.3437,9.0703-3.5156,14.555-3.5156,9.0468,0.00008,15.891,2.8126,20.531,8.4375,4.6405,5.5782,6.9608,13.805,6.9609,24.68"/>
  <path d="m1267.1,524.18c0-9.375-1.9454-16.641-5.8359-21.797-3.8438-5.1562-9.2579-7.7343-16.242-7.7344-6.9375,0.00007-12.352,2.5782-16.242,7.7344-3.8438,5.1563-5.7656,12.422-5.7656,21.797,0,9.3282,1.9218,16.57,5.7656,21.727,3.8906,5.1563,9.3047,7.7344,16.242,7.7344,6.9843,0.00002,12.398-2.5781,16.242-7.7344,3.8905-5.1562,5.8359-12.398,5.8359-21.727m12.938,30.516c-0.0001,13.406-2.9766,23.367-8.9297,29.883-5.9532,6.5625-15.07,9.8437-27.352,9.8438-4.5469-0.00003-8.836-0.35159-12.867-1.0547-4.0313-0.65628-7.9453-1.6875-11.742-3.0938v-12.586c3.7969,2.0625,7.5469,3.5859,11.25,4.5703,3.7031,0.98436,7.4765,1.4765,11.32,1.4766,8.4843-0.00002,14.836-2.2266,19.055-6.6797,4.2187-4.4063,6.3281-11.086,6.3281-20.039v-6.3984c-2.6719,4.6406-6.0938,8.1094-10.266,10.406-4.1719,2.2969-9.1641,3.4453-14.977,3.4453-9.6562,0-17.438-3.6797-23.344-11.039-5.9063-7.3594-8.8594-17.109-8.8594-29.25,0-12.187,2.9531-21.961,8.8594-29.32,5.9062-7.3593,13.688-11.039,23.344-11.039,5.8125,0.00008,10.805,1.1485,14.977,3.4453,4.1718,2.297,7.5937,5.7657,10.266,10.406v-11.953h12.938v68.977"/>
  <path d="m1342.5,524.88c-10.453,0.00004-17.695,1.1954-21.726,3.5859-4.0313,2.3907-6.0469,6.4688-6.0469,12.234,0,4.5938,1.5,8.25,4.5,10.969,3.0468,2.6719,7.1718,4.0078,12.375,4.0078,7.1718,0.00001,12.914-2.5312,17.227-7.5938,4.3593-5.1094,6.539-11.883,6.539-20.32v-2.8828h-12.867m25.805-5.3438,0,44.93-12.938,0,0-11.953c-2.9532,4.7813-6.6329,8.3203-11.039,10.617-4.4063,2.25-9.797,3.375-16.172,3.375-8.0626,0-14.484-2.25-19.266-6.75-4.7344-4.5469-7.1016-10.617-7.1016-18.211,0-8.8593,2.9531-15.539,8.8594-20.039,5.9531-4.5,14.812-6.75,26.578-6.75h18.141v-1.2656c0-5.9531-1.9688-10.547-5.9062-13.781-3.8907-3.2812-9.3751-4.9218-16.453-4.9219-4.5,0.00007-8.8828,0.53913-13.148,1.6172-4.2656,1.0782-8.3672,2.6954-12.305,4.8516v-11.953c4.7344-1.828,9.3281-3.1874,13.781-4.0781,4.4531-0.93742,8.789-1.4062,13.008-1.4062,11.39,0.00008,19.898,2.9532,25.523,8.8594,5.6249,5.9063,8.4374,14.859,8.4375,26.859"/>
  <path d="m1460.5,516.94,0,47.531-12.938,0,0-47.109c-0.0001-7.4531-1.4532-13.031-4.3594-16.734-2.9063-3.7031-7.2657-5.5546-13.078-5.5547-6.9844,0.00007-12.492,2.2266-16.523,6.6797-4.0313,4.4532-6.0469,10.523-6.0469,18.211v44.508h-13.008v-78.75h13.008v12.234c3.0937-4.7343,6.7265-8.2734,10.898-10.617,4.2187-2.3437,9.0703-3.5156,14.555-3.5156,9.0468,0.00008,15.891,2.8126,20.531,8.4375,4.6405,5.5782,6.9608,13.805,6.9609,24.68"/>
  <path d="m1538.3,524.18c0-9.375-1.9454-16.641-5.8359-21.797-3.8438-5.1562-9.2579-7.7343-16.242-7.7344-6.9375,0.00007-12.352,2.5782-16.242,7.7344-3.8438,5.1563-5.7656,12.422-5.7656,21.797,0,9.3282,1.9218,16.57,5.7656,21.727,3.8906,5.1563,9.3047,7.7344,16.242,7.7344,6.9843,0.00002,12.398-2.5781,16.242-7.7344,3.8905-5.1562,5.8359-12.398,5.8359-21.727m12.938,30.516c-0.0001,13.406-2.9766,23.367-8.9297,29.883-5.9532,6.5625-15.07,9.8437-27.352,9.8438-4.5469-0.00003-8.836-0.35159-12.867-1.0547-4.0313-0.65628-7.9453-1.6875-11.742-3.0938v-12.586c3.7969,2.0625,7.5469,3.5859,11.25,4.5703,3.7031,0.98436,7.4765,1.4765,11.32,1.4766,8.4843-0.00002,14.836-2.2266,19.055-6.6797,4.2187-4.4063,6.3281-11.086,6.3281-20.039v-6.3984c-2.6719,4.6406-6.0938,8.1094-10.266,10.406-4.1719,2.2969-9.1641,3.4453-14.977,3.4453-9.6562,0-17.438-3.6797-23.344-11.039-5.9063-7.3594-8.8594-17.109-8.8594-29.25,0-12.187,2.9531-21.961,8.8594-29.32,5.9062-7.3593,13.688-11.039,23.344-11.039,5.8125,0.00008,10.805,1.1485,14.977,3.4453,4.1718,2.297,7.5937,5.7657,10.266,10.406v-11.953h12.938v68.977"/>
 </g>
 <g style="letter-spacing:0px;word-spacing:0px;" font-family="Sans" font-weight="normal" transform="matrix(1.7559906,0,0,1.7559906,-1223.4259,90.0769)" stroke-dashoffset="0" stroke="#000" stroke-miterlimit="4" font-size="64px" font-style="normal" stroke-width="0" line-height="125%" fill="#000">
  <path d="m1046.9,183.18,6.4289,0,15.647,29.521,0-29.521,4.6325,0,0,35.288-6.4288,0-15.647-29.521,0,29.521-4.6326,0,0-35.288"/>
  <path d="m1105.6,204.14,0,2.1272-19.996,0c0.189,2.9939,1.0872,5.2786,2.6944,6.8543,1.623,1.56,3.8763,2.3399,6.7598,2.3399,1.6702,0,3.2853-0.20484,4.8453-0.61453,1.5757-0.40968,3.1356-1.0242,4.6799-1.8436v4.1126c-1.56,0.6618-3.1594,1.166-4.7981,1.5127-1.6387,0.34665-3.3011,0.51998-4.9871,0.51998-4.2229,0-7.5713-1.229-10.045-3.6872-2.4581-2.4581-3.6872-5.7828-3.6872-9.9742,0-4.3332,1.166-7.7682,3.4981-10.305,2.3478-2.5526,5.5071-3.8289,9.4779-3.829,3.5611,0.00003,6.3737,1.1503,8.4379,3.4508,2.0799,2.2848,3.1199,5.3968,3.1199,9.3361m-4.349-1.2763c-0.032-2.3793-0.7012-4.278-2.009-5.6962-1.2921-1.4181-3.0096-2.1272-5.1526-2.1272-2.4266,0.00002-4.3725,0.68545-5.8379,2.0563-1.4497,1.3709-2.2848,3.3011-2.5054,5.7907l15.505-0.0236"/>
  <path d="m1112.3,208.02,0-16.025,4.3489,0,0,15.859c0,2.5054,0.4885,4.3884,1.4654,5.6489,0.977,1.2448,2.4424,1.8672,4.3963,1.8672,2.3477,0.00001,4.1992-0.74845,5.5543-2.2454,1.3709-1.4969,2.0563-3.5374,2.0563-6.1216v-15.009h4.349v26.472h-4.349v-4.0653c-1.0557,1.6072-2.2848,2.8048-3.6871,3.5926-1.3867,0.77209-3.0018,1.1581-4.8453,1.1581-3.0412,0-5.3496-0.94542-6.9253-2.8363-1.5757-1.8908-2.3635-4.6562-2.3635-8.2961m10.943-16.663"/>
  <path d="m1160.3,192.78,0,4.1126c-1.2291-0.63026-2.5054-1.103-3.829-1.4181-1.3236-0.31512-2.6945-0.47269-4.1126-0.47271-2.1587,0.00002-3.7817,0.33092-4.8689,0.99269-1.0715,0.66182-1.6073,1.6545-1.6073,2.9781,0,1.0085,0.3861,1.8042,1.1582,2.3872,0.7721,0.56727,2.3241,1.1109,4.6562,1.6308l1.489,0.3309c3.0884,0.66181,5.2786,1.5994,6.5707,2.8126,1.3079,1.1976,1.9618,2.8757,1.9618,5.0344,0,2.4581-0.977,4.4041-2.9308,5.838-1.9382,1.4339-4.609,2.1508-8.0125,2.1508-1.4181,0-2.8993-0.14181-4.4435-0.42544-1.5284-0.26787-3.1435-0.67755-4.8453-1.229v-4.4908c1.6072,0.83513,3.1908,1.4654,4.7508,1.8908,1.5599,0.40969,3.1041,0.61453,4.6326,0.61453,2.0484,0,3.6241-0.34666,4.7271-1.04,1.1029-0.70906,1.6544-1.7018,1.6545-2.9781-0.0001-1.1818-0.4019-2.0878-1.2055-2.7181-0.7878-0.63027-2.529-1.2369-5.2234-1.8199l-1.5127-0.35454c-2.6945-0.56724-4.6405-1.4339-5.838-2.5999-1.1975-1.1818-1.7963-2.7969-1.7963-4.8453,0-2.4896,0.8824-4.412,2.6472-5.7671s4.2701-2.0326,7.5161-2.0327c1.6072,0.00003,3.1199,0.11821,4.538,0.35454,1.4182,0.23638,2.726,0.59092,3.9236,1.0636"/>
  <path d="m1185.6,192.78,0,4.1126c-1.2291-0.63026-2.5054-1.103-3.829-1.4181-1.3236-0.31512-2.6944-0.47269-4.1126-0.47271-2.1587,0.00002-3.7817,0.33092-4.8689,0.99269-1.0715,0.66182-1.6072,1.6545-1.6072,2.9781,0,1.0085,0.386,1.8042,1.1581,2.3872,0.7721,0.56727,2.3242,1.1109,4.6562,1.6308l1.4891,0.3309c3.0883,0.66181,5.2786,1.5994,6.5707,2.8126,1.3078,1.1976,1.9617,2.8757,1.9617,5.0344,0,2.4581-0.9769,4.4041-2.9308,5.838-1.9381,1.4339-4.6089,2.1508-8.0125,2.1508-1.4181,0-2.8993-0.14181-4.4435-0.42544-1.5284-0.26787-3.1435-0.67755-4.8453-1.229v-4.4908c1.6073,0.83513,3.1909,1.4654,4.7508,1.8908,1.5599,0.40969,3.1041,0.61453,4.6326,0.61453,2.0484,0,3.6241-0.34666,4.7271-1.04,1.103-0.70906,1.6545-1.7018,1.6545-2.9781,0-1.1818-0.4018-2.0878-1.2054-2.7181-0.7879-0.63027-2.529-1.2369-5.2235-1.8199l-1.5127-0.35454c-2.6944-0.56724-4.6404-1.4339-5.838-2.5999-1.1975-1.1818-1.7963-2.7969-1.7963-4.8453,0-2.4896,0.8824-4.412,2.6472-5.7671s4.2702-2.0326,7.5161-2.0327c1.6073,0.00003,3.1199,0.11821,4.5381,0.35454,1.4181,0.23638,2.7259,0.59092,3.9235,1.0636"/>
  <path d="m1232,204.14,0,2.1272-19.996,0c0.1891,2.9939,1.0872,5.2786,2.6945,6.8543,1.6229,1.56,3.8762,2.3399,6.7597,2.3399,1.6703,0,3.2854-0.20484,4.8453-0.61453,1.5757-0.40968,3.1357-1.0242,4.6799-1.8436v4.1126c-1.56,0.6618-3.1593,1.166-4.798,1.5127-1.6388,0.34665-3.3012,0.51998-4.9871,0.51998-4.223,0-7.5713-1.229-10.045-3.6872-2.4581-2.4581-3.6871-5.7828-3.6871-9.9742,0-4.3332,1.166-7.7682,3.498-10.305,2.3478-2.5526,5.5071-3.8289,9.4779-3.829,3.5611,0.00003,6.3737,1.1503,8.4379,3.4508,2.0799,2.2848,3.1199,5.3968,3.1199,9.3361m-4.3489-1.2763c-0.032-2.3793-0.7012-4.278-2.0091-5.6962-1.2921-1.4181-3.0096-2.1272-5.1525-2.1272-2.4266,0.00002-4.3726,0.68545-5.838,2.0563-1.4497,1.3709-2.2848,3.3011-2.5054,5.7907l15.505-0.0236"/>
  <path d="m1239.7,212.46,4.9871,0,0,6.0034-4.9871,0,0-6.0034"/>
  <path d="m1263.8,218.47-13.472-35.288,4.9871,0,11.18,29.71,11.203-29.71,4.9635,0-13.449,35.288-5.4125,0"/>
  <path d="m1282,212.46,4.9871,0,0,6.0034-4.9871,0,0-6.0034"/>
 </g>
 <path d="m722.86-214.78-57.857,33.404,0-66.808z" fill-rule="nonzero" stroke-dashoffset="0" transform="translate(880.6932,459.25052)" stroke="#000" stroke-miterlimit="4" stroke-dasharray="none" stroke-width="10" fill="#00000c"/>
 <path stroke-linejoin="miter" d="m558.37,244.84,985.03,0" stroke="#000" stroke-linecap="butt" stroke-miterlimit="4" stroke-dasharray="none" stroke-width="21.20000076" fill="none"/>
</svg>
