<?xml version="1.0" encoding="UTF-8" standalone="no"?>
<!-- Created with Inkscape (http://www.inkscape.org/) -->
<svg xmlns:rdf="http://www.w3.org/1999/02/22-rdf-syntax-ns#" xmlns="http://www.w3.org/2000/svg" version="1.2" xmlns:cc="http://creativecommons.org/ns#" xmlns:dc="http://purl.org/dc/elements/1.1/" viewBox="0 0 372.57 435.3">
 <defs></defs>
 <metadata>
  <rdf:RDF>
   <cc:Work rdf:about="">
    <dc:format>image/svg+xml</dc:format>
    <dc:type rdf:resource="http://purl.org/dc/dcmitype/StillImage"/>
    <dc:title/>
   </cc:Work>
  </rdf:RDF>
 </metadata>
 <path d="m-429.97-502.33z" stroke-miterlimit="4" stroke-width="0" fill="none"/>
 <path style="baseline-shift:baseline;block-progression:tb;color:#000000;direction:ltr;text-indent:0;text-align:start;enable-background:accumulate;text-transform:none;" fill="#000" d="M212.44,99.094a14.149,14.149,0,0,0,-11.6,21.406l29.875,51.781,4.0938,7.0625h8.1562,67.25a14.149,14.149,0,1,0,0,-28.281h-59.062l-25.812-44.719a14.149,14.149,0,0,0,-12.906,-7.25z"/>
 <path style="baseline-shift:baseline;block-progression:tb;color:#000000;direction:ltr;text-indent:0;text-align:start;enable-background:accumulate;text-transform:none;" fill="#000" d="m107.59,86.094a14.149,14.149,0,0,0,-13.562,10.062l-21.188,70.281a14.152,14.152,0,1,0,27.094,8.1875l18.156-60.25h65.781a14.149,14.149,0,1,0,0,-28.281h-76.281z"/>
 <path style="baseline-shift:baseline;block-progression:tb;color:#000000;direction:ltr;text-indent:0;text-align:start;enable-background:accumulate;text-transform:none;" fill="#000" d="m112.38,237.44-5.8438,21.875-14.438,53.812-69.469,0-22.625,0,0,45.281,22.625,0,86.844,0a22.639,22.639,0,0,0,21.875,-16.781l18.906-70.594,5.875-21.875-43.75-11.719z"/>
 <path style="baseline-shift:baseline;block-progression:tb;color:#000000;direction:ltr;text-indent:0;text-align:start;enable-background:accumulate;text-transform:none;" fill="#000" d="m161.38,229.06-22.625,39.219,52.344,30.219,0,136.78,45.281,0,0-149.84a22.639,22.639,0,0,0,-11.32,-19.6l-63.68-36.78z"/>
 <path fill-rule="nonzero" fill="#000" d="m233.64,131.71a45.476,45.476,0,0,1,-90.952,0,45.476,45.476,0,1,1,90.952,0z"/>
 <path style="baseline-shift:baseline;block-progression:tb;color:#000000;direction:ltr;text-indent:0;text-align:start;enable-background:accumulate;text-transform:none;" fill="#000" d="m145.62,112.78-36.25,136,87.5,23.312,36.25-136-87.5-23.312z"/>
 <path fill-rule="nonzero" fill="#000" d="m282.15,41.097a41.097,41.097,0,0,1,-82.193,0,41.097,41.097,0,1,1,82.193,0z"/>
 <path style="baseline-shift:baseline;block-progression:tb;color:#000000;direction:ltr;text-indent:0;text-align:start;enable-background:accumulate;text-transform:none;" fill="#000" d="m255.5,159.19,0-6.9688,0-1.4375,0-7,7,0,66.938,0,7,0,0,7,0,1.4375,0,6.9688-7,0-66.938,0-7,0z"/>
 <path style="baseline-shift:baseline;block-progression:tb;color:#000000;direction:ltr;text-indent:0;text-align:start;enable-background:accumulate;text-transform:none;" fill="#000" d="m336.46,159.24-6.264-3.1245-1.2864-0.64164-6.264-3.1245,3.1245-6.264,29.878-59.899,3.1245-6.264,6.264,3.1245,1.2864,0.64165,6.264,3.1245-3.1245,6.264-29.878,59.899-3.1245,6.264z"/>
</svg>
